<?xml version="1.0" encoding="UTF-8" standalone="no"?>
<!-- Created with Inkscape (http://www.inkscape.org/) -->

<svg
   version="1.1"
   id="svg1"
   width="432.11868"
   height="285.78534"
   viewBox="0 0 432.11868 285.78534"
   xmlns="http://www.w3.org/2000/svg"
   xmlns:svg="http://www.w3.org/2000/svg">
  <defs
     id="defs1" />
  <g
     id="g1">
    <path
       id="path1"
       d="M 0,0 -244.91261,9.05579"
       style="fill:none;stroke:#000000;stroke-width:0.3985;stroke-linecap:butt;stroke-linejoin:miter;stroke-miterlimit:10;stroke-dasharray:2.98883, 2.98883;stroke-dashoffset:0;stroke-opacity:1"
       transform="matrix(1.3333333,0,0,-1.3333333,424.31067,179.25733)" />
    <path
       id="path2"
       d="M 3.58653,0 C 2.52383,0.19925 0.797,0.797 -0.3985,1.49438 V -1.49438 C 0.797,-0.797 2.52383,-0.19925 3.58653,0"
       style="fill:#000000;fill-opacity:1;fill-rule:nonzero;stroke:none"
       transform="matrix(-1.3323733,-0.04924,-0.04924,1.3323733,97.760533,167.18297)" />
    <path
       id="path3"
       d="m 3.3294688,-3.0122422 c 0.058594,-0.2578125 0.2929687,-1.171875 0.984375,-1.171875 0.046875,0 0.2929687,0 0.5039062,0.1289063 -0.28125,0.046875 -0.4804687,0.3046875 -0.4804687,0.5390625 0,0.1640625 0.1054687,0.3515625 0.375,0.3515625 0.2226562,0 0.5390625,-0.1875 0.5390625,-0.5859375 0,-0.515625 -0.5859375,-0.65625 -0.9257813,-0.65625 -0.5742187,0 -0.9257812,0.5273437 -1.0429687,0.7617187 -0.2578125,-0.65625 -0.7851563,-0.7617187 -1.078125,-0.7617187 -1.0429688,0 -1.6054688,1.2890625 -1.6054688,1.5351562 0,0.1054688 0.10546875,0.1054688 0.1171875,0.1054688 0.0820313,0 0.1171875,-0.023437 0.12890625,-0.1171875 0.33984375,-1.0546875 0.99609375,-1.3007813 1.33593755,-1.3007813 0.1875,0 0.5390625,0.09375 0.5390625,0.6679688 0,0.3046875 -0.1640625,0.9726562 -0.5390625,2.3671875 -0.1523438,0.62109371 -0.5039063,1.04296871 -0.9492188,1.04296871 -0.058594,0 -0.28125,0 -0.4921875,-0.12890625 0.24609375,-0.0585938 0.46875,-0.26953125 0.46875,-0.5390625 0,-0.26953126 -0.22265625,-0.35156246 -0.375,-0.35156246 -0.29296875,0 -0.5390625,0.25781246 -0.5390625,0.57421871 0,0.45703125 0.4921875,0.65625 0.9375,0.65625 0.65625,0 1.0078125,-0.69140625 1.0429688,-0.75 0.1171875,0.36328125 0.4804687,0.75 1.078125,0.75 1.0195312,0 1.59375,-1.27734371 1.59375,-1.53515621 0,-0.09375 -0.09375,-0.09375 -0.1289063,-0.09375 -0.082031,0 -0.1054687,0.035156 -0.1289062,0.1054687 -0.328125,1.06640626 -0.9960938,1.31250001 -1.3242188,1.31250001 -0.3867187,0 -0.5390625,-0.328125 -0.5390625,-0.65625 0,-0.22265625 0.058594,-0.44531251 0.1640625,-0.87890621 z m 0,0"
       style="fill:#000000;fill-opacity:1;fill-rule:nonzero;stroke:none"
       aria-label="x"
       transform="matrix(1.3333333,0,0,1.3333333,80.701333,177.41867)" />
    <path
       id="path4"
       d="M 0,0 -13.10841,-63.3183"
       style="fill:none;stroke:#000000;stroke-width:0.3985;stroke-linecap:butt;stroke-linejoin:miter;stroke-miterlimit:10;stroke-dasharray:2.98883, 2.98883;stroke-dashoffset:0;stroke-opacity:1"
       transform="matrix(1.3333333,0,0,-1.3333333,424.31067,179.25733)" />
    <path
       id="path5"
       d="M 3.58653,0 C 2.52383,0.19925 0.797,0.797 -0.3985,1.49438 V -1.49438 C 0.797,-0.797 2.52383,-0.19925 3.58653,0"
       style="fill:#000000;fill-opacity:1;fill-rule:nonzero;stroke:none"
       transform="matrix(-0.27028,1.3055867,1.3055867,0.27028,406.8328,263.68171)" />
    <path
       id="path6"
       d="m 4.8407891,-3.7977969 c 0.046875,-0.140625 0.046875,-0.1523437 0.046875,-0.2226562 0,-0.1875 -0.140625,-0.2695313 -0.2929688,-0.2695313 -0.1054687,0 -0.2578125,0.058594 -0.3515625,0.1992188 -0.023437,0.058594 -0.09375,0.3632812 -0.140625,0.5390625 -0.070312,0.2578125 -0.140625,0.5273437 -0.1992187,0.796875 l -0.4453125,1.79296873 c -0.035156,0.15234375 -0.46875,0.85546875 -1.125,0.85546875 -0.5039063,0 -0.6210938,-0.4453125 -0.6210938,-0.80859375 0,-0.45703123 0.1757813,-1.07812503 0.515625,-1.95703123 0.1523438,-0.4101563 0.1992188,-0.515625 0.1992188,-0.7148438 0,-0.4453125 -0.328125,-0.8203125 -0.8203125,-0.8203125 -0.94921879,0 -1.31250004,1.453125 -1.31250004,1.5351563 0,0.1054687 0.09375,0.1054687 0.1171875,0.1054687 0.09375,0 0.10546875,-0.023437 0.15234375,-0.1875 0.26953125,-0.9375 0.66796879,-1.2304687 1.00781249,-1.2304687 0.082031,0 0.2578125,0 0.2578125,0.3164062 0,0.2460938 -0.1054687,0.515625 -0.1757812,0.703125 -0.3984375,1.0546875 -0.5742188,1.6171875 -0.5742188,2.0859375 0,0.89062503 0.6210938,1.18359378 1.21875,1.18359378 0.3867188,0 0.7265625,-0.1640625 0.9960938,-0.4453125 -0.1289063,0.515625 -0.2460938,1.0078125 -0.6445313,1.53515622 -0.2578125,0.3398438 -0.6328125,0.6328125 -1.0898437,0.6328125 -0.140625,0 -0.59765629,-0.035156 -0.76171879,-0.421875 0.1640625,0 0.29296879,0 0.43359379,-0.1171875 0.09375,-0.09375 0.1992187,-0.2226562 0.1992187,-0.41015622 0,-0.31640625 -0.2695312,-0.3515625 -0.375,-0.3515625 -0.22265624,0 -0.55078124,0.1640625 -0.55078124,0.64453122 0,0.5039063 0.43359375,0.8671875 1.05468754,0.8671875 1.0195312,0 2.0507812,-0.9023437 2.3320312,-2.02734372 z m 0,0"
       style="fill:#000000;fill-opacity:1;fill-rule:nonzero;stroke:none"
       aria-label="y"
       transform="matrix(1.3333333,0,0,1.3333333,410.55733,278.77467)" />
    <path
       id="path7"
       d="M 0,0 V 119.72849"
       style="fill:none;stroke:#000000;stroke-width:0.3985;stroke-linecap:butt;stroke-linejoin:miter;stroke-miterlimit:10;stroke-dasharray:2.98883, 2.98883;stroke-dashoffset:0;stroke-opacity:1"
       transform="matrix(1.3333333,0,0,-1.3333333,424.31067,179.25733)" />
    <path
       id="path8"
       d="M 3.58653,0 C 2.52383,0.19925 0.797,0.797 -0.3985,1.49438 V -1.49438 C 0.797,-0.797 2.52383,-0.19925 3.58653,0"
       style="fill:#000000;fill-opacity:1;fill-rule:nonzero;stroke:none"
       transform="matrix(0,-1.3333333,-1.3333333,0,424.31067,19.619347)" />
    <path
       id="path9"
       d="M 1.3234844,-0.83070312 C 1.8625469,-1.4049219 2.1555156,-1.6510156 2.5070781,-1.9557031 c 0,-0.011719 0.6210938,-0.5390625 0.984375,-0.9023438 0.9375,-0.9257812 1.1601563,-1.40625 1.1601563,-1.4414062 0,-0.1054688 -0.09375,-0.1054688 -0.1054688,-0.1054688 -0.070312,0 -0.1054687,0.023437 -0.1523437,0.1171875 -0.3046875,0.46875 -0.5039063,0.6328125 -0.75,0.6328125 -0.234375,0 -0.3515625,-0.1523437 -0.5039063,-0.3164062 -0.1875,-0.234375 -0.3632812,-0.4335938 -0.6914062,-0.4335938 -0.75,0 -1.2070313,0.9257813 -1.2070313,1.1367188 0,0.046875 0.035156,0.1171875 0.1171875,0.1171875 0.09375,0 0.1171875,-0.058594 0.140625,-0.1171875 0.1875,-0.4570313 0.7617188,-0.46875 0.84375,-0.46875 0.2109375,0 0.3984375,0.070312 0.6210938,0.1523437 0.3984375,0.1523438 0.515625,0.1523438 0.7734375,0.1523438 -0.3632813,0.421875 -1.1953125,1.1367187 -1.3828125,1.3007812 l -0.9023438,0.8320313 c -0.67968747,0.66796873 -1.01953122,1.24218748 -1.01953122,1.31249998 0,0.09375 0.09375,0.09375 0.1171875,0.09375 0.0820313,0 0.09375,-0.01171875 0.15234375,-0.12890625 0.234375,-0.33984375 0.52734377,-0.609375 0.85546877,-0.609375 0.2226562,0 0.328125,0.0820313 0.5742187,0.375 0.1640625,0.2109375 0.3515625,0.36328125 0.6328125,0.36328125 0.984375,0 1.5703125,-1.26562498 1.5703125,-1.53515628 0,-0.046875 -0.046875,-0.09375 -0.1171875,-0.09375 -0.09375,0 -0.1171875,0.058594 -0.140625,0.1289063 -0.234375,0.64453123 -0.8671875,0.83203123 -1.1953125,0.83203123 -0.1992187,0 -0.3867187,-0.0585938 -0.5859375,-0.12890625 -0.3398437,-0.12890625 -0.4921875,-0.1640625 -0.703125,-0.1640625 -0.023437,0 -0.1757812,0 -0.2695312,0.0234375 z m 0,0"
       style="fill:#000000;fill-opacity:1;fill-rule:nonzero;stroke:none"
       aria-label="z"
       transform="matrix(1.3333333,0,0,1.3333333,420.93067,10.146667)" />
    <path
       id="path10"
       d="m 0,0 v 92.48627 l -214.61067,7.93528 V 7.93527 Z"
       style="fill:#d9d9d9;fill-opacity:1;fill-rule:nonzero;stroke:#000000;stroke-width:0.79701;stroke-linecap:butt;stroke-linejoin:miter;stroke-miterlimit:10;stroke-dasharray:none;stroke-opacity:1"
       transform="matrix(1.3333333,0,0,-1.3333333,424.31067,179.25733)" />
    <path
       id="path11"
       d="m 0,92.48627 -3.93062,-1.39388 -3.29835,1.66117 V 0.26727 L -3.93062,-1.39384 0,0 Z"
       style="fill:#d9d9d9;fill-opacity:1;fill-rule:nonzero;stroke:#000000;stroke-width:0.3985;stroke-linecap:butt;stroke-linejoin:miter;stroke-miterlimit:10;stroke-dasharray:none;stroke-opacity:1"
       transform="matrix(1.3333333,0,0,-1.3333333,424.31067,179.25733)" />
    <path
       id="path12"
       d="M -3.93062,91.09239 V -1.39384"
       style="fill:none;stroke:#000000;stroke-width:0.3985;stroke-linecap:butt;stroke-linejoin:miter;stroke-miterlimit:10;stroke-dasharray:none;stroke-opacity:1"
       transform="matrix(1.3333333,0,0,-1.3333333,424.31067,179.25733)" />
    <path
       id="path13"
       d="m -7.22897,92.75356 -3.93062,-1.39388 -3.29837,1.66118 V 0.53458 l 3.29837,-1.66114 3.93062,1.39383 z"
       style="fill:#d9d9d9;fill-opacity:1;fill-rule:nonzero;stroke:#000000;stroke-width:0.3985;stroke-linecap:butt;stroke-linejoin:miter;stroke-miterlimit:10;stroke-dasharray:none;stroke-opacity:1"
       transform="matrix(1.3333333,0,0,-1.3333333,424.31067,179.25733)" />
    <path
       id="path14"
       d="M -11.15959,91.35968 V -1.12656"
       style="fill:none;stroke:#000000;stroke-width:0.3985;stroke-linecap:butt;stroke-linejoin:miter;stroke-miterlimit:10;stroke-dasharray:none;stroke-opacity:1"
       transform="matrix(1.3333333,0,0,-1.3333333,424.31067,179.25733)" />
    <path
       id="path15"
       d="m -14.45796,93.02086 -3.93062,-1.39388 -3.29836,1.66115 V 0.80186 l 3.29836,-1.66113 3.93062,1.39385 z"
       style="fill:#d9d9d9;fill-opacity:1;fill-rule:nonzero;stroke:#000000;stroke-width:0.3985;stroke-linecap:butt;stroke-linejoin:miter;stroke-miterlimit:10;stroke-dasharray:none;stroke-opacity:1"
       transform="matrix(1.3333333,0,0,-1.3333333,424.31067,179.25733)" />
    <path
       id="path16"
       d="M -18.38858,91.62698 V -0.85927"
       style="fill:none;stroke:#000000;stroke-width:0.3985;stroke-linecap:butt;stroke-linejoin:miter;stroke-miterlimit:10;stroke-dasharray:none;stroke-opacity:1"
       transform="matrix(1.3333333,0,0,-1.3333333,424.31067,179.25733)" />
    <path
       id="path17"
       d="m -21.68694,93.28813 -3.93061,-1.39384 -3.29837,1.66115 V 1.06915 l 3.29837,-1.66113 3.93061,1.39384 z"
       style="fill:#d9d9d9;fill-opacity:1;fill-rule:nonzero;stroke:#000000;stroke-width:0.3985;stroke-linecap:butt;stroke-linejoin:miter;stroke-miterlimit:10;stroke-dasharray:none;stroke-opacity:1"
       transform="matrix(1.3333333,0,0,-1.3333333,424.31067,179.25733)" />
    <path
       id="path18"
       d="M -25.61755,91.89429 V -0.59198"
       style="fill:none;stroke:#000000;stroke-width:0.3985;stroke-linecap:butt;stroke-linejoin:miter;stroke-miterlimit:10;stroke-dasharray:none;stroke-opacity:1"
       transform="matrix(1.3333333,0,0,-1.3333333,424.31067,179.25733)" />
    <path
       id="path19"
       d="m -28.91592,93.55544 -3.93064,-1.39386 -3.29834,1.66114 V 1.33644 l 3.29834,-1.66112 3.93064,1.39383 z"
       style="fill:#d9d9d9;fill-opacity:1;fill-rule:nonzero;stroke:#000000;stroke-width:0.3985;stroke-linecap:butt;stroke-linejoin:miter;stroke-miterlimit:10;stroke-dasharray:none;stroke-opacity:1"
       transform="matrix(1.3333333,0,0,-1.3333333,424.31067,179.25733)" />
    <path
       id="path20"
       d="M -32.84656,92.16158 V -0.32468"
       style="fill:none;stroke:#000000;stroke-width:0.3985;stroke-linecap:butt;stroke-linejoin:miter;stroke-miterlimit:10;stroke-dasharray:none;stroke-opacity:1"
       transform="matrix(1.3333333,0,0,-1.3333333,424.31067,179.25733)" />
    <path
       id="path21"
       d="m -36.1449,93.82272 -3.93065,-1.39386 -3.29834,1.66117 V 1.60374 l 3.29834,-1.66111 3.93065,1.39381 z"
       style="fill:#d9d9d9;fill-opacity:1;fill-rule:nonzero;stroke:#000000;stroke-width:0.3985;stroke-linecap:butt;stroke-linejoin:miter;stroke-miterlimit:10;stroke-dasharray:none;stroke-opacity:1"
       transform="matrix(1.3333333,0,0,-1.3333333,424.31067,179.25733)" />
    <path
       id="path22"
       d="M -40.07555,92.42886 V -0.05737"
       style="fill:none;stroke:#000000;stroke-width:0.3985;stroke-linecap:butt;stroke-linejoin:miter;stroke-miterlimit:10;stroke-dasharray:none;stroke-opacity:1"
       transform="matrix(1.3333333,0,0,-1.3333333,424.31067,179.25733)" />
    <path
       id="path23"
       d="m -43.37389,94.09003 -3.93063,-1.39388 -3.29835,1.66117 V 1.87103 l 3.29835,-1.66116 3.93063,1.39387 z"
       style="fill:#d9d9d9;fill-opacity:1;fill-rule:nonzero;stroke:#000000;stroke-width:0.3985;stroke-linecap:butt;stroke-linejoin:miter;stroke-miterlimit:10;stroke-dasharray:none;stroke-opacity:1"
       transform="matrix(1.3333333,0,0,-1.3333333,424.31067,179.25733)" />
    <path
       id="path24"
       d="M -47.30452,92.69615 V 0.20987"
       style="fill:none;stroke:#000000;stroke-width:0.3985;stroke-linecap:butt;stroke-linejoin:miter;stroke-miterlimit:10;stroke-dasharray:none;stroke-opacity:1"
       transform="matrix(1.3333333,0,0,-1.3333333,424.31067,179.25733)" />
    <path
       id="path25"
       d="m -50.60287,94.35732 -3.93064,-1.39386 -3.29835,1.66114 V 2.13834 l 3.29835,-1.66117 3.93064,1.39386 z"
       style="fill:#d9d9d9;fill-opacity:1;fill-rule:nonzero;stroke:#000000;stroke-width:0.3985;stroke-linecap:butt;stroke-linejoin:miter;stroke-miterlimit:10;stroke-dasharray:none;stroke-opacity:1"
       transform="matrix(1.3333333,0,0,-1.3333333,424.31067,179.25733)" />
    <path
       id="path26"
       d="M -54.53351,92.96346 V 0.47717"
       style="fill:none;stroke:#000000;stroke-width:0.3985;stroke-linecap:butt;stroke-linejoin:miter;stroke-miterlimit:10;stroke-dasharray:none;stroke-opacity:1"
       transform="matrix(1.3333333,0,0,-1.3333333,424.31067,179.25733)" />
    <path
       id="path27"
       d="m -57.83186,94.6246 -3.93064,-1.39386 -3.29834,1.66115 V 2.40562 l 3.29834,-1.66116 3.93064,1.39388 z"
       style="fill:#d9d9d9;fill-opacity:1;fill-rule:nonzero;stroke:#000000;stroke-width:0.3985;stroke-linecap:butt;stroke-linejoin:miter;stroke-miterlimit:10;stroke-dasharray:none;stroke-opacity:1"
       transform="matrix(1.3333333,0,0,-1.3333333,424.31067,179.25733)" />
    <path
       id="path28"
       d="M -61.7625,93.23074 V 0.74446"
       style="fill:none;stroke:#000000;stroke-width:0.3985;stroke-linecap:butt;stroke-linejoin:miter;stroke-miterlimit:10;stroke-dasharray:none;stroke-opacity:1"
       transform="matrix(1.3333333,0,0,-1.3333333,424.31067,179.25733)" />
    <path
       id="path29"
       d="m -65.06084,94.89189 -3.93065,-1.39386 -3.29834,1.66117 V 2.67293 l 3.29834,-1.66117 3.93065,1.39386 z"
       style="fill:#d9d9d9;fill-opacity:1;fill-rule:nonzero;stroke:#000000;stroke-width:0.3985;stroke-linecap:butt;stroke-linejoin:miter;stroke-miterlimit:10;stroke-dasharray:none;stroke-opacity:1"
       transform="matrix(1.3333333,0,0,-1.3333333,424.31067,179.25733)" />
    <path
       id="path30"
       d="M -68.99149,93.49803 V 1.01176"
       style="fill:none;stroke:#000000;stroke-width:0.3985;stroke-linecap:butt;stroke-linejoin:miter;stroke-miterlimit:10;stroke-dasharray:none;stroke-opacity:1"
       transform="matrix(1.3333333,0,0,-1.3333333,424.31067,179.25733)" />
    <path
       id="path31"
       d="m -72.28983,95.1592 -3.93063,-1.39388 -3.29834,1.66116 V 2.9402 l 3.29834,-1.66115 3.93063,1.39388 z"
       style="fill:#d9d9d9;fill-opacity:1;fill-rule:nonzero;stroke:#000000;stroke-width:0.3985;stroke-linecap:butt;stroke-linejoin:miter;stroke-miterlimit:10;stroke-dasharray:none;stroke-opacity:1"
       transform="matrix(1.3333333,0,0,-1.3333333,424.31067,179.25733)" />
    <path
       id="path32"
       d="M -76.22046,93.76532 V 1.27905"
       style="fill:none;stroke:#000000;stroke-width:0.3985;stroke-linecap:butt;stroke-linejoin:miter;stroke-miterlimit:10;stroke-dasharray:none;stroke-opacity:1"
       transform="matrix(1.3333333,0,0,-1.3333333,424.31067,179.25733)" />
    <path
       id="path33"
       d="m -79.5188,95.42648 -3.93065,-1.39386 -3.29835,1.66117 V 3.2075 l 3.29835,-1.66114 3.93065,1.39384 z"
       style="fill:#d9d9d9;fill-opacity:1;fill-rule:nonzero;stroke:#000000;stroke-width:0.3985;stroke-linecap:butt;stroke-linejoin:miter;stroke-miterlimit:10;stroke-dasharray:none;stroke-opacity:1"
       transform="matrix(1.3333333,0,0,-1.3333333,424.31067,179.25733)" />
    <path
       id="path34"
       d="M -83.44945,94.03262 V 1.54636"
       style="fill:none;stroke:#000000;stroke-width:0.3985;stroke-linecap:butt;stroke-linejoin:miter;stroke-miterlimit:10;stroke-dasharray:none;stroke-opacity:1"
       transform="matrix(1.3333333,0,0,-1.3333333,424.31067,179.25733)" />
    <path
       id="path35"
       d="m -86.7478,95.69379 -3.93062,-1.39388 -3.29836,1.66116 V 3.4748 l 3.29836,-1.66117 3.93062,1.39387 z"
       style="fill:#d9d9d9;fill-opacity:1;fill-rule:nonzero;stroke:#000000;stroke-width:0.3985;stroke-linecap:butt;stroke-linejoin:miter;stroke-miterlimit:10;stroke-dasharray:none;stroke-opacity:1"
       transform="matrix(1.3333333,0,0,-1.3333333,424.31067,179.25733)" />
    <path
       id="path36"
       d="M -90.67842,94.29991 V 1.81363"
       style="fill:none;stroke:#000000;stroke-width:0.3985;stroke-linecap:butt;stroke-linejoin:miter;stroke-miterlimit:10;stroke-dasharray:none;stroke-opacity:1"
       transform="matrix(1.3333333,0,0,-1.3333333,424.31067,179.25733)" />
    <path
       id="path37"
       d="m -93.97678,95.96107 -3.93063,-1.39386 -3.29835,1.66117 V 3.7421 l 3.29835,-1.66117 3.93063,1.39387 z"
       style="fill:#d9d9d9;fill-opacity:1;fill-rule:nonzero;stroke:#000000;stroke-width:0.3985;stroke-linecap:butt;stroke-linejoin:miter;stroke-miterlimit:10;stroke-dasharray:none;stroke-opacity:1"
       transform="matrix(1.3333333,0,0,-1.3333333,424.31067,179.25733)" />
    <path
       id="path38"
       d="M -97.90741,94.56721 V 2.08093"
       style="fill:none;stroke:#000000;stroke-width:0.3985;stroke-linecap:butt;stroke-linejoin:miter;stroke-miterlimit:10;stroke-dasharray:none;stroke-opacity:1"
       transform="matrix(1.3333333,0,0,-1.3333333,424.31067,179.25733)" />
    <path
       id="path39"
       d="m -101.20576,96.22838 -3.93062,-1.39388 -3.29837,1.66117 V 4.00938 l 3.29837,-1.66116 3.93062,1.39388 z"
       style="fill:#d9d9d9;fill-opacity:1;fill-rule:nonzero;stroke:#000000;stroke-width:0.3985;stroke-linecap:butt;stroke-linejoin:miter;stroke-miterlimit:10;stroke-dasharray:none;stroke-opacity:1"
       transform="matrix(1.3333333,0,0,-1.3333333,424.31067,179.25733)" />
    <path
       id="path40"
       d="M -105.13638,94.8345 V 2.34822"
       style="fill:none;stroke:#000000;stroke-width:0.3985;stroke-linecap:butt;stroke-linejoin:miter;stroke-miterlimit:10;stroke-dasharray:none;stroke-opacity:1"
       transform="matrix(1.3333333,0,0,-1.3333333,424.31067,179.25733)" />
    <path
       id="path41"
       d="m -108.43475,96.49567 -3.93064,-1.39387 -3.29834,1.66115 V 4.27667 l 3.29834,-1.66115 3.93064,1.39386 z"
       style="fill:#d9d9d9;fill-opacity:1;fill-rule:nonzero;stroke:#000000;stroke-width:0.3985;stroke-linecap:butt;stroke-linejoin:miter;stroke-miterlimit:10;stroke-dasharray:none;stroke-opacity:1"
       transform="matrix(1.3333333,0,0,-1.3333333,424.31067,179.25733)" />
    <path
       id="path42"
       d="M -112.36539,95.1018 V 2.61552"
       style="fill:none;stroke:#000000;stroke-width:0.3985;stroke-linecap:butt;stroke-linejoin:miter;stroke-miterlimit:10;stroke-dasharray:none;stroke-opacity:1"
       transform="matrix(1.3333333,0,0,-1.3333333,424.31067,179.25733)" />
    <path
       id="path43"
       d="m -115.66373,96.76295 -3.93063,-1.39387 -3.29836,1.66118 V 4.54398 l 3.29836,-1.66117 3.93063,1.39386 z"
       style="fill:#d9d9d9;fill-opacity:1;fill-rule:nonzero;stroke:#000000;stroke-width:0.3985;stroke-linecap:butt;stroke-linejoin:miter;stroke-miterlimit:10;stroke-dasharray:none;stroke-opacity:1"
       transform="matrix(1.3333333,0,0,-1.3333333,424.31067,179.25733)" />
    <path
       id="path44"
       d="M -119.59436,95.36908 V 2.88281"
       style="fill:none;stroke:#000000;stroke-width:0.3985;stroke-linecap:butt;stroke-linejoin:miter;stroke-miterlimit:10;stroke-dasharray:none;stroke-opacity:1"
       transform="matrix(1.3333333,0,0,-1.3333333,424.31067,179.25733)" />
    <path
       id="path45"
       d="m -122.89272,97.03026 -3.93063,-1.39388 -3.29834,1.66115 V 4.81126 l 3.29834,-1.66114 3.93063,1.39386 z"
       style="fill:#d9d9d9;fill-opacity:1;fill-rule:nonzero;stroke:#000000;stroke-width:0.3985;stroke-linecap:butt;stroke-linejoin:miter;stroke-miterlimit:10;stroke-dasharray:none;stroke-opacity:1"
       transform="matrix(1.3333333,0,0,-1.3333333,424.31067,179.25733)" />
    <path
       id="path46"
       d="M -126.82335,95.63638 V 3.15012"
       style="fill:none;stroke:#000000;stroke-width:0.3985;stroke-linecap:butt;stroke-linejoin:miter;stroke-miterlimit:10;stroke-dasharray:none;stroke-opacity:1"
       transform="matrix(1.3333333,0,0,-1.3333333,424.31067,179.25733)" />
    <path
       id="path47"
       d="m -130.12169,97.29753 -3.93063,-1.39384 -3.29838,1.66114 V 5.07857 l 3.29838,-1.66117 3.93063,1.39386 z"
       style="fill:#d9d9d9;fill-opacity:1;fill-rule:nonzero;stroke:#000000;stroke-width:0.3985;stroke-linecap:butt;stroke-linejoin:miter;stroke-miterlimit:10;stroke-dasharray:none;stroke-opacity:1"
       transform="matrix(1.3333333,0,0,-1.3333333,424.31067,179.25733)" />
    <path
       id="path48"
       d="M -134.05232,95.90369 V 3.4174"
       style="fill:none;stroke:#000000;stroke-width:0.3985;stroke-linecap:butt;stroke-linejoin:miter;stroke-miterlimit:10;stroke-dasharray:none;stroke-opacity:1"
       transform="matrix(1.3333333,0,0,-1.3333333,424.31067,179.25733)" />
    <path
       id="path49"
       d="m -137.3507,97.56483 -3.93061,-1.39386 -3.29836,1.66115 V 5.34586 l 3.29836,-1.66116 3.93061,1.39387 z"
       style="fill:#d9d9d9;fill-opacity:1;fill-rule:nonzero;stroke:#000000;stroke-width:0.3985;stroke-linecap:butt;stroke-linejoin:miter;stroke-miterlimit:10;stroke-dasharray:none;stroke-opacity:1"
       transform="matrix(1.3333333,0,0,-1.3333333,424.31067,179.25733)" />
    <path
       id="path50"
       d="M -141.28131,96.17097 V 3.6847"
       style="fill:none;stroke:#000000;stroke-width:0.3985;stroke-linecap:butt;stroke-linejoin:miter;stroke-miterlimit:10;stroke-dasharray:none;stroke-opacity:1"
       transform="matrix(1.3333333,0,0,-1.3333333,424.31067,179.25733)" />
    <path
       id="path51"
       d="m -144.57967,97.83212 -3.93064,-1.39386 -3.29834,1.66117 V 5.61316 l 3.29834,-1.66116 3.93064,1.39386 z"
       style="fill:#d9d9d9;fill-opacity:1;fill-rule:nonzero;stroke:#000000;stroke-width:0.3985;stroke-linecap:butt;stroke-linejoin:miter;stroke-miterlimit:10;stroke-dasharray:none;stroke-opacity:1"
       transform="matrix(1.3333333,0,0,-1.3333333,424.31067,179.25733)" />
    <path
       id="path52"
       d="M -148.51031,96.43826 V 3.952"
       style="fill:none;stroke:#000000;stroke-width:0.3985;stroke-linecap:butt;stroke-linejoin:miter;stroke-miterlimit:10;stroke-dasharray:none;stroke-opacity:1"
       transform="matrix(1.3333333,0,0,-1.3333333,424.31067,179.25733)" />
    <path
       id="path53"
       d="m -151.80865,98.09943 -3.93064,-1.39388 -3.29834,1.66116 V 5.88043 l 3.29834,-1.66115 3.93064,1.39388 z"
       style="fill:#d9d9d9;fill-opacity:1;fill-rule:nonzero;stroke:#000000;stroke-width:0.3985;stroke-linecap:butt;stroke-linejoin:miter;stroke-miterlimit:10;stroke-dasharray:none;stroke-opacity:1"
       transform="matrix(1.3333333,0,0,-1.3333333,424.31067,179.25733)" />
    <path
       id="path54"
       d="M -155.73929,96.70555 V 4.21928"
       style="fill:none;stroke:#000000;stroke-width:0.3985;stroke-linecap:butt;stroke-linejoin:miter;stroke-miterlimit:10;stroke-dasharray:none;stroke-opacity:1"
       transform="matrix(1.3333333,0,0,-1.3333333,424.31067,179.25733)" />
    <path
       id="path55"
       d="m -159.03763,98.36671 -3.93065,-1.39386 -3.29835,1.66117 V 6.14774 l 3.29835,-1.66115 3.93065,1.39384 z"
       style="fill:#d9d9d9;fill-opacity:1;fill-rule:nonzero;stroke:#000000;stroke-width:0.3985;stroke-linecap:butt;stroke-linejoin:miter;stroke-miterlimit:10;stroke-dasharray:none;stroke-opacity:1"
       transform="matrix(1.3333333,0,0,-1.3333333,424.31067,179.25733)" />
    <path
       id="path56"
       d="M -162.96828,96.97285 V 4.48659"
       style="fill:none;stroke:#000000;stroke-width:0.3985;stroke-linecap:butt;stroke-linejoin:miter;stroke-miterlimit:10;stroke-dasharray:none;stroke-opacity:1"
       transform="matrix(1.3333333,0,0,-1.3333333,424.31067,179.25733)" />
    <path
       id="path57"
       d="m -166.26663,98.63402 -3.93062,-1.39388 -3.29835,1.66116 V 6.41502 l 3.29835,-1.66116 3.93062,1.39388 z"
       style="fill:#d9d9d9;fill-opacity:1;fill-rule:nonzero;stroke:#000000;stroke-width:0.3985;stroke-linecap:butt;stroke-linejoin:miter;stroke-miterlimit:10;stroke-dasharray:none;stroke-opacity:1"
       transform="matrix(1.3333333,0,0,-1.3333333,424.31067,179.25733)" />
    <path
       id="path58"
       d="M -170.19725,97.24014 V 4.75386"
       style="fill:none;stroke:#000000;stroke-width:0.3985;stroke-linecap:butt;stroke-linejoin:miter;stroke-miterlimit:10;stroke-dasharray:none;stroke-opacity:1"
       transform="matrix(1.3333333,0,0,-1.3333333,424.31067,179.25733)" />
    <path
       id="path59"
       d="m -173.4956,98.9013 -3.93064,-1.39385 -3.29836,1.66115 V 6.68233 l 3.29836,-1.66117 3.93064,1.39386 z"
       style="fill:#d9d9d9;fill-opacity:1;fill-rule:nonzero;stroke:#000000;stroke-width:0.3985;stroke-linecap:butt;stroke-linejoin:miter;stroke-miterlimit:10;stroke-dasharray:none;stroke-opacity:1"
       transform="matrix(1.3333333,0,0,-1.3333333,424.31067,179.25733)" />
    <path
       id="path60"
       d="M -177.42624,97.50745 V 5.02116"
       style="fill:none;stroke:#000000;stroke-width:0.3985;stroke-linecap:butt;stroke-linejoin:miter;stroke-miterlimit:10;stroke-dasharray:none;stroke-opacity:1"
       transform="matrix(1.3333333,0,0,-1.3333333,424.31067,179.25733)" />
    <path
       id="path61"
       d="m -180.7246,99.1686 -3.93063,-1.39387 -3.29834,1.66115 V 6.94962 l 3.29834,-1.66117 3.93063,1.39388 z"
       style="fill:#d9d9d9;fill-opacity:1;fill-rule:nonzero;stroke:#000000;stroke-width:0.3985;stroke-linecap:butt;stroke-linejoin:miter;stroke-miterlimit:10;stroke-dasharray:none;stroke-opacity:1"
       transform="matrix(1.3333333,0,0,-1.3333333,424.31067,179.25733)" />
    <path
       id="path62"
       d="M -184.65523,97.77473 V 5.28845"
       style="fill:none;stroke:#000000;stroke-width:0.3985;stroke-linecap:butt;stroke-linejoin:miter;stroke-miterlimit:10;stroke-dasharray:none;stroke-opacity:1"
       transform="matrix(1.3333333,0,0,-1.3333333,424.31067,179.25733)" />
    <path
       id="path63"
       d="m -187.95357,99.43588 -3.93065,-1.39384 -3.29834,1.66115 V 7.2169 l 3.29834,-1.66114 3.93065,1.39386 z"
       style="fill:#d9d9d9;fill-opacity:1;fill-rule:nonzero;stroke:#000000;stroke-width:0.3985;stroke-linecap:butt;stroke-linejoin:miter;stroke-miterlimit:10;stroke-dasharray:none;stroke-opacity:1"
       transform="matrix(1.3333333,0,0,-1.3333333,424.31067,179.25733)" />
    <path
       id="path64"
       d="M -191.88422,98.04204 V 5.55576"
       style="fill:none;stroke:#000000;stroke-width:0.3985;stroke-linecap:butt;stroke-linejoin:miter;stroke-miterlimit:10;stroke-dasharray:none;stroke-opacity:1"
       transform="matrix(1.3333333,0,0,-1.3333333,424.31067,179.25733)" />
    <path
       id="path65"
       d="m -195.18256,99.70319 -3.93063,-1.39388 -3.29835,1.66118 V 7.4842 l 3.29835,-1.66116 3.93063,1.39386 z"
       style="fill:#d9d9d9;fill-opacity:1;fill-rule:nonzero;stroke:#000000;stroke-width:0.3985;stroke-linecap:butt;stroke-linejoin:miter;stroke-miterlimit:10;stroke-dasharray:none;stroke-opacity:1"
       transform="matrix(1.3333333,0,0,-1.3333333,424.31067,179.25733)" />
    <path
       id="path66"
       d="M -199.11319,98.30931 V 5.82304"
       style="fill:none;stroke:#000000;stroke-width:0.3985;stroke-linecap:butt;stroke-linejoin:miter;stroke-miterlimit:10;stroke-dasharray:none;stroke-opacity:1"
       transform="matrix(1.3333333,0,0,-1.3333333,424.31067,179.25733)" />
    <path
       id="path67"
       d="m -202.41154,99.97049 -3.93064,-1.39388 -3.29835,1.66115 V 7.7515 l 3.29835,-1.66115 3.93064,1.39385 z"
       style="fill:#d9d9d9;fill-opacity:1;fill-rule:nonzero;stroke:#000000;stroke-width:0.3985;stroke-linecap:butt;stroke-linejoin:miter;stroke-miterlimit:10;stroke-dasharray:none;stroke-opacity:1"
       transform="matrix(1.3333333,0,0,-1.3333333,424.31067,179.25733)" />
    <path
       id="path68"
       d="M -206.34218,98.57661 V 6.09035"
       style="fill:none;stroke:#000000;stroke-width:0.3985;stroke-linecap:butt;stroke-linejoin:miter;stroke-miterlimit:10;stroke-dasharray:none;stroke-opacity:1"
       transform="matrix(1.3333333,0,0,-1.3333333,424.31067,179.25733)" />
    <path
       id="path69"
       d="m -209.6407,100.23778 -3.93063,-1.39388 -1.23697,0.62294 V 6.98058 l 1.23697,-0.62294 3.93063,1.39386 z"
       style="fill:#d9d9d9;fill-opacity:1;fill-rule:nonzero;stroke:#000000;stroke-width:0.3985;stroke-linecap:butt;stroke-linejoin:miter;stroke-miterlimit:10;stroke-dasharray:none;stroke-opacity:1"
       transform="matrix(1.3333333,0,0,-1.3333333,424.31067,179.25733)" />
    <path
       id="path70"
       d="M -213.57133,98.8439 V 6.35764"
       style="fill:none;stroke:#000000;stroke-width:0.3985;stroke-linecap:butt;stroke-linejoin:miter;stroke-miterlimit:10;stroke-dasharray:none;stroke-opacity:1"
       transform="matrix(1.3333333,0,0,-1.3333333,424.31067,179.25733)" />
    <path
       id="path71"
       d="m -227.75746,-24.17816 c 0,1.32054 -1.0705,2.39102 -2.39102,2.39102 -1.32054,0 -2.39104,-1.07048 -2.39104,-2.39102 0,-1.32054 1.0705,-2.39102 2.39104,-2.39102 1.32052,0 2.39102,1.07048 2.39102,2.39102 z"
       style="fill:#000000;fill-opacity:1;fill-rule:nonzero;stroke:#000000;stroke-width:0.3985;stroke-linecap:butt;stroke-linejoin:miter;stroke-miterlimit:10;stroke-dasharray:none;stroke-opacity:1"
       transform="matrix(1.3333333,0,0,-1.3333333,424.31067,179.25733)" />
    <path
       id="path72"
       d="M -230.14848,-24.17816 V -39.59253"
       style="fill:none;stroke:#000000;stroke-width:0.79701;stroke-linecap:butt;stroke-linejoin:miter;stroke-miterlimit:10;stroke-dasharray:0.79701, 0.99628;stroke-dashoffset:0;stroke-opacity:1"
       transform="matrix(1.3333333,0,0,-1.3333333,424.31067,179.25733)" />
    <path
       id="path73"
       d="m -9.88246,-47.73584 -220.25832,8.1441"
       style="fill:none;stroke:#000000;stroke-width:0.79701;stroke-linecap:butt;stroke-linejoin:miter;stroke-miterlimit:10;stroke-dasharray:0.79701, 0.99628;stroke-dashoffset:0;stroke-opacity:1"
       transform="matrix(1.3333333,0,0,-1.3333333,424.31067,179.25733)" />
    <path
       id="path74"
       d="m -220.25832,8.1441 -9.88246,-47.73584"
       style="fill:none;stroke:#000000;stroke-width:0.79701;stroke-linecap:butt;stroke-linejoin:miter;stroke-miterlimit:10;stroke-dasharray:0.79701, 0.99628;stroke-dashoffset:0;stroke-opacity:1"
       transform="matrix(1.3333333,0,0,-1.3333333,424.31067,179.25733)" />
    <path
       id="path75"
       d="m -240.04144,-28.53423 c 0,1.32053 -1.07048,2.39103 -2.39102,2.39103 -1.32054,0 -2.39103,-1.0705 -2.39103,-2.39103 0,-1.32054 1.07049,-2.39103 2.39103,-2.39103 1.32054,0 2.39102,1.07049 2.39102,2.39103 z"
       style="fill:#000000;fill-opacity:1;fill-rule:nonzero;stroke:#000000;stroke-width:0.3985;stroke-linecap:butt;stroke-linejoin:miter;stroke-miterlimit:10;stroke-dasharray:none;stroke-opacity:1"
       transform="matrix(1.3333333,0,0,-1.3333333,424.31067,179.25733)" />
    <path
       id="path76"
       d="M -242.43246,-28.53423 V -43.94861"
       style="fill:none;stroke:#000000;stroke-width:0.79701;stroke-linecap:butt;stroke-linejoin:miter;stroke-miterlimit:10;stroke-dasharray:0.79701, 0.99628;stroke-dashoffset:0;stroke-opacity:1"
       transform="matrix(1.3333333,0,0,-1.3333333,424.31067,179.25733)" />
    <path
       id="path77"
       d="m -10.8707,-52.50941 -231.55363,8.56175"
       style="fill:none;stroke:#000000;stroke-width:0.79701;stroke-linecap:butt;stroke-linejoin:miter;stroke-miterlimit:10;stroke-dasharray:0.79701, 0.99628;stroke-dashoffset:0;stroke-opacity:1"
       transform="matrix(1.3333333,0,0,-1.3333333,424.31067,179.25733)" />
    <path
       id="path78"
       d="m -231.5536,8.56175 -10.87073,-52.50941"
       style="fill:none;stroke:#000000;stroke-width:0.79701;stroke-linecap:butt;stroke-linejoin:miter;stroke-miterlimit:10;stroke-dasharray:0.79701, 0.99628;stroke-dashoffset:0;stroke-opacity:1"
       transform="matrix(1.3333333,0,0,-1.3333333,424.31067,179.25733)" />
    <path
       id="path79"
       d="m -220.1692,8.32231 c -0.74721,0.37359 -0.93595,1.06714 -0.93595,2.31249 0,0.52603 -0.79701,0.52603 -0.79701,0 0,-1.24535 0.80754,-2.29532 1.55475,-2.6689 0.23526,-0.11763 0.41345,0.2388 0.17821,0.35641"
       style="fill:#000000;fill-opacity:1;fill-rule:nonzero;stroke:none"
       transform="matrix(1.3333333,0,0,-1.3333333,424.31067,179.25733)" />
    <path
       id="path80"
       d="m -222.8381,54.20901 c 0.74722,-0.37358 0.93594,-1.06713 0.93594,-2.31248 0,-0.52603 0.79701,-0.52603 0.79701,0 0,1.24535 -0.80752,2.29532 -1.55475,2.66891 -0.23526,0.11762 -0.41345,-0.23881 -0.1782,-0.35643"
       style="fill:#000000;fill-opacity:1;fill-rule:nonzero;stroke:none"
       transform="matrix(1.3333333,0,0,-1.3333333,424.31067,179.25733)" />
    <path
       id="path81"
       d="M -221.50366,10.6348 V 51.89653"
       style="fill:none;stroke:#000000;stroke-width:0.79701;stroke-linecap:butt;stroke-linejoin:miter;stroke-miterlimit:10;stroke-dasharray:none;stroke-opacity:1"
       transform="matrix(1.3333333,0,0,-1.3333333,424.31067,179.25733)" />
    <path
       id="path82"
       d="m -222.6599,54.20901 c 0.74723,0.3736 1.55475,1.42356 1.55475,2.6689 0,0.52605 -0.79701,0.52605 -0.79701,0 0,-1.24534 -0.18872,-1.93888 -0.93594,-2.31247 -0.23525,-0.11761 -0.0571,-0.47404 0.1782,-0.35643"
       style="fill:#000000;fill-opacity:1;fill-rule:nonzero;stroke:none"
       transform="matrix(1.3333333,0,0,-1.3333333,424.31067,179.25733)" />
    <path
       id="path83"
       d="m -220.34741,100.80858 c -0.74721,-0.37358 -1.55475,-1.42355 -1.55475,-2.6689 0,-0.52603 0.79701,-0.52603 0.79701,0 0,1.24535 0.18874,1.93889 0.93595,2.31248 0.23524,0.11762 0.057,0.47404 -0.17821,0.35642"
       style="fill:#000000;fill-opacity:1;fill-rule:nonzero;stroke:none"
       transform="matrix(1.3333333,0,0,-1.3333333,424.31067,179.25733)" />
    <path
       id="path84"
       d="M -221.50366,56.87791 V 98.13968"
       style="fill:none;stroke:#000000;stroke-width:0.79701;stroke-linecap:butt;stroke-linejoin:miter;stroke-miterlimit:10;stroke-dasharray:none;stroke-opacity:1"
       transform="matrix(1.3333333,0,0,-1.3333333,424.31067,179.25733)" />
    <path
       id="path85"
       d="m 3.6556172,-3.1654141 v 0.3164063 c 0,2.33203124 -1.03125,2.78906249 -1.6171875,2.78906249 -0.1640625,0 -0.703125,-0.0234375 -0.9726563,-0.36328125 0.4335938,0 0.515625,-0.28125 0.515625,-0.45703125 0,-0.30468749 -0.234375,-0.45703129 -0.4570312,-0.45703129 -0.16406251,0 -0.45703126,0.09375 -0.45703126,0.48046879 0,0.66796875 0.53906246,1.078125 1.38281246,1.078125 1.2890625,0 2.4960938,-1.35937499 2.4960938,-3.50390629 0,-2.671875 -1.1367188,-3.3515625 -2.0273438,-3.3515625 -0.5507812,0 -1.03125,0.1757813 -1.4648437,0.6210938 -0.41015626,0.4570312 -0.63281251,0.8671875 -0.63281251,1.6171875 0,1.2421875 0.87890621,2.2265625 1.99218751,2.2265625 0.609375,0 1.0078125,-0.421875 1.2421875,-0.9960938 z m -1.2304688,0.7617188 c -0.1640625,0 -0.6210937,0 -0.9257812,-0.6210938 -0.1875,-0.375 -0.1875,-0.8671875 -0.1875,-1.359375 0,-0.5390625 0,-1.0078125 0.2109375,-1.3710937 0.2695312,-0.5039063 0.6445312,-0.6328125 0.9960937,-0.6328125 0.4570313,0 0.7851563,0.3398437 0.9609375,0.7851562 0.1171875,0.3164063 0.1523438,0.9492188 0.1523438,1.40625 0,0.8320313 -0.3398438,1.7929688 -1.2070313,1.7929688 z m 0,0"
       style="fill:#000000;fill-opacity:1;fill-rule:nonzero;stroke:none"
       aria-label="9"
       transform="matrix(1.3333333,0,0,1.3333333,119.036,111.02133)" />
    <path
       id="path86"
       d="m 0.18138,97.70686 c -0.3457,0.76046 -1.36513,1.60622 -2.60957,1.65219 -0.52568,0.01945 -0.55511,-0.77705 -0.02944,-0.79649 1.24446,-0.04597 1.93053,-0.26019 2.27625,-1.02064 0.10884,-0.23943 0.4716,-0.07448 0.36276,0.16494"
       style="fill:#000000;fill-opacity:1;fill-rule:nonzero;stroke:none"
       transform="matrix(1.3333333,0,0,-1.3333333,424.31067,179.25733)" />
    <path
       id="path87"
       d="m -107.39081,103.99591 c 0.34571,-0.76048 1.36513,-1.60623 2.60959,-1.65222 0.52568,-0.0194 0.55512,0.77707 0.0294,0.79649 -1.24445,0.046 -1.93053,0.26016 -2.27623,1.02063 -0.10884,0.23944 -0.47163,0.0745 -0.36278,-0.1649"
       style="fill:#000000;fill-opacity:1;fill-rule:nonzero;stroke:none"
       transform="matrix(1.3333333,0,0,-1.3333333,424.31067,179.25733)" />
    <path
       id="path88"
       d="m -2.4429,98.96082 -102.32361,3.78112"
       style="fill:none;stroke:#000000;stroke-width:0.79701;stroke-linecap:butt;stroke-linejoin:miter;stroke-miterlimit:10;stroke-dasharray:none;stroke-opacity:1"
       transform="matrix(1.3333333,0,0,-1.3333333,424.31067,179.25733)" />
    <path
       id="path89"
       d="m -107.38423,104.17398 c -0.40093,-0.73289 -1.10091,-0.89584 -2.34535,-0.84985 -0.5257,0.0194 -0.55512,-0.77706 -0.0294,-0.7965 1.24445,-0.046 2.32349,0.7222 2.72442,1.45511 0.12621,0.23075 -0.22341,0.422 -0.34963,0.19124"
       style="fill:#000000;fill-opacity:1;fill-rule:nonzero;stroke:none"
       transform="matrix(1.3333333,0,0,-1.3333333,424.31067,179.25733)" />
    <path
       id="path90"
       d="m -214.428,105.45892 c 0.40092,0.73288 1.10093,0.89585 2.34537,0.84986 0.52568,-0.0194 0.55512,0.77707 0.0294,0.79649 -1.24445,0.046 -2.32351,-0.72223 -2.72441,-1.45509 -0.12622,-0.23076 0.22339,-0.422 0.3496,-0.19126"
       style="fill:#000000;fill-opacity:1;fill-rule:nonzero;stroke:none"
       transform="matrix(1.3333333,0,0,-1.3333333,424.31067,179.25733)" />
    <path
       id="path91"
       d="m -109.74431,102.92589 -102.32361,3.78114"
       style="fill:none;stroke:#000000;stroke-width:0.79701;stroke-linecap:butt;stroke-linejoin:miter;stroke-miterlimit:10;stroke-dasharray:none;stroke-opacity:1"
       transform="matrix(1.3333333,0,0,-1.3333333,424.31067,179.25733)" />
    <path
       id="path92"
       d="m 2.9299297,-6.3751875 c 0,-0.234375 0,-0.2578125 -0.234375,-0.2578125 -0.609375,0.6328125 -1.4882813,0.6328125 -1.80468751,0.6328125 v 0.3164063 c 0.19921871,0 0.78515621,0 1.30078121,-0.2578125 v 5.15624995 c 0,0.3515625 -0.035156,0.48046875 -0.9257812,0.48046875 H 0.94946094 V -1.875e-4 C 1.3010234,-0.03534375 2.1564922,-0.03534375 2.5549297,-0.03534375 c 0.3984375,0 1.265625,0 1.6171875,0.03515625 V -0.304875 H 3.8557109 c -0.9023437,0 -0.9257812,-0.1171875 -0.9257812,-0.48046875 z M 8.6369609,-3.16425 v 0.3164063 c 0,2.3320312 -1.03125,2.78906245 -1.6171875,2.78906245 -0.1640625,0 -0.703125,-0.0234375 -0.9726562,-0.36328125 0.4335937,0 0.515625,-0.28125 0.515625,-0.45703125 0,-0.30468745 -0.234375,-0.45703125 -0.4570313,-0.45703125 -0.1640625,0 -0.4570312,0.09375 -0.4570312,0.48046875 0,0.66796875 0.5390625,1.078125 1.3828125,1.078125 1.2890625,0 2.4960937,-1.35937495 2.4960937,-3.50390625 0,-2.671875 -1.1367187,-3.3515625 -2.0273437,-3.3515625 -0.5507813,0 -1.03125,0.1757813 -1.4648438,0.6210938 -0.4101562,0.4570312 -0.6328125,0.8671875 -0.6328125,1.6171875 0,1.2421875 0.8789063,2.2265625 1.9921875,2.2265625 0.609375,0 1.0078125,-0.421875 1.2421875,-0.9960938 z m -1.2304687,0.7617188 c -0.1640625,0 -0.6210938,0 -0.9257813,-0.6210938 -0.1875,-0.375 -0.1875,-0.8671875 -0.1875,-1.359375 0,-0.5390625 0,-1.0078125 0.2109375,-1.3710937 0.2695313,-0.5039063 0.6445313,-0.6328125 0.9960938,-0.6328125 0.4570312,0 0.7851562,0.3398437 0.9609375,0.7851562 0.1171875,0.3164063 0.1523437,0.9492188 0.1523437,1.40625 0,0.8320313 -0.3398437,1.7929688 -1.2070312,1.7929688 z m 0,0"
       style="fill:#000000;fill-opacity:1;fill-rule:nonzero;stroke:none"
       aria-label="19"
       transform="matrix(1.3333333,0,0,1.3333333,274.59733,38.844)" />
    <g
       id="g92"
       aria-label="S&#10;(19.5,10,1.5)"
       transform="matrix(1.3333333,0,0,1.3333333,124.8,206.40267)">
      <path
         id="path93"
         d="m 6.4224609,-6.9260234 c 0,-0.023437 -0.011719,-0.09375 -0.1054687,-0.09375 -0.046875,0 -0.058594,0.011719 -0.1757813,0.140625 l -0.4804687,0.5742187 c -0.2578125,-0.46875 -0.7734375,-0.7148437 -1.4296875,-0.7148437 -1.265625,0 -2.4609375,1.1367187 -2.4609375,2.34375 0,0.8085937 0.5273437,1.265625 1.0429687,1.4179687 l 1.0664063,0.28125 c 0.3632812,0.082031 0.9140625,0.234375 0.9140625,1.0546875 0,0.890625 -0.8203125,1.82812501 -1.7929688,1.82812501 -0.6445312,0 -1.7460937,-0.2109375 -1.7460937,-1.45312501 0,-0.234375 0.046875,-0.4804687 0.058594,-0.5390625 0.011719,-0.035156 0.023437,-0.046875 0.023437,-0.070312 0,-0.09375 -0.070312,-0.1054687 -0.1171875,-0.1054687 -0.058594,0 -0.070312,0.011719 -0.1054687,0.035156 -0.035156,0.046875 -0.59765626,2.32031251 -0.59765626,2.34375001 0,0.0585938 0.046875,0.10546875 0.1171875,0.10546875 0.046875,0 0.0585938,-0.0117188 0.17578125,-0.15234375 L 1.3013672,-0.50414844 c 0.421875,0.5859375 1.1015625,0.7265625 1.6757812,0.7265625 1.359375,0 2.53125,-1.32421876 2.53125,-2.56640626 0,-0.6796875 -0.3398437,-1.0195312 -0.4921875,-1.1601562 -0.2226562,-0.234375 -0.375,-0.2695313 -1.265625,-0.5039063 -0.2109375,-0.058594 -0.5742187,-0.1523437 -0.65625,-0.1757812 -0.2695312,-0.09375 -0.609375,-0.375 -0.609375,-0.9023438 0,-0.8085937 0.796875,-1.6523437 1.734375,-1.6523437 0.8320313,0 1.4414063,0.421875 1.4414063,1.5351562 0,0.3164063 -0.046875,0.5039063 -0.046875,0.5625 0,0.011719 0,0.09375 0.1289062,0.09375 0.09375,0 0.1054688,-0.023437 0.140625,-0.1992187 z m 0,0"
         style="fill:#000000;fill-opacity:1;fill-rule:nonzero;stroke:none" />
      <path
         id="path94"
         d="m 3.2935547,14.346438 c 0,-0.03516 0,-0.04687 -0.1640625,-0.222657 -1.2421875,-1.253906 -1.5703125,-3.128906 -1.5703125,-4.6640622 0,-1.7226563 0.3867187,-3.4570313 1.6054687,-4.7109375 0.1289063,-0.1171875 0.1289063,-0.1289063 0.1289063,-0.1640625 0,-0.070312 -0.035156,-0.1054688 -0.09375,-0.1054688 -0.1054688,0 -0.9960938,0.6796875 -1.5820313,1.9453125 -0.515625,1.1015625 -0.63281246,2.203125 -0.63281246,3.0351563 0,0.7851562 0.11718746,1.9921872 0.65624996,3.1171872 0.5976563,1.21875 1.453125,1.875 1.5585938,1.875 0.058594,0 0.09375,-0.03516 0.09375,-0.105468 z M 6.8033203,5.5808125 c 0,-0.234375 0,-0.2578125 -0.234375,-0.2578125 -0.609375,0.6328125 -1.4882812,0.6328125 -1.8046875,0.6328125 v 0.3164063 c 0.1992188,0 0.7851563,0 1.3007813,-0.2578125 v 5.1562497 c 0,0.351563 -0.035156,0.480469 -0.9257813,0.480469 H 4.8228516 v 0.304688 c 0.3515625,-0.03516 1.2070312,-0.03516 1.6054687,-0.03516 0.3984375,0 1.265625,0 1.6171875,0.03516 V 11.651125 H 7.7291016 c -0.9023438,0 -0.9257813,-0.117187 -0.9257813,-0.480469 z M 12.513281,8.79175 v 0.3164063 c 0,2.3320317 -1.03125,2.7890627 -1.617187,2.7890627 -0.164063,0 -0.703125,-0.02344 -0.9726565,-0.363281 0.4335935,0 0.5156255,-0.28125 0.5156255,-0.457032 0,-0.304687 -0.234375,-0.457031 -0.4570317,-0.457031 -0.1640625,0 -0.4570313,0.09375 -0.4570313,0.480469 0,0.667969 0.539063,1.078125 1.382813,1.078125 1.289062,0 2.496093,-1.359375 2.496093,-3.5039065 0,-2.671875 -1.136718,-3.3515625 -2.027343,-3.3515625 -0.550782,0 -1.03125,0.1757813 -1.4648442,0.6210938 -0.4101563,0.4570312 -0.6328125,0.8671875 -0.6328125,1.6171875 0,1.2421875 0.8789067,2.2265625 1.9921877,2.2265625 0.609375,0 1.007812,-0.421875 1.242187,-0.9960938 z m -1.230468,0.7617188 c -0.164063,0 -0.621094,0 -0.925782,-0.6210938 -0.1875,-0.375 -0.1875,-0.8671875 -0.1875,-1.359375 0,-0.5390625 0,-1.0078125 0.210938,-1.3710937 C 10.65,5.698 11.025,5.5690938 11.376563,5.5690938 c 0.457031,0 0.785156,0.3398437 0.960937,0.7851562 0.117188,0.3164063 0.152344,0.9492188 0.152344,1.40625 0,0.8320313 -0.339844,1.7929688 -1.207031,1.7929688 z m 0,0"
         style="fill:#000000;fill-opacity:1;fill-rule:nonzero;stroke:none" />
      <path
         id="path95"
         d="m 15.747656,11.428469 c 0,-0.292969 -0.234375,-0.527344 -0.527343,-0.527344 -0.28125,0 -0.527344,0.234375 -0.527344,0.527344 0,0.292969 0.246094,0.527344 0.527344,0.527344 0.292968,0 0.527343,-0.234375 0.527343,-0.527344 z m 0,0"
         style="fill:#000000;fill-opacity:1;fill-rule:nonzero;stroke:none" />
      <path
         id="path96"
         d="m 21.079688,9.9519063 c 0,-1.1835938 -0.820313,-2.1796875 -1.898438,-2.1796875 -0.480469,0 -0.902344,0.1640625 -1.265625,0.5039062 V 6.3425313 c 0.199219,0.058594 0.527344,0.1289062 0.84375,0.1289062 1.230469,0 1.933594,-0.9140625 1.933594,-1.0429687 0,-0.058594 -0.03516,-0.1054688 -0.105469,-0.1054688 -0.01172,0 -0.03516,0 -0.08203,0.023437 -0.199219,0.09375 -0.679688,0.2929688 -1.347656,0.2929688 -0.398438,0 -0.855469,-0.070312 -1.324219,-0.28125 -0.08203,-0.023437 -0.105469,-0.023437 -0.128906,-0.023437 -0.09375,0 -0.09375,0.082031 -0.09375,0.234375 v 2.953125 c 0,0.1757812 0,0.2578125 0.140625,0.2578125 0.07031,0 0.08203,-0.035156 0.128906,-0.09375 0.105469,-0.1523438 0.480469,-0.6914063 1.277344,-0.6914063 0.527343,0 0.773437,0.4570313 0.855468,0.6328125 0.152344,0.375 0.175782,0.7617188 0.175782,1.2539063 0,0.3515622 0,0.9492192 -0.234375,1.3710942 -0.246094,0.386718 -0.609375,0.644531 -1.066407,0.644531 -0.726562,0 -1.300781,-0.527344 -1.464843,-1.113281 0.02344,0.01172 0.05859,0.01172 0.164062,0.01172 0.328125,0 0.503906,-0.246093 0.503906,-0.480468 0,-0.246094 -0.175781,-0.492188 -0.503906,-0.492188 -0.140625,0 -0.480469,0.070312 -0.480469,0.527344 0,0.855469 0.679688,1.828125 1.792969,1.828125 1.160156,0 2.179688,-0.960938 2.179688,-2.2265627 z m 0,0"
         style="fill:#000000;fill-opacity:1;fill-rule:nonzero;stroke:none" />
      <path
         id="path97"
         d="m 23.613867,11.944094 c 0,-0.65625 -0.257812,-1.042969 -0.644531,-1.042969 -0.328125,0 -0.527344,0.246094 -0.527344,0.527344 0,0.269531 0.199219,0.527344 0.527344,0.527344 0.117187,0 0.246094,-0.03516 0.351562,-0.128907 0.02344,-0.02344 0.03516,-0.03516 0.04687,-0.03516 0.01172,0 0.02344,0.01172 0.02344,0.152344 0,0.738281 -0.351563,1.335937 -0.679688,1.664062 -0.105468,0.105469 -0.105468,0.128907 -0.105468,0.164063 0,0.07031 0.04687,0.105469 0.09375,0.105469 0.117187,0 0.914062,-0.761719 0.914062,-1.933594 z m 0,0"
         style="fill:#000000;fill-opacity:1;fill-rule:nonzero;stroke:none" />
      <path
         id="path98"
         d="m 28.942969,5.5808125 c 0,-0.234375 0,-0.2578125 -0.234375,-0.2578125 -0.609375,0.6328125 -1.488281,0.6328125 -1.804688,0.6328125 v 0.3164063 c 0.199219,0 0.785157,0 1.300782,-0.2578125 v 5.1562497 c 0,0.351563 -0.03516,0.480469 -0.925782,0.480469 H 26.9625 v 0.304688 c 0.351563,-0.03516 1.207031,-0.03516 1.605469,-0.03516 0.398437,0 1.265625,0 1.617187,0.03516 V 11.651125 H 29.86875 c -0.902344,0 -0.925781,-0.117187 -0.925781,-0.480469 z m 6.635742,3.1875 c 0,-0.796875 -0.04687,-1.59375 -0.398438,-2.3320312 C 34.723242,5.4753438 33.90293,5.323 33.492773,5.323 c -0.597656,0 -1.335937,0.2578125 -1.734375,1.1835938 -0.328125,0.6914062 -0.375,1.4648437 -0.375,2.2617187 0,0.75 0.04687,1.6406255 0.445313,2.4023435 0.433594,0.808594 1.160156,1.007813 1.652344,1.007813 0.539062,0 1.289062,-0.210938 1.734375,-1.160156 0.316406,-0.691407 0.363281,-1.4648442 0.363281,-2.2500005 z m -2.097656,3.1875005 c -0.386719,0 -0.984375,-0.246094 -1.160157,-1.207032 C 32.21543,10.151125 32.21543,9.2370625 32.21543,8.651125 c 0,-0.6445312 0,-1.3007812 0.08203,-1.8398437 0.1875,-1.1835938 0.925781,-1.265625 1.183594,-1.265625 0.328125,0 0.984375,0.1757812 1.171875,1.1601562 0.09375,0.5625 0.09375,1.3125 0.09375,1.9453125 0,0.75 0,1.417969 -0.105469,2.0625 -0.152344,0.9375 -0.714844,1.242188 -1.160155,1.242188 z m 0,0"
         style="fill:#000000;fill-opacity:1;fill-rule:nonzero;stroke:none" />
      <path
         id="path99"
         d="m 38.004492,11.944094 c 0,-0.65625 -0.257812,-1.042969 -0.644531,-1.042969 -0.328125,0 -0.527344,0.246094 -0.527344,0.527344 0,0.269531 0.199219,0.527344 0.527344,0.527344 0.117187,0 0.246094,-0.03516 0.351562,-0.128907 0.02344,-0.02344 0.03516,-0.03516 0.04687,-0.03516 0.01172,0 0.02344,0.01172 0.02344,0.152344 0,0.738281 -0.351563,1.335937 -0.679688,1.664062 -0.105468,0.105469 -0.105468,0.128907 -0.105468,0.164063 0,0.07031 0.04687,0.105469 0.09375,0.105469 0.117187,0 0.914062,-0.761719 0.914062,-1.933594 z m 0,0"
         style="fill:#000000;fill-opacity:1;fill-rule:nonzero;stroke:none" />
      <path
         id="path100"
         d="m 43.333594,5.5808125 c 0,-0.234375 0,-0.2578125 -0.234375,-0.2578125 -0.609375,0.6328125 -1.488281,0.6328125 -1.804688,0.6328125 v 0.3164063 c 0.199219,0 0.785157,0 1.300782,-0.2578125 v 5.1562497 c 0,0.351563 -0.03516,0.480469 -0.925782,0.480469 h -0.316406 v 0.304688 c 0.351563,-0.03516 1.207031,-0.03516 1.605469,-0.03516 0.398437,0 1.265625,0 1.617187,0.03516 v -0.304688 h -0.316406 c -0.902344,0 -0.925781,-0.117187 -0.925781,-0.480469 z m 0,0"
         style="fill:#000000;fill-opacity:1;fill-rule:nonzero;stroke:none" />
      <path
         id="path101"
         d="m 47.294531,11.428469 c 0,-0.292969 -0.234375,-0.527344 -0.527343,-0.527344 -0.28125,0 -0.527344,0.234375 -0.527344,0.527344 0,0.292969 0.246094,0.527344 0.527344,0.527344 0.292968,0 0.527343,-0.234375 0.527343,-0.527344 z m 0,0"
         style="fill:#000000;fill-opacity:1;fill-rule:nonzero;stroke:none" />
      <path
         id="path102"
         d="m 52.629492,9.9519063 c 0,-1.1835938 -0.820312,-2.1796875 -1.898437,-2.1796875 -0.480469,0 -0.902344,0.1640625 -1.265625,0.5039062 V 6.3425313 c 0.199218,0.058594 0.527343,0.1289062 0.84375,0.1289062 1.230468,0 1.933593,-0.9140625 1.933593,-1.0429687 0,-0.058594 -0.03516,-0.1054688 -0.105468,-0.1054688 -0.01172,0 -0.03516,0 -0.08203,0.023437 -0.199218,0.09375 -0.679687,0.2929688 -1.347656,0.2929688 -0.398437,0 -0.855469,-0.070312 -1.324219,-0.28125 -0.08203,-0.023437 -0.105468,-0.023437 -0.128906,-0.023437 -0.09375,0 -0.09375,0.082031 -0.09375,0.234375 v 2.953125 c 0,0.1757812 0,0.2578125 0.140625,0.2578125 0.07031,0 0.08203,-0.035156 0.128906,-0.09375 0.105469,-0.1523438 0.480469,-0.6914063 1.277344,-0.6914063 0.527344,0 0.773438,0.4570313 0.855469,0.6328125 0.152344,0.375 0.175781,0.7617188 0.175781,1.2539063 0,0.3515622 0,0.9492192 -0.234375,1.3710942 -0.246094,0.386718 -0.609375,0.644531 -1.066406,0.644531 -0.726563,0 -1.300781,-0.527344 -1.464844,-1.113281 0.02344,0.01172 0.05859,0.01172 0.164063,0.01172 0.328125,0 0.503906,-0.246093 0.503906,-0.480468 0,-0.246094 -0.175781,-0.492188 -0.503906,-0.492188 -0.140625,0 -0.480469,0.070312 -0.480469,0.527344 0,0.855469 0.679687,1.828125 1.792969,1.828125 1.160156,0 2.179687,-0.960938 2.179687,-2.2265627 z m 3.386719,-0.4921875 c 0,-0.7734375 -0.117188,-1.9804688 -0.65625,-3.1054688 -0.597656,-1.21875 -1.464844,-1.875 -1.558594,-1.875 -0.05859,0 -0.105469,0.046875 -0.105469,0.1054688 0,0.035156 0,0.046875 0.199219,0.234375 0.972656,0.984375 1.535156,2.5664062 1.535156,4.640625 0,1.7109372 -0.363281,3.4570312 -1.59375,4.7226562 -0.140625,0.117188 -0.140625,0.128906 -0.140625,0.164063 0,0.05859 0.04687,0.105468 0.105469,0.105468 0.09375,0 0.996094,-0.679687 1.582031,-1.945312 0.503907,-1.101563 0.632813,-2.203125 0.632813,-3.0468752 z m 0,0"
         style="fill:#000000;fill-opacity:1;fill-rule:nonzero;stroke:none" />
    </g>
    <g
       id="g102"
       aria-label="R&#10;(20.5,11,1.5)"
       transform="matrix(1.3333333,0,0,1.3333333,83.533333,212.21067)">
      <path
         id="path103"
         d="m 3.7396484,-6.1169844 c 0.058594,-0.234375 0.082031,-0.3398437 0.28125,-0.3632812 0.082031,-0.011719 0.3984375,-0.011719 0.5976563,-0.011719 0.7148437,0 1.8164062,0 1.8164062,0.984375 0,0.3398438 -0.1523437,1.0195313 -0.5507812,1.4179688 -0.2578125,0.2578125 -0.7851563,0.5742187 -1.6757813,0.5742187 H 3.0951172 Z m 1.4296875,2.7304688 c 1.0078125,-0.2226563 2.1914063,-0.9140625 2.1914063,-1.921875 0,-0.8554688 -0.890625,-1.5 -2.203125,-1.5 H 2.3216797 c -0.1992188,0 -0.2929688,0 -0.2929688,0.1992187 0,0.1171875 0.09375,0.1171875 0.28125,0.1171875 0.023437,0 0.2109375,0 0.3867188,0.011719 0.1757812,0.023437 0.2578125,0.035156 0.2578125,0.1640625 0,0.035156 0,0.070312 -0.035156,0.1875 l -1.3359375,5.35546872 c -0.09375,0.38671875 -0.1171875,0.46875 -0.90234371,0.46875 -0.17578125,0 -0.26953125,0 -0.26953125,0.19921875 0,0.105468755 0.1171875,0.105468755 0.140625,0.105468755 0.28125,0 0.97265626,-0.035156255 1.25390626,-0.035156255 0.28125,0 0.984375,0.035156255 1.265625,0.035156255 0.082031,0 0.1992187,0 0.1992187,-0.199218755 0,-0.10546875 -0.09375,-0.10546875 -0.28125,-0.10546875 -0.3632812,0 -0.6445312,0 -0.6445312,-0.1875 0,-0.0585938 0.011719,-0.10546875 0.023437,-0.1640625 l 0.65625,-2.63671872 H 4.220117 c 0.9023437,0 1.078125,0.5507812 1.078125,0.9023437 0,0.1523438 -0.082031,0.4570313 -0.140625,0.6914063 -0.070312,0.2695312 -0.1523438,0.6445312 -0.1523438,0.84374997 0,1.078125 1.1953125,1.078125 1.3242188,1.078125 0.84375,0 1.1953125,-1.0078125 1.1953125,-1.1484375 0,-0.11718747 -0.1171875,-0.11718747 -0.1171875,-0.11718747 -0.09375,0 -0.1171875,0.0703125 -0.1289063,0.14062497 -0.2578125,0.73828125 -0.6796875,0.902343755 -0.9140625,0.902343755 -0.328125,0 -0.3984375,-0.222656255 -0.3984375,-0.609375005 0,-0.3046875 0.058594,-0.82031252 0.1054688,-1.13671872 0.011719,-0.140625 0.035156,-0.328125 0.035156,-0.46875 0,-0.7617188 -0.6679687,-1.078125 -0.9374996,-1.1718752 z m 0,0"
         style="fill:#000000;fill-opacity:1;fill-rule:nonzero;stroke:none" />
      <path
         id="path104"
         d="m -46.073828,14.346883 c 0,-0.03516 0,-0.04687 -0.164063,-0.222656 -1.242187,-1.253907 -1.570312,-3.128907 -1.570312,-4.6640629 0,-1.7226563 0.386719,-3.4570313 1.605469,-4.7109375 0.128906,-0.1171875 0.128906,-0.1289063 0.128906,-0.1640625 0,-0.070312 -0.03516,-0.1054688 -0.09375,-0.1054688 -0.105469,0 -0.996094,0.6796875 -1.582031,1.9453125 -0.515625,1.1015625 -0.632813,2.203125 -0.632813,3.0351563 0,0.7851559 0.117188,1.9921879 0.65625,3.1171879 0.597656,1.21875 1.453125,1.875 1.558594,1.875 0.05859,0 0.09375,-0.03516 0.09375,-0.105469 z m 1.845703,-3.152344 1.054688,-1.03125 c 1.558593,-1.3710937 2.15625,-1.9101562 2.15625,-2.9062499 0,-1.1367188 -0.902344,-1.9335938 -2.121094,-1.9335938 -1.125,0 -1.851563,0.9140625 -1.851563,1.8046875 0,0.5507813 0.492188,0.5507813 0.527344,0.5507813 0.164063,0 0.515625,-0.1171875 0.515625,-0.5273438 0,-0.2578125 -0.1875,-0.515625 -0.527344,-0.515625 -0.08203,0 -0.105468,0 -0.128906,0.011719 0.222656,-0.6445313 0.761719,-1.0195313 1.335938,-1.0195313 0.914062,0 1.335937,0.8085938 1.335937,1.6289063 0,0.796875 -0.492187,1.5820312 -1.042969,2.203125 l -1.910156,2.1328127 c -0.105469,0.105468 -0.105469,0.128906 -0.105469,0.363281 h 3.691407 l 0.28125,-1.734375 H -41.275 c -0.04687,0.304687 -0.117187,0.738281 -0.210937,0.890625 -0.07031,0.08203 -0.726563,0.08203 -0.949219,0.08203 z m 8.299805,-2.4257812 c 0,-0.796875 -0.04687,-1.59375 -0.398438,-2.3320312 -0.457031,-0.9609375 -1.277344,-1.1132813 -1.6875,-1.1132813 -0.597656,0 -1.335937,0.2578125 -1.734375,1.1835938 -0.328125,0.6914062 -0.375,1.4648437 -0.375,2.2617187 0,0.75 0.04687,1.6406252 0.445313,2.4023442 0.433593,0.808593 1.160156,1.007812 1.652343,1.007812 0.539063,0 1.289063,-0.210937 1.734375,-1.160156 0.316407,-0.691406 0.363282,-1.4648439 0.363282,-2.2500002 z m -2.097657,3.1875002 c -0.386718,0 -0.984375,-0.246094 -1.160156,-1.207031 -0.105469,-0.597657 -0.105469,-1.5117192 -0.105469,-2.0976567 0,-0.6445312 0,-1.3007812 0.08203,-1.8398437 0.1875,-1.1835938 0.925781,-1.265625 1.183593,-1.265625 0.328125,0 0.984375,0.1757812 1.171875,1.1601562 0.09375,0.5625 0.09375,1.3125 0.09375,1.9453125 0,0.75 0,1.4179687 -0.105468,2.0624997 -0.152344,0.9375 -0.714844,1.242188 -1.160157,1.242188 z m 0,0"
         style="fill:#000000;fill-opacity:1;fill-rule:nonzero;stroke:none" />
      <path
         id="path105"
         d="m -33.619727,11.428914 c 0,-0.292969 -0.234375,-0.527344 -0.527343,-0.527344 -0.28125,0 -0.527344,0.234375 -0.527344,0.527344 0,0.292969 0.246094,0.527344 0.527344,0.527344 0.292968,0 0.527343,-0.234375 0.527343,-0.527344 z m 0,0"
         style="fill:#000000;fill-opacity:1;fill-rule:nonzero;stroke:none" />
      <path
         id="path106"
         d="m -28.284766,9.9523516 c 0,-1.1835938 -0.820312,-2.1796875 -1.898437,-2.1796875 -0.480469,0 -0.902344,0.1640625 -1.265625,0.5039062 V 6.3429766 c 0.199219,0.058594 0.527344,0.1289062 0.84375,0.1289062 1.230469,0 1.933594,-0.9140625 1.933594,-1.0429687 0,-0.058594 -0.03516,-0.1054688 -0.105469,-0.1054688 -0.01172,0 -0.03516,0 -0.08203,0.023437 -0.199219,0.09375 -0.679688,0.2929688 -1.347657,0.2929688 -0.398437,0 -0.855468,-0.070312 -1.324218,-0.28125 -0.08203,-0.023437 -0.105469,-0.023437 -0.128907,-0.023437 -0.09375,0 -0.09375,0.082031 -0.09375,0.234375 v 2.953125 c 0,0.1757812 0,0.2578125 0.140625,0.2578125 0.07031,0 0.08203,-0.035156 0.128907,-0.09375 0.105468,-0.1523438 0.480468,-0.6914063 1.277343,-0.6914063 0.527344,0 0.773438,0.4570313 0.855469,0.6328125 0.152344,0.375 0.175781,0.7617188 0.175781,1.2539063 0,0.3515629 0,0.9492189 -0.234375,1.3710939 -0.246093,0.386719 -0.609375,0.644531 -1.066406,0.644531 -0.726562,0 -1.300781,-0.527344 -1.464844,-1.113281 0.02344,0.01172 0.05859,0.01172 0.164063,0.01172 0.328125,0 0.503906,-0.246094 0.503906,-0.480469 0,-0.246094 -0.175781,-0.4921877 -0.503906,-0.4921877 -0.140625,0 -0.480469,0.070312 -0.480469,0.5273437 0,0.855469 0.679688,1.828125 1.792969,1.828125 1.160156,0 2.179687,-0.960937 2.179687,-2.2265624 z m 0,0"
         style="fill:#000000;fill-opacity:1;fill-rule:nonzero;stroke:none" />
      <path
         id="path107"
         d="m -25.753516,11.944539 c 0,-0.65625 -0.257812,-1.042969 -0.644531,-1.042969 -0.328125,0 -0.527344,0.246094 -0.527344,0.527344 0,0.269531 0.199219,0.527344 0.527344,0.527344 0.117188,0 0.246094,-0.03516 0.351563,-0.128906 0.02344,-0.02344 0.03516,-0.03516 0.04687,-0.03516 0.01172,0 0.02344,0.01172 0.02344,0.152344 0,0.738281 -0.351562,1.335938 -0.679687,1.664063 -0.105469,0.105468 -0.105469,0.128906 -0.105469,0.164062 0,0.07031 0.04687,0.105469 0.09375,0.105469 0.117187,0 0.914062,-0.761719 0.914062,-1.933594 z m 0,0"
         style="fill:#000000;fill-opacity:1;fill-rule:nonzero;stroke:none" />
      <path
         id="path108"
         d="m -20.424414,5.5812578 c 0,-0.234375 0,-0.2578125 -0.234375,-0.2578125 -0.609375,0.6328125 -1.488281,0.6328125 -1.804688,0.6328125 v 0.3164063 c 0.199219,0 0.785157,0 1.300782,-0.2578125 v 5.1562504 c 0,0.351562 -0.03516,0.480468 -0.925782,0.480468 h -0.316406 v 0.304688 c 0.351563,-0.03516 1.207031,-0.03516 1.605469,-0.03516 0.398437,0 1.265625,0 1.617187,0.03516 V 11.65157 h -0.316406 c -0.902344,0 -0.925781,-0.117187 -0.925781,-0.480468 z m 4.983398,0 c 0,-0.234375 0,-0.2578125 -0.234375,-0.2578125 -0.609375,0.6328125 -1.488281,0.6328125 -1.804687,0.6328125 v 0.3164063 c 0.199219,0 0.785156,0 1.300781,-0.2578125 v 5.1562504 c 0,0.351562 -0.03516,0.480468 -0.925781,0.480468 h -0.316406 v 0.304688 c 0.351562,-0.03516 1.207031,-0.03516 1.605468,-0.03516 0.398438,0 1.265625,0 1.617188,0.03516 V 11.65157 h -0.316406 c -0.902344,0 -0.925782,-0.117187 -0.925782,-0.480468 z m 0,0"
         style="fill:#000000;fill-opacity:1;fill-rule:nonzero;stroke:none" />
      <path
         id="path109"
         d="m -11.362891,11.944539 c 0,-0.65625 -0.257812,-1.042969 -0.644531,-1.042969 -0.328125,0 -0.527344,0.246094 -0.527344,0.527344 0,0.269531 0.199219,0.527344 0.527344,0.527344 0.117188,0 0.246094,-0.03516 0.351563,-0.128906 0.02344,-0.02344 0.03516,-0.03516 0.04687,-0.03516 0.01172,0 0.02344,0.01172 0.02344,0.152344 0,0.738281 -0.351562,1.335938 -0.679687,1.664063 -0.105469,0.105468 -0.105469,0.128906 -0.105469,0.164062 0,0.07031 0.04687,0.105469 0.09375,0.105469 0.117187,0 0.914062,-0.761719 0.914062,-1.933594 z m 0,0"
         style="fill:#000000;fill-opacity:1;fill-rule:nonzero;stroke:none" />
      <path
         id="path110"
         d="m -6.0337891,5.5812578 c 0,-0.234375 0,-0.2578125 -0.234375,-0.2578125 -0.609375,0.6328125 -1.4882812,0.6328125 -1.8046875,0.6328125 v 0.3164063 c 0.1992188,0 0.7851563,0 1.3007813,-0.2578125 v 5.1562504 c 0,0.351562 -0.035156,0.480468 -0.9257813,0.480468 h -0.3164062 v 0.304688 c 0.3515625,-0.03516 1.2070312,-0.03516 1.6054687,-0.03516 0.3984375,0 1.265625,0 1.6171875,0.03516 V 11.65157 h -0.3164062 c -0.9023438,0 -0.9257813,-0.117187 -0.9257813,-0.480468 z m 0,0"
         style="fill:#000000;fill-opacity:1;fill-rule:nonzero;stroke:none" />
      <path
         id="path111"
         d="m -2.0699219,11.428914 c 0,-0.292969 -0.234375,-0.527344 -0.5273437,-0.527344 -0.28125,0 -0.5273438,0.234375 -0.5273438,0.527344 0,0.292969 0.2460938,0.527344 0.5273438,0.527344 0.2929687,0 0.5273437,-0.234375 0.5273437,-0.527344 z m 0,0"
         style="fill:#000000;fill-opacity:1;fill-rule:nonzero;stroke:none" />
      <path
         id="path112"
         d="m 3.2621094,9.9523516 c 0,-1.1835938 -0.8203125,-2.1796875 -1.8984375,-2.1796875 -0.48046877,0 -0.90234377,0.1640625 -1.26562502,0.5039062 V 6.3429766 c 0.19921875,0.058594 0.52734375,0.1289062 0.84375,0.1289062 1.23046872,0 1.93359372,-0.9140625 1.93359372,-1.0429687 0,-0.058594 -0.035156,-0.1054688 -0.1054687,-0.1054688 -0.011719,0 -0.035156,0 -0.082031,0.023437 -0.1992187,0.09375 -0.6796875,0.2929688 -1.3476562,0.2929688 -0.39843752,0 -0.85546877,-0.070312 -1.32421877,-0.28125 -0.08203125,-0.023437 -0.10546875,-0.023437 -0.12890625,-0.023437 -0.09375,0 -0.09375,0.082031 -0.09375,0.234375 v 2.953125 c 0,0.1757812 0,0.2578125 0.140625,0.2578125 0.0703125,0 0.08203125,-0.035156 0.12890625,-0.09375 0.10546875,-0.1523438 0.48046875,-0.6914063 1.27734377,-0.6914063 0.5273437,0 0.7734375,0.4570313 0.8554687,0.6328125 0.1523438,0.375 0.1757813,0.7617188 0.1757813,1.2539063 0,0.3515629 0,0.9492189 -0.234375,1.3710939 -0.2460938,0.386719 -0.609375,0.644531 -1.0664063,0.644531 -0.72656247,0 -1.30078122,-0.527344 -1.46484372,-1.113281 0.0234375,0.01172 0.0585938,0.01172 0.1640625,0.01172 0.328125,0 0.50390625,-0.246094 0.50390625,-0.480469 0,-0.246094 -0.17578125,-0.4921877 -0.50390625,-0.4921877 -0.140625,0 -0.48046875,0.070312 -0.48046875,0.5273437 0,0.855469 0.6796875,1.828125 1.79296877,1.828125 1.1601562,0 2.1796875,-0.960937 2.1796875,-2.2265624 z M 6.6488281,9.4601641 c 0,-0.7734375 -0.1171875,-1.9804688 -0.65625,-3.1054688 -0.5976562,-1.21875 -1.4648437,-1.875 -1.5585937,-1.875 -0.058594,0 -0.1054688,0.046875 -0.1054688,0.1054688 0,0.035156 0,0.046875 0.1992188,0.234375 0.9726562,0.984375 1.5351562,2.5664062 1.5351562,4.640625 0,1.7109379 -0.3632812,3.4570309 -1.59375,4.7226559 -0.140625,0.117188 -0.140625,0.128907 -0.140625,0.164063 0,0.05859 0.046875,0.105469 0.1054688,0.105469 0.09375,0 0.9960937,-0.679688 1.5820312,-1.945313 0.5039063,-1.101562 0.6328125,-2.203125 0.6328125,-3.0468749 z m 0,0"
         style="fill:#000000;fill-opacity:1;fill-rule:nonzero;stroke:none" />
    </g>
  </g>
</svg>
