<?xml version="1.0" encoding="UTF-8" standalone="no"?>
<!-- Created with Inkscape (http://www.inkscape.org/) -->

<svg
   width="100mm"
   height="120mm"
   viewBox="0 0 100 120"
   version="1.1"
   id="svg1"
   xml:space="preserve"
   xmlns:xlink="http://www.w3.org/1999/xlink"
   xmlns="http://www.w3.org/2000/svg"
   xmlns:svg="http://www.w3.org/2000/svg"><defs
     id="defs1"><linearGradient
       id="linearGradient33"><stop
         style="stop-color:#126cb0;stop-opacity:1;"
         offset="0"
         id="stop33" /><stop
         style="stop-color:#7c8080;stop-opacity:0.29803923;"
         offset="1"
         id="stop34" /></linearGradient><linearGradient
       id="swatch155"><stop
         style="stop-color:#000000;stop-opacity:1;"
         offset="0"
         id="stop155" /></linearGradient><clipPath
       clipPathUnits="userSpaceOnUse"
       id="clipPath31-4"><path
         id="path31-4"
         style="display:inline;fill:none;stroke-width:0;stroke-linecap:round;stroke-linejoin:round"
         d="M 11.17196,0 H 88.828041 C 95.017307,0 100,4.9826942 100,11.17196 V 88.828041 C 100,95.017307 88.828041,100 88.828041,100 H 0 V 11.17196 C 0,4.9826942 4.9826942,0 11.17196,0 Z" /></clipPath><clipPath
       clipPathUnits="userSpaceOnUse"
       id="clipPath30-2"><path
         id="path30-8"
         style="display:inline;fill:none;stroke-width:0;stroke-linecap:round;stroke-linejoin:round"
         d="M 11.17196,0 H 88.828041 C 95.017307,0 100,4.9826942 100,11.17196 V 88.828041 C 100,95.017307 88.828041,100 88.828041,100 H 0 V 11.17196 C 0,4.9826942 4.9826942,0 11.17196,0 Z" /></clipPath><clipPath
       clipPathUnits="userSpaceOnUse"
       id="clipPath29-5"><path
         id="path29-8"
         style="display:inline;fill:none;stroke-width:0;stroke-linecap:round;stroke-linejoin:round"
         d="M 11.17196,0 H 88.828041 C 95.017307,0 100,4.9826942 100,11.17196 V 88.828041 C 100,95.017307 88.828041,100 88.828041,100 H 0 V 11.17196 C 0,4.9826942 4.9826942,0 11.17196,0 Z" /></clipPath><clipPath
       clipPathUnits="userSpaceOnUse"
       id="clipPath28-7"><path
         id="path28-3"
         style="display:inline;fill:none;stroke-width:0;stroke-linecap:round;stroke-linejoin:round"
         d="M 11.17196,0 H 88.828041 C 95.017307,0 100,4.9826942 100,11.17196 V 88.828041 C 100,95.017307 88.828041,100 88.828041,100 H 0 V 11.17196 C 0,4.9826942 4.9826942,0 11.17196,0 Z" /></clipPath><clipPath
       clipPathUnits="userSpaceOnUse"
       id="clipPath26-2"><path
         id="path26-5"
         style="display:inline;fill:none;stroke-width:0;stroke-linecap:round;stroke-linejoin:round"
         d="M 11.17196,0 H 88.828041 C 95.017307,0 100,4.9826942 100,11.17196 V 88.828041 C 100,95.017307 88.828041,100 88.828041,100 H 0 V 11.17196 C 0,4.9826942 4.9826942,0 11.17196,0 Z" /></clipPath><clipPath
       clipPathUnits="userSpaceOnUse"
       id="clipPath23-2"><path
         id="path23-9"
         style="display:inline;fill:none;stroke-width:0;stroke-linecap:round;stroke-linejoin:round"
         d="M 11.17196,0 H 88.828041 C 95.017307,0 100,4.9826942 100,11.17196 V 88.828041 C 100,95.017307 88.828041,100 88.828041,100 H 0 V 11.17196 C 0,4.9826942 4.9826942,0 11.17196,0 Z" /></clipPath><clipPath
       clipPathUnits="userSpaceOnUse"
       id="clipPath22-4"><path
         id="path22-7"
         style="display:inline;fill:none;stroke-width:0;stroke-linecap:round;stroke-linejoin:round"
         d="M 11.17196,0 H 88.828041 C 95.017307,0 100,4.9826942 100,11.17196 V 88.828041 C 100,95.017307 88.828041,100 88.828041,100 H 0 V 11.17196 C 0,4.9826942 4.9826942,0 11.17196,0 Z" /></clipPath><clipPath
       clipPathUnits="userSpaceOnUse"
       id="clipPath21-4"><path
         id="path21-8"
         style="display:inline;fill:none;stroke-width:0;stroke-linecap:round;stroke-linejoin:round"
         d="M 11.17196,0 H 88.828041 C 95.017307,0 100,4.9826942 100,11.17196 V 88.828041 C 100,95.017307 88.828041,100 88.828041,100 H 0 V 11.17196 C 0,4.9826942 4.9826942,0 11.17196,0 Z" /></clipPath><clipPath
       clipPathUnits="userSpaceOnUse"
       id="clipPath20-2"><path
         id="path20-7"
         style="display:inline;fill:none;stroke-width:0;stroke-linecap:round;stroke-linejoin:round"
         d="M 11.17196,0 H 88.828041 C 95.017307,0 100,4.9826942 100,11.17196 V 88.828041 C 100,95.017307 88.828041,100 88.828041,100 H 0 V 11.17196 C 0,4.9826942 4.9826942,0 11.17196,0 Z" /></clipPath><clipPath
       clipPathUnits="userSpaceOnUse"
       id="clipPath19-7"><path
         id="path19-0"
         style="display:inline;fill:none;stroke-width:0;stroke-linecap:round;stroke-linejoin:round"
         d="M 11.17196,0 H 88.828041 C 95.017307,0 100,4.9826942 100,11.17196 V 88.828041 C 100,95.017307 88.828041,100 88.828041,100 H 0 V 11.17196 C 0,4.9826942 4.9826942,0 11.17196,0 Z" /></clipPath><clipPath
       clipPathUnits="userSpaceOnUse"
       id="clipPath18-7"><path
         id="path18-8"
         style="display:inline;fill:none;stroke-width:0;stroke-linecap:round;stroke-linejoin:round"
         d="M 11.17196,0 H 88.828041 C 95.017307,0 100,4.9826942 100,11.17196 V 88.828041 C 100,95.017307 88.828041,100 88.828041,100 H 0 V 11.17196 C 0,4.9826942 4.9826942,0 11.17196,0 Z" /></clipPath><clipPath
       clipPathUnits="userSpaceOnUse"
       id="clipPath17-2"><path
         id="path17-7"
         style="display:inline;fill:none;stroke-width:0;stroke-linecap:round;stroke-linejoin:round"
         d="M 11.17196,0 H 88.828041 C 95.017307,0 100,4.9826942 100,11.17196 V 88.828041 C 100,95.017307 88.828041,100 88.828041,100 H 0 V 11.17196 C 0,4.9826942 4.9826942,0 11.17196,0 Z" /></clipPath><clipPath
       clipPathUnits="userSpaceOnUse"
       id="clipPath16-0"><path
         id="path16-6"
         style="display:inline;fill:none;stroke-width:0;stroke-linecap:round;stroke-linejoin:round"
         d="M 11.17196,0 H 88.828041 C 95.017307,0 100,4.9826942 100,11.17196 V 88.828041 C 100,95.017307 88.828041,100 88.828041,100 H 0 V 11.17196 C 0,4.9826942 4.9826942,0 11.17196,0 Z" /></clipPath><clipPath
       clipPathUnits="userSpaceOnUse"
       id="clipPath15-2"><path
         id="path15-8"
         style="display:inline;fill:none;stroke-width:0;stroke-linecap:round;stroke-linejoin:round"
         d="M 11.17196,0 H 88.828041 C 95.017307,0 100,4.9826942 100,11.17196 V 88.828041 C 100,95.017307 88.828041,100 88.828041,100 H 0 V 11.17196 C 0,4.9826942 4.9826942,0 11.17196,0 Z" /></clipPath><clipPath
       clipPathUnits="userSpaceOnUse"
       id="clipPath14-0"><path
         id="path14-2"
         style="display:inline;fill:none;stroke-width:0;stroke-linecap:round;stroke-linejoin:round"
         d="M 11.17196,0 H 88.828041 C 95.017307,0 100,4.9826942 100,11.17196 V 88.828041 C 100,95.017307 88.828041,100 88.828041,100 H 0 V 11.17196 C 0,4.9826942 4.9826942,0 11.17196,0 Z" /></clipPath><clipPath
       clipPathUnits="userSpaceOnUse"
       id="clipPath13-7"><path
         id="path13-2"
         style="display:inline;fill:none;stroke-width:0;stroke-linecap:round;stroke-linejoin:round"
         d="M 11.17196,0 H 88.828041 C 95.017307,0 100,4.9826942 100,11.17196 V 88.828041 C 100,95.017307 88.828041,100 88.828041,100 H 0 V 11.17196 C 0,4.9826942 4.9826942,0 11.17196,0 Z" /></clipPath><clipPath
       clipPathUnits="userSpaceOnUse"
       id="clipPath12-2"><path
         id="path12-8"
         style="display:inline;fill:none;stroke-width:0;stroke-linecap:round;stroke-linejoin:round"
         d="M 11.17196,0 H 88.828041 C 95.017307,0 100,4.9826942 100,11.17196 V 88.828041 C 100,95.017307 88.828041,100 88.828041,100 H 0 V 11.17196 C 0,4.9826942 4.9826942,0 11.17196,0 Z" /></clipPath><clipPath
       clipPathUnits="userSpaceOnUse"
       id="clipPath11-0"><path
         id="path11-3"
         style="display:inline;fill:none;stroke-width:0;stroke-linecap:round;stroke-linejoin:round"
         d="M 11.17196,0 H 88.828041 C 95.017307,0 100,4.9826942 100,11.17196 V 88.828041 C 100,95.017307 88.828041,100 88.828041,100 H 0 V 11.17196 C 0,4.9826942 4.9826942,0 11.17196,0 Z" /></clipPath><clipPath
       clipPathUnits="userSpaceOnUse"
       id="clipPath10-1"><path
         id="path10-3"
         style="display:inline;fill:none;stroke-width:0;stroke-linecap:round;stroke-linejoin:round"
         d="M 11.17196,0 H 88.828041 C 95.017307,0 100,4.9826942 100,11.17196 V 88.828041 C 100,95.017307 88.828041,100 88.828041,100 H 0 V 11.17196 C 0,4.9826942 4.9826942,0 11.17196,0 Z" /></clipPath><clipPath
       clipPathUnits="userSpaceOnUse"
       id="clipPath9-6"><path
         id="path9-8"
         style="display:inline;fill:none;stroke-width:0;stroke-linecap:round;stroke-linejoin:round"
         d="M 11.17196,0 H 88.828041 C 95.017307,0 100,4.9826942 100,11.17196 V 88.828041 C 100,95.017307 88.828041,100 88.828041,100 H 0 V 11.17196 C 0,4.9826942 4.9826942,0 11.17196,0 Z" /></clipPath><clipPath
       clipPathUnits="userSpaceOnUse"
       id="clipPath8-7"><path
         id="path8-5"
         style="display:inline;fill:none;stroke-width:0;stroke-linecap:round;stroke-linejoin:round"
         d="M 11.17196,0 H 88.828041 C 95.017307,0 100,4.9826942 100,11.17196 V 88.828041 C 100,95.017307 88.828041,100 88.828041,100 H 0 V 11.17196 C 0,4.9826942 4.9826942,0 11.17196,0 Z" /></clipPath><clipPath
       clipPathUnits="userSpaceOnUse"
       id="clipPath7-1"><path
         id="path7-6"
         style="display:inline;fill:none;stroke-width:0;stroke-linecap:round;stroke-linejoin:round"
         d="M 11.17196,0 H 88.828041 C 95.017307,0 100,4.9826942 100,11.17196 V 88.828041 C 100,95.017307 88.828041,100 88.828041,100 H 0 V 11.17196 C 0,4.9826942 4.9826942,0 11.17196,0 Z" /></clipPath><clipPath
       clipPathUnits="userSpaceOnUse"
       id="clipPath6-0"><path
         id="path6-0"
         style="display:inline;fill:none;stroke-width:0;stroke-linecap:round;stroke-linejoin:round"
         d="M 11.17196,0 H 88.828041 C 95.017307,0 100,4.9826942 100,11.17196 V 88.828041 C 100,95.017307 88.828041,100 88.828041,100 H 0 V 11.17196 C 0,4.9826942 4.9826942,0 11.17196,0 Z" /></clipPath><clipPath
       clipPathUnits="userSpaceOnUse"
       id="clipPath5-1"><path
         id="path5-6"
         style="display:inline;fill:none;stroke-width:0;stroke-linecap:round;stroke-linejoin:round"
         d="M 11.17196,0 H 88.828041 C 95.017307,0 100,4.9826942 100,11.17196 V 88.828041 C 100,95.017307 88.828041,100 88.828041,100 H 0 V 11.17196 C 0,4.9826942 4.9826942,0 11.17196,0 Z" /></clipPath><clipPath
       clipPathUnits="userSpaceOnUse"
       id="clipPath4-6"><path
         id="path4-1"
         style="display:inline;fill:none;stroke-width:0;stroke-linecap:round;stroke-linejoin:round"
         d="M 11.17196,0 H 88.828041 C 95.017307,0 100,4.9826942 100,11.17196 V 88.828041 C 100,95.017307 88.828041,100 88.828041,100 H 0 V 11.17196 C 0,4.9826942 4.9826942,0 11.17196,0 Z" /></clipPath><clipPath
       clipPathUnits="userSpaceOnUse"
       id="clipPath3-4"><path
         id="path3-9"
         style="display:inline;fill:none;stroke-width:0;stroke-linecap:round;stroke-linejoin:round"
         d="M 11.17196,0 H 88.828041 C 95.017307,0 100,4.9826942 100,11.17196 V 88.828041 C 100,95.017307 88.828041,100 88.828041,100 H 0 V 11.17196 C 0,4.9826942 4.9826942,0 11.17196,0 Z" /></clipPath><clipPath
       clipPathUnits="userSpaceOnUse"
       id="clipPath2-7"><path
         id="path2-4"
         style="display:inline;fill:none;stroke-width:0;stroke-linecap:round;stroke-linejoin:round"
         d="M 11.17196,0 H 88.828041 C 95.017307,0 100,4.9826942 100,11.17196 V 88.828041 C 100,95.017307 88.828041,100 88.828041,100 H 0 V 11.17196 C 0,4.9826942 4.9826942,0 11.17196,0 Z" /></clipPath><clipPath
       clipPathUnits="userSpaceOnUse"
       id="clipPath1-4"><path
         id="path1-7"
         style="display:inline;fill:none;stroke-width:0;stroke-linecap:round;stroke-linejoin:round"
         d="M 11.17196,0 H 88.828041 C 95.017307,0 100,4.9826942 100,11.17196 V 88.828041 C 100,95.017307 88.828041,100 88.828041,100 H 0 V 11.17196 C 0,4.9826942 4.9826942,0 11.17196,0 Z" /></clipPath><linearGradient
       xlink:href="#linearGradient33"
       id="linearGradient34"
       x1="0"
       y1="105"
       x2="100"
       y2="105"
       gradientUnits="userSpaceOnUse"
       gradientTransform="matrix(1,0,0,0.875,0,10.625)" /></defs><g
     id="layer1"><path
       d="m 98.499414,84.99998 v 2.662886 c 0,6.003567 -4.832981,10.836548 -10.836548,10.836548 H 12.336198 c -6.0035669,0 -10.8365479,-4.832981 -10.8365479,-10.836548 V 84.99998 H 0.37258708 C 0.16631074,84.99998 0,85.16629 0,85.372567 V 119.99991 H 0.37258708 90.0001 a 10,10 135 0 0 10,-10 V 85.372567 c 0,-0.206277 -0.166313,-0.372587 -0.372589,-0.372587 z"
       style="fill:url(#linearGradient34);stroke-width:2.24011;stroke-linecap:round;stroke-linejoin:round"
       id="path35" /><text
       xml:space="preserve"
       id="text1"
       style="font-style:normal;font-variant:normal;font-weight:bold;font-stretch:normal;font-size:20px;line-height:1;font-family:Consolas;-inkscape-font-specification:'Consolas Bold';text-align:center;direction:ltr;white-space:pre;shape-inside:url(#rect1);display:inline;mix-blend-mode:normal;fill:#ffffff;fill-opacity:1;stroke:none;stroke-width:1.13386;stroke-linecap:round;stroke-linejoin:round"
       text_anchor="right"
       transform="matrix(0.99999704,0,0,1,5.0214932,116.23828)"
       x="0"
       y="0"><tspan
         x="0"
         y="0"
         id="tspan2">0.1.1</tspan></text><path
       d="m 12.336198,1.4996501 c -6.0035549,0 -10.8365479,4.832993 -10.8365479,10.8365479 v 72.663782 2.662886 c 0,6.003555 4.832993,10.836548 10.8365479,10.836548 h 75.326668 c 6.003555,0 10.836548,-4.832993 10.836548,-10.836548 V 84.99998 12.336198 c 0,-6.0035549 -4.832993,-10.8365479 -10.836548,-10.8365479 z"
       style="display:inline;fill:none;fill-opacity:0.2;stroke-width:2.99996;stroke-linecap:round;stroke-linejoin:round"
       id="path34" /></g><g
     id="layer1-4"
     transform="translate(3.6716461e-4,3.6716461e-4)"><rect
       style="display:inline;fill:#7e8081;fill-opacity:0.3;stroke:#000000;stroke-width:2.99996;stroke-linecap:round;stroke-linejoin:round;stroke-dasharray:none;stroke-opacity:1"
       id="rect1-3"
       width="97.000046"
       height="97.000046"
       x="1.4992456"
       y="1.4992456"
       ry="10.836806"
       clip-path="none" /><path
       id="path50-9"
       style="display:inline;fill:none;stroke-width:0;stroke-linecap:round;stroke-linejoin:round"
       d="M 11.17196,0 H 88.828041 C 95.017307,0 100,4.9826942 100,11.17196 V 88.828041 C 100,95.017307 88.828041,100 88.828041,100 H 0 V 11.17196 C 0,4.9826942 4.9826942,0 11.17196,0 Z"
       clip-path="url(#clipPath31-4)" /><path
       style="fill:#bfbfbf;fill-opacity:1;fill-rule:nonzero;stroke:#000000;stroke-width:1.5;stroke-linecap:round;stroke-linejoin:round;stroke-dasharray:none;stroke-opacity:1"
       d="m 80.699171,41.476683 h 9.81699"
       id="path137-9-67-3"
       clip-path="url(#clipPath30-2)" /><path
       id="path49-1"
       style="display:inline;fill:none;stroke-width:0;stroke-linecap:round;stroke-linejoin:round"
       d="M 11.17196,0 H 88.828041 C 95.017307,0 100,4.9826942 100,11.17196 V 88.828041 C 100,95.017307 88.828041,100 88.828041,100 H 0 V 11.17196 C 0,4.9826942 4.9826942,0 11.17196,0 Z"
       clip-path="url(#clipPath29-5)" /><path
       style="fill:#bfbfbf;fill-opacity:1;fill-rule:nonzero;stroke:#000000;stroke-width:1.5;stroke-linecap:round;stroke-linejoin:round;stroke-dasharray:none;stroke-opacity:1"
       d="m 79.661985,38.519419 8.949398,-4.035043"
       id="path137-9-6-9-6"
       clip-path="url(#clipPath28-7)" /><path
       id="path48-6"
       style="display:inline;fill:none;stroke-width:0;stroke-linecap:round;stroke-linejoin:round"
       d="M 11.17196,0 H 88.828041 C 95.017307,0 100,4.9826942 100,11.17196 V 88.828041 C 100,95.017307 88.828041,100 88.828041,100 H 0 V 11.17196 C 0,4.9826942 4.9826942,0 11.17196,0 Z"
       clip-path="url(#clipPath26-2)" /><path
       style="fill:#bfbfbf;fill-opacity:1;fill-rule:nonzero;stroke:#000000;stroke-width:1.5;stroke-linecap:round;stroke-linejoin:round;stroke-dasharray:none;stroke-opacity:1"
       d="m 79.661985,44.433948 8.949398,4.035043"
       id="path138-6-8"
       clip-path="url(#clipPath23-2)" /><path
       id="path46-6"
       style="display:inline;fill:none;stroke-width:0;stroke-linecap:round;stroke-linejoin:round"
       d="M 11.17196,0 H 88.828041 C 95.017307,0 100,4.9826942 100,11.17196 V 88.828041 C 100,95.017307 88.828041,100 88.828041,100 H 0 V 11.17196 C 0,4.9826942 4.9826942,0 11.17196,0 Z"
       clip-path="url(#clipPath22-4)" /><path
       d="m 67.391235,31.235303 -14.002763,-1.641244 7.550961,7.47758 -9.796301,3.680396 -12.930994,-6.911207 -7.243486,5.416207 -0.623217,7.8481 10.477913,7.580416 -15.772681,-4.51962 -16.9544505,-2.815706 -2.1958015,3.333503 26.189099,5.581571 6.529834,2.50269 2.030367,0.778247 5.003312,7.19801 0.468189,1.49965 0.453202,1.450558 -1.596802,21.310844 -8.687841,11.943972 25.608256,3.28404 4.364074,-14.468885 -12.070581,-13.721127 3.073714,-16.83153 -0.295072,-6.268352 6.720778,-1.492932 -2.010471,-11.943974 z"
       style="display:inline;fill:#ffffff;fill-opacity:1;stroke:#000000;stroke-width:1.5;stroke-linecap:round;stroke-linejoin:round;stroke-dasharray:none"
       id="path192-4"
       clip-path="url(#clipPath21-4)" /><path
       id="path44-0"
       style="display:inline;fill:none;stroke-width:0;stroke-linecap:round;stroke-linejoin:round"
       d="M 11.17196,0 H 88.828041 C 95.017307,0 100,4.9826942 100,11.17196 V 88.828041 C 100,95.017307 88.828041,100 88.828041,100 H 0 V 11.17196 C 0,4.9826942 4.9826942,0 11.17196,0 Z"
       clip-path="url(#clipPath20-2)" /><path
       d="m -23.899833,94.65262 32.9313231,-5.726265 9.8247229,-5.328357 7.057451,-8.92762 19.739363,-7.926132 -5.003312,-7.19801 -2.030367,-0.778247 -6.529834,-2.50269 -26.189099,-5.581571 -9.8025024,10.227283 z"
       style="display:inline;fill:#126cb0;fill-opacity:1;stroke:#000000;stroke-width:1.5;stroke-linecap:round;stroke-linejoin:round;stroke-dasharray:none"
       id="path188-0"
       clip-path="url(#clipPath19-7)" /><path
       id="path43-3"
       style="display:inline;fill:none;stroke-width:0;stroke-linecap:round;stroke-linejoin:round"
       d="M 11.17196,0 H 88.828041 C 95.017307,0 100,4.9826942 100,11.17196 V 88.828041 C 100,95.017307 88.828041,100 88.828041,100 H 0 V 11.17196 C 0,4.9826942 4.9826942,0 11.17196,0 Z"
       clip-path="url(#clipPath18-7)" /><path
       d="m 36.289775,102.94927 8.687841,-11.943972 1.596802,-21.310844 v 0 L 18.729089,83.758712 18.856213,83.597998 9.0314901,88.926355 -23.899833,94.65262 -32.721,108.62128 Z"
       style="display:inline;fill:#616263;fill-opacity:1;stroke:#000000;stroke-width:1.5;stroke-linecap:round;stroke-linejoin:round;stroke-dasharray:none"
       id="path190-5"
       clip-path="url(#clipPath17-2)" /><path
       id="path42-4"
       style="display:inline;fill:none;stroke-width:0;stroke-linecap:round;stroke-linejoin:round"
       d="M 11.17196,0 H 88.828041 C 95.017307,0 100,4.9826942 100,11.17196 V 88.828041 C 100,95.017307 88.828041,100 88.828041,100 H 0 V 11.17196 C 0,4.9826942 4.9826942,0 11.17196,0 Z"
       clip-path="url(#clipPath16-0)" /><path
       d="M 67.391235,31.235303 61.680473,41.50651 80.573893,32.177364 75.150452,30.157849 Z"
       style="fill:#ffffff;stroke:#000000;stroke-width:1.5;stroke-linecap:round;stroke-linejoin:round;stroke-dasharray:none"
       id="path198-1"
       clip-path="url(#clipPath15-2)" /><path
       id="path41-7"
       style="display:inline;fill:none;stroke-width:0;stroke-linecap:round;stroke-linejoin:round"
       d="M 11.17196,0 H 88.828041 C 95.017307,0 100,4.9826942 100,11.17196 V 88.828041 C 100,95.017307 88.828041,100 88.828041,100 H 0 V 11.17196 C 0,4.9826942 4.9826942,0 11.17196,0 Z"
       clip-path="url(#clipPath14-0)" /><path
       d="m 61.680473,41.50651 4.929415,9.181352 9.291939,-0.260448 z"
       style="fill:#ffffff;stroke:#000000;stroke-width:1.5;stroke-linecap:round;stroke-linejoin:round;stroke-dasharray:none"
       id="path199-6"
       clip-path="url(#clipPath13-7)" /><path
       id="path40-8"
       style="display:inline;fill:none;stroke-width:0;stroke-linecap:round;stroke-linejoin:round"
       d="M 11.17196,0 H 88.828041 C 95.017307,0 100,4.9826942 100,11.17196 V 88.828041 C 100,95.017307 88.828041,100 88.828041,100 H 0 V 11.17196 C 0,4.9826942 4.9826942,0 11.17196,0 Z"
       clip-path="url(#clipPath12-2)" /><path
       d="m 53.388472,29.594059 -15.176334,4.246769 12.930994,6.911207 9.796301,-3.680396 z"
       style="fill:#000000;fill-opacity:1;stroke:#000000;stroke-width:1.5;stroke-linecap:round;stroke-linejoin:round;stroke-dasharray:none"
       id="path193-0"
       clip-path="url(#clipPath11-0)" /><path
       id="path39-8"
       style="display:inline;fill:none;stroke-width:0;stroke-linecap:round;stroke-linejoin:round"
       d="M 11.17196,0 H 88.828041 C 95.017307,0 100,4.9826942 100,11.17196 V 88.828041 C 100,95.017307 88.828041,100 88.828041,100 H 0 V 11.17196 C 0,4.9826942 4.9826942,0 11.17196,0 Z"
       clip-path="url(#clipPath10-1)" /><path
       d="m 42.467692,18.209224 -15.71842,4.515487 -9.552906,8.684225 12.157915,-6.035291 12.071097,-0.217041 11.963094,4.437455 14.002763,1.641244 -9.205123,-8.510592 z"
       style="fill:#126cb0;fill-opacity:1;stroke:#000000;stroke-width:1.5;stroke-linecap:round;stroke-linejoin:round;stroke-dasharray:none"
       id="path197-0"
       clip-path="url(#clipPath9-6)" /><path
       id="path38-2"
       style="display:inline;fill:none;stroke-width:0;stroke-linecap:round;stroke-linejoin:round"
       d="M 11.17196,0 H 88.828041 C 95.017307,0 100,4.9826942 100,11.17196 V 88.828041 C 100,95.017307 88.828041,100 88.828041,100 H 0 V 11.17196 C 0,4.9826942 4.9826942,0 11.17196,0 Z"
       clip-path="url(#clipPath8-7)" /><path
       d="m 61.845838,41.936458 0.182865,8.484613 -7.439787,5.183803 -2.846855,6.169133 2.614828,16.699239 L 66.262105,91.764425 66.001656,70.83547 64.438444,57.027527 66.775253,51.11781 Z"
       style="fill:#000000;fill-opacity:1;stroke:#000000;stroke-width:1.5;stroke-linecap:round;stroke-linejoin:round;stroke-dasharray:none"
       id="path191-3"
       clip-path="url(#clipPath7-1)" /><path
       id="path36-8"
       style="display:inline;fill:none;stroke-width:0;stroke-linecap:round;stroke-linejoin:round"
       d="M 11.17196,0 H 88.828041 C 95.017307,0 100,4.9826942 100,11.17196 V 88.828041 C 100,95.017307 88.828041,100 88.828041,100 H 0 V 11.17196 C 0,4.9826942 4.9826942,0 11.17196,0 Z"
       clip-path="url(#clipPath6-0)" /><path
       d="m 8.0962165,47.350225 13.8455965,4.436279 18.881535,2.899047 -10.477913,-7.580416 0.623217,-7.8481 7.243486,-5.416207 15.176334,-4.246769 -11.963094,-4.437455 -12.071097,0.217041 -12.157915,6.035291 -4.518587,5.430676 z"
       style="fill:#616263;fill-opacity:1;stroke:#000000;stroke-width:1.5;stroke-linecap:round;stroke-linejoin:round;stroke-dasharray:none"
       id="path196-0"
       clip-path="url(#clipPath5-1)" /><path
       id="path35-8"
       style="display:inline;fill:none;stroke-width:0;stroke-linecap:round;stroke-linejoin:round"
       d="M 11.17196,0 H 88.828041 C 95.017307,0 100,4.9826942 100,11.17196 V 88.828041 C 100,95.017307 88.828041,100 88.828041,100 H 0 V 11.17196 C 0,4.9826942 4.9826942,0 11.17196,0 Z"
       clip-path="url(#clipPath4-6)" /><path
       d="m 45.653027,66.744246 -19.739363,7.926132 -7.057451,8.92762 -0.127124,0.160714 27.845329,-14.064258 z"
       style="display:inline;fill:#ffffff;stroke:#000000;stroke-width:1.5;stroke-linecap:round;stroke-linejoin:round;stroke-dasharray:none"
       id="path189-6"
       clip-path="url(#clipPath3-4)" /><path
       id="path34-9"
       style="display:inline;fill:none;stroke-width:0;stroke-linecap:round;stroke-linejoin:round"
       d="M 11.17196,0 H 88.828041 C 95.017307,0 100,4.9826942 100,11.17196 V 88.828041 C 100,95.017307 88.828041,100 88.828041,100 H 0 V 11.17196 C 0,4.9826942 4.9826942,0 11.17196,0 Z"
       clip-path="url(#clipPath2-7)" /><path
       d="m 51.554993,31.25649 a 3.8892701,3.8892701 0 0 0 -3.889169,3.889168 3.8892701,3.8892701 0 0 0 3.889169,3.889169 3.8892701,3.8892701 0 0 0 3.889168,-3.889169 3.8892701,3.8892701 0 0 0 -3.889168,-3.889168 z m -1.810743,1.299146 a 0.63471806,0.63471806 0 0 1 0.634587,0.634586 0.63471806,0.63471806 0 0 1 -0.634587,0.634587 0.63471806,0.63471806 0 0 1 -0.634586,-0.634587 0.63471806,0.63471806 0 0 1 0.634586,-0.634586 z"
       style="fill:#000000;fill-opacity:1;stroke:#fbfbfb;stroke-width:1.5;stroke-linecap:round;stroke-linejoin:round;stroke-dasharray:none;stroke-opacity:1"
       id="path194-0"
       clip-path="url(#clipPath1-4)" /></g></svg>
