<?xml version="1.0" encoding="utf-8" standalone="no"?>
<!DOCTYPE svg PUBLIC "-//W3C//DTD SVG 1.1//EN"
  "http://www.w3.org/Graphics/SVG/1.1/DTD/svg11.dtd">
<svg xmlns:xlink="http://www.w3.org/1999/xlink" width="460.8pt" height="345.6pt" viewBox="0 0 460.8 345.6" xmlns="http://www.w3.org/2000/svg" version="1.1">
 <metadata>
  <rdf:RDF xmlns:dc="http://purl.org/dc/elements/1.1/" xmlns:cc="http://creativecommons.org/ns#" xmlns:rdf="http://www.w3.org/1999/02/22-rdf-syntax-ns#">
   <cc:Work>
    <dc:type rdf:resource="http://purl.org/dc/dcmitype/StillImage"/>
    <dc:date>2025-02-21T11:19:49.039176</dc:date>
    <dc:format>image/svg+xml</dc:format>
    <dc:creator>
     <cc:Agent>
      <dc:title>Matplotlib v3.10.0, https://matplotlib.org/</dc:title>
     </cc:Agent>
    </dc:creator>
   </cc:Work>
  </rdf:RDF>
 </metadata>
 <defs>
  <style type="text/css">*{stroke-linejoin: round; stroke-linecap: butt}</style>
 </defs>
 <g id="figure_1">
  <g id="patch_1">
   <path d="M 0 345.6 
L 460.8 345.6 
L 460.8 0 
L 0 0 
z
" style="fill: #ffffff"/>
  </g>
  <g id="axes_1">
   <g id="patch_2">
    <path d="M 57.6 307.584 
L 414.72 307.584 
L 414.72 41.472 
L 57.6 41.472 
z
" style="fill: #ffffff"/>
   </g>
   <g id="matplotlib.axis_1">
    <g id="xtick_1">
     <g id="line2d_1">
      <path d="M 57.6 307.584 
L 57.6 41.472 
" clip-path="url(#pd3bfaa0d9a)" style="fill: none; stroke: #000000; stroke-opacity: 0.3; stroke-width: 0.8; stroke-linecap: square"/>
     </g>
     <g id="text_1">
      <!-- 0.00 -->
      <g style="fill: #333333" transform="translate(46.467188 322.182437) scale(0.1 -0.1)">
       <defs>
        <path id="DejaVuSans-30" d="M 2034 4250 
Q 1547 4250 1301 3770 
Q 1056 3291 1056 2328 
Q 1056 1369 1301 889 
Q 1547 409 2034 409 
Q 2525 409 2770 889 
Q 3016 1369 3016 2328 
Q 3016 3291 2770 3770 
Q 2525 4250 2034 4250 
z
M 2034 4750 
Q 2819 4750 3233 4129 
Q 3647 3509 3647 2328 
Q 3647 1150 3233 529 
Q 2819 -91 2034 -91 
Q 1250 -91 836 529 
Q 422 1150 422 2328 
Q 422 3509 836 4129 
Q 1250 4750 2034 4750 
z
" transform="scale(0.015625)"/>
        <path id="DejaVuSans-2e" d="M 684 794 
L 1344 794 
L 1344 0 
L 684 0 
L 684 794 
z
" transform="scale(0.015625)"/>
       </defs>
       <use xlink:href="#DejaVuSans-30"/>
       <use xlink:href="#DejaVuSans-2e" transform="translate(63.623047 0)"/>
       <use xlink:href="#DejaVuSans-30" transform="translate(95.410156 0)"/>
       <use xlink:href="#DejaVuSans-30" transform="translate(159.033203 0)"/>
      </g>
     </g>
    </g>
    <g id="xtick_2">
     <g id="line2d_2">
      <path d="M 102.24279 307.584 
L 102.24279 41.472 
" clip-path="url(#pd3bfaa0d9a)" style="fill: none; stroke: #000000; stroke-opacity: 0.3; stroke-width: 0.8; stroke-linecap: square"/>
     </g>
     <g id="text_2">
      <!-- 0.25 -->
      <g style="fill: #333333" transform="translate(91.109978 322.182437) scale(0.1 -0.1)">
       <defs>
        <path id="DejaVuSans-32" d="M 1228 531 
L 3431 531 
L 3431 0 
L 469 0 
L 469 531 
Q 828 903 1448 1529 
Q 2069 2156 2228 2338 
Q 2531 2678 2651 2914 
Q 2772 3150 2772 3378 
Q 2772 3750 2511 3984 
Q 2250 4219 1831 4219 
Q 1534 4219 1204 4116 
Q 875 4013 500 3803 
L 500 4441 
Q 881 4594 1212 4672 
Q 1544 4750 1819 4750 
Q 2544 4750 2975 4387 
Q 3406 4025 3406 3419 
Q 3406 3131 3298 2873 
Q 3191 2616 2906 2266 
Q 2828 2175 2409 1742 
Q 1991 1309 1228 531 
z
" transform="scale(0.015625)"/>
        <path id="DejaVuSans-35" d="M 691 4666 
L 3169 4666 
L 3169 4134 
L 1269 4134 
L 1269 2991 
Q 1406 3038 1543 3061 
Q 1681 3084 1819 3084 
Q 2600 3084 3056 2656 
Q 3513 2228 3513 1497 
Q 3513 744 3044 326 
Q 2575 -91 1722 -91 
Q 1428 -91 1123 -41 
Q 819 9 494 109 
L 494 744 
Q 775 591 1075 516 
Q 1375 441 1709 441 
Q 2250 441 2565 725 
Q 2881 1009 2881 1497 
Q 2881 1984 2565 2268 
Q 2250 2553 1709 2553 
Q 1456 2553 1204 2497 
Q 953 2441 691 2322 
L 691 4666 
z
" transform="scale(0.015625)"/>
       </defs>
       <use xlink:href="#DejaVuSans-30"/>
       <use xlink:href="#DejaVuSans-2e" transform="translate(63.623047 0)"/>
       <use xlink:href="#DejaVuSans-32" transform="translate(95.410156 0)"/>
       <use xlink:href="#DejaVuSans-35" transform="translate(159.033203 0)"/>
      </g>
     </g>
    </g>
    <g id="xtick_3">
     <g id="line2d_3">
      <path d="M 146.88558 307.584 
L 146.88558 41.472 
" clip-path="url(#pd3bfaa0d9a)" style="fill: none; stroke: #000000; stroke-opacity: 0.3; stroke-width: 0.8; stroke-linecap: square"/>
     </g>
     <g id="text_3">
      <!-- 0.50 -->
      <g style="fill: #333333" transform="translate(135.752768 322.182437) scale(0.1 -0.1)">
       <use xlink:href="#DejaVuSans-30"/>
       <use xlink:href="#DejaVuSans-2e" transform="translate(63.623047 0)"/>
       <use xlink:href="#DejaVuSans-35" transform="translate(95.410156 0)"/>
       <use xlink:href="#DejaVuSans-30" transform="translate(159.033203 0)"/>
      </g>
     </g>
    </g>
    <g id="xtick_4">
     <g id="line2d_4">
      <path d="M 191.528371 307.584 
L 191.528371 41.472 
" clip-path="url(#pd3bfaa0d9a)" style="fill: none; stroke: #000000; stroke-opacity: 0.3; stroke-width: 0.8; stroke-linecap: square"/>
     </g>
     <g id="text_4">
      <!-- 0.75 -->
      <g style="fill: #333333" transform="translate(180.395558 322.182437) scale(0.1 -0.1)">
       <defs>
        <path id="DejaVuSans-37" d="M 525 4666 
L 3525 4666 
L 3525 4397 
L 1831 0 
L 1172 0 
L 2766 4134 
L 525 4134 
L 525 4666 
z
" transform="scale(0.015625)"/>
       </defs>
       <use xlink:href="#DejaVuSans-30"/>
       <use xlink:href="#DejaVuSans-2e" transform="translate(63.623047 0)"/>
       <use xlink:href="#DejaVuSans-37" transform="translate(95.410156 0)"/>
       <use xlink:href="#DejaVuSans-35" transform="translate(159.033203 0)"/>
      </g>
     </g>
    </g>
    <g id="xtick_5">
     <g id="line2d_5">
      <path d="M 236.171161 307.584 
L 236.171161 41.472 
" clip-path="url(#pd3bfaa0d9a)" style="fill: none; stroke: #000000; stroke-opacity: 0.3; stroke-width: 0.8; stroke-linecap: square"/>
     </g>
     <g id="text_5">
      <!-- 1.00 -->
      <g style="fill: #333333" transform="translate(225.038348 322.182437) scale(0.1 -0.1)">
       <defs>
        <path id="DejaVuSans-31" d="M 794 531 
L 1825 531 
L 1825 4091 
L 703 3866 
L 703 4441 
L 1819 4666 
L 2450 4666 
L 2450 531 
L 3481 531 
L 3481 0 
L 794 0 
L 794 531 
z
" transform="scale(0.015625)"/>
       </defs>
       <use xlink:href="#DejaVuSans-31"/>
       <use xlink:href="#DejaVuSans-2e" transform="translate(63.623047 0)"/>
       <use xlink:href="#DejaVuSans-30" transform="translate(95.410156 0)"/>
       <use xlink:href="#DejaVuSans-30" transform="translate(159.033203 0)"/>
      </g>
     </g>
    </g>
    <g id="xtick_6">
     <g id="line2d_6">
      <path d="M 280.813951 307.584 
L 280.813951 41.472 
" clip-path="url(#pd3bfaa0d9a)" style="fill: none; stroke: #000000; stroke-opacity: 0.3; stroke-width: 0.8; stroke-linecap: square"/>
     </g>
     <g id="text_6">
      <!-- 1.25 -->
      <g style="fill: #333333" transform="translate(269.681138 322.182437) scale(0.1 -0.1)">
       <use xlink:href="#DejaVuSans-31"/>
       <use xlink:href="#DejaVuSans-2e" transform="translate(63.623047 0)"/>
       <use xlink:href="#DejaVuSans-32" transform="translate(95.410156 0)"/>
       <use xlink:href="#DejaVuSans-35" transform="translate(159.033203 0)"/>
      </g>
     </g>
    </g>
    <g id="xtick_7">
     <g id="line2d_7">
      <path d="M 325.456741 307.584 
L 325.456741 41.472 
" clip-path="url(#pd3bfaa0d9a)" style="fill: none; stroke: #000000; stroke-opacity: 0.3; stroke-width: 0.8; stroke-linecap: square"/>
     </g>
     <g id="text_7">
      <!-- 1.50 -->
      <g style="fill: #333333" transform="translate(314.323929 322.182437) scale(0.1 -0.1)">
       <use xlink:href="#DejaVuSans-31"/>
       <use xlink:href="#DejaVuSans-2e" transform="translate(63.623047 0)"/>
       <use xlink:href="#DejaVuSans-35" transform="translate(95.410156 0)"/>
       <use xlink:href="#DejaVuSans-30" transform="translate(159.033203 0)"/>
      </g>
     </g>
    </g>
    <g id="xtick_8">
     <g id="line2d_8">
      <path d="M 370.099531 307.584 
L 370.099531 41.472 
" clip-path="url(#pd3bfaa0d9a)" style="fill: none; stroke: #000000; stroke-opacity: 0.3; stroke-width: 0.8; stroke-linecap: square"/>
     </g>
     <g id="text_8">
      <!-- 1.75 -->
      <g style="fill: #333333" transform="translate(358.966719 322.182437) scale(0.1 -0.1)">
       <use xlink:href="#DejaVuSans-31"/>
       <use xlink:href="#DejaVuSans-2e" transform="translate(63.623047 0)"/>
       <use xlink:href="#DejaVuSans-37" transform="translate(95.410156 0)"/>
       <use xlink:href="#DejaVuSans-35" transform="translate(159.033203 0)"/>
      </g>
     </g>
    </g>
    <g id="text_9">
     <!-- seconds -->
     <g style="fill: #333333" transform="translate(215.7225 335.860562) scale(0.1 -0.1)">
      <defs>
       <path id="DejaVuSans-73" d="M 2834 3397 
L 2834 2853 
Q 2591 2978 2328 3040 
Q 2066 3103 1784 3103 
Q 1356 3103 1142 2972 
Q 928 2841 928 2578 
Q 928 2378 1081 2264 
Q 1234 2150 1697 2047 
L 1894 2003 
Q 2506 1872 2764 1633 
Q 3022 1394 3022 966 
Q 3022 478 2636 193 
Q 2250 -91 1575 -91 
Q 1294 -91 989 -36 
Q 684 19 347 128 
L 347 722 
Q 666 556 975 473 
Q 1284 391 1588 391 
Q 1994 391 2212 530 
Q 2431 669 2431 922 
Q 2431 1156 2273 1281 
Q 2116 1406 1581 1522 
L 1381 1569 
Q 847 1681 609 1914 
Q 372 2147 372 2553 
Q 372 3047 722 3315 
Q 1072 3584 1716 3584 
Q 2034 3584 2315 3537 
Q 2597 3491 2834 3397 
z
" transform="scale(0.015625)"/>
       <path id="DejaVuSans-65" d="M 3597 1894 
L 3597 1613 
L 953 1613 
Q 991 1019 1311 708 
Q 1631 397 2203 397 
Q 2534 397 2845 478 
Q 3156 559 3463 722 
L 3463 178 
Q 3153 47 2828 -22 
Q 2503 -91 2169 -91 
Q 1331 -91 842 396 
Q 353 884 353 1716 
Q 353 2575 817 3079 
Q 1281 3584 2069 3584 
Q 2775 3584 3186 3129 
Q 3597 2675 3597 1894 
z
M 3022 2063 
Q 3016 2534 2758 2815 
Q 2500 3097 2075 3097 
Q 1594 3097 1305 2825 
Q 1016 2553 972 2059 
L 3022 2063 
z
" transform="scale(0.015625)"/>
       <path id="DejaVuSans-63" d="M 3122 3366 
L 3122 2828 
Q 2878 2963 2633 3030 
Q 2388 3097 2138 3097 
Q 1578 3097 1268 2742 
Q 959 2388 959 1747 
Q 959 1106 1268 751 
Q 1578 397 2138 397 
Q 2388 397 2633 464 
Q 2878 531 3122 666 
L 3122 134 
Q 2881 22 2623 -34 
Q 2366 -91 2075 -91 
Q 1284 -91 818 406 
Q 353 903 353 1747 
Q 353 2603 823 3093 
Q 1294 3584 2113 3584 
Q 2378 3584 2631 3529 
Q 2884 3475 3122 3366 
z
" transform="scale(0.015625)"/>
       <path id="DejaVuSans-6f" d="M 1959 3097 
Q 1497 3097 1228 2736 
Q 959 2375 959 1747 
Q 959 1119 1226 758 
Q 1494 397 1959 397 
Q 2419 397 2687 759 
Q 2956 1122 2956 1747 
Q 2956 2369 2687 2733 
Q 2419 3097 1959 3097 
z
M 1959 3584 
Q 2709 3584 3137 3096 
Q 3566 2609 3566 1747 
Q 3566 888 3137 398 
Q 2709 -91 1959 -91 
Q 1206 -91 779 398 
Q 353 888 353 1747 
Q 353 2609 779 3096 
Q 1206 3584 1959 3584 
z
" transform="scale(0.015625)"/>
       <path id="DejaVuSans-6e" d="M 3513 2113 
L 3513 0 
L 2938 0 
L 2938 2094 
Q 2938 2591 2744 2837 
Q 2550 3084 2163 3084 
Q 1697 3084 1428 2787 
Q 1159 2491 1159 1978 
L 1159 0 
L 581 0 
L 581 3500 
L 1159 3500 
L 1159 2956 
Q 1366 3272 1645 3428 
Q 1925 3584 2291 3584 
Q 2894 3584 3203 3211 
Q 3513 2838 3513 2113 
z
" transform="scale(0.015625)"/>
       <path id="DejaVuSans-64" d="M 2906 2969 
L 2906 4863 
L 3481 4863 
L 3481 0 
L 2906 0 
L 2906 525 
Q 2725 213 2448 61 
Q 2172 -91 1784 -91 
Q 1150 -91 751 415 
Q 353 922 353 1747 
Q 353 2572 751 3078 
Q 1150 3584 1784 3584 
Q 2172 3584 2448 3432 
Q 2725 3281 2906 2969 
z
M 947 1747 
Q 947 1113 1208 752 
Q 1469 391 1925 391 
Q 2381 391 2643 752 
Q 2906 1113 2906 1747 
Q 2906 2381 2643 2742 
Q 2381 3103 1925 3103 
Q 1469 3103 1208 2742 
Q 947 2381 947 1747 
z
" transform="scale(0.015625)"/>
      </defs>
      <use xlink:href="#DejaVuSans-73"/>
      <use xlink:href="#DejaVuSans-65" transform="translate(52.099609 0)"/>
      <use xlink:href="#DejaVuSans-63" transform="translate(113.623047 0)"/>
      <use xlink:href="#DejaVuSans-6f" transform="translate(168.603516 0)"/>
      <use xlink:href="#DejaVuSans-6e" transform="translate(229.785156 0)"/>
      <use xlink:href="#DejaVuSans-64" transform="translate(293.164062 0)"/>
      <use xlink:href="#DejaVuSans-73" transform="translate(356.640625 0)"/>
     </g>
    </g>
   </g>
   <g id="matplotlib.axis_2">
    <g id="ytick_1">
     <g id="line2d_9">
      <path d="M 57.6 304.610406 
L 414.72 304.610406 
" clip-path="url(#pd3bfaa0d9a)" style="fill: none; stroke: #000000; stroke-opacity: 0.3; stroke-width: 0.8; stroke-linecap: square"/>
     </g>
     <g id="text_10">
      <!-- −120 -->
      <g style="fill: #333333" transform="translate(23.132812 308.409625) scale(0.1 -0.1)">
       <defs>
        <path id="DejaVuSans-2212" d="M 678 2272 
L 4684 2272 
L 4684 1741 
L 678 1741 
L 678 2272 
z
" transform="scale(0.015625)"/>
       </defs>
       <use xlink:href="#DejaVuSans-2212"/>
       <use xlink:href="#DejaVuSans-31" transform="translate(83.789062 0)"/>
       <use xlink:href="#DejaVuSans-32" transform="translate(147.412109 0)"/>
       <use xlink:href="#DejaVuSans-30" transform="translate(211.035156 0)"/>
      </g>
     </g>
    </g>
    <g id="ytick_2">
     <g id="line2d_10">
      <path d="M 57.6 251.388006 
L 414.72 251.388006 
" clip-path="url(#pd3bfaa0d9a)" style="fill: none; stroke: #000000; stroke-opacity: 0.3; stroke-width: 0.8; stroke-linecap: square"/>
     </g>
     <g id="text_11">
      <!-- −100 -->
      <g style="fill: #333333" transform="translate(23.132812 255.187225) scale(0.1 -0.1)">
       <use xlink:href="#DejaVuSans-2212"/>
       <use xlink:href="#DejaVuSans-31" transform="translate(83.789062 0)"/>
       <use xlink:href="#DejaVuSans-30" transform="translate(147.412109 0)"/>
       <use xlink:href="#DejaVuSans-30" transform="translate(211.035156 0)"/>
      </g>
     </g>
    </g>
    <g id="ytick_3">
     <g id="line2d_11">
      <path d="M 57.6 198.165606 
L 414.72 198.165606 
" clip-path="url(#pd3bfaa0d9a)" style="fill: none; stroke: #000000; stroke-opacity: 0.3; stroke-width: 0.8; stroke-linecap: square"/>
     </g>
     <g id="text_12">
      <!-- −80 -->
      <g style="fill: #333333" transform="translate(29.495313 201.964825) scale(0.1 -0.1)">
       <defs>
        <path id="DejaVuSans-38" d="M 2034 2216 
Q 1584 2216 1326 1975 
Q 1069 1734 1069 1313 
Q 1069 891 1326 650 
Q 1584 409 2034 409 
Q 2484 409 2743 651 
Q 3003 894 3003 1313 
Q 3003 1734 2745 1975 
Q 2488 2216 2034 2216 
z
M 1403 2484 
Q 997 2584 770 2862 
Q 544 3141 544 3541 
Q 544 4100 942 4425 
Q 1341 4750 2034 4750 
Q 2731 4750 3128 4425 
Q 3525 4100 3525 3541 
Q 3525 3141 3298 2862 
Q 3072 2584 2669 2484 
Q 3125 2378 3379 2068 
Q 3634 1759 3634 1313 
Q 3634 634 3220 271 
Q 2806 -91 2034 -91 
Q 1263 -91 848 271 
Q 434 634 434 1313 
Q 434 1759 690 2068 
Q 947 2378 1403 2484 
z
M 1172 3481 
Q 1172 3119 1398 2916 
Q 1625 2713 2034 2713 
Q 2441 2713 2670 2916 
Q 2900 3119 2900 3481 
Q 2900 3844 2670 4047 
Q 2441 4250 2034 4250 
Q 1625 4250 1398 4047 
Q 1172 3844 1172 3481 
z
" transform="scale(0.015625)"/>
       </defs>
       <use xlink:href="#DejaVuSans-2212"/>
       <use xlink:href="#DejaVuSans-38" transform="translate(83.789062 0)"/>
       <use xlink:href="#DejaVuSans-30" transform="translate(147.412109 0)"/>
      </g>
     </g>
    </g>
    <g id="ytick_4">
     <g id="line2d_12">
      <path d="M 57.6 144.943206 
L 414.72 144.943206 
" clip-path="url(#pd3bfaa0d9a)" style="fill: none; stroke: #000000; stroke-opacity: 0.3; stroke-width: 0.8; stroke-linecap: square"/>
     </g>
     <g id="text_13">
      <!-- −60 -->
      <g style="fill: #333333" transform="translate(29.495313 148.742425) scale(0.1 -0.1)">
       <defs>
        <path id="DejaVuSans-36" d="M 2113 2584 
Q 1688 2584 1439 2293 
Q 1191 2003 1191 1497 
Q 1191 994 1439 701 
Q 1688 409 2113 409 
Q 2538 409 2786 701 
Q 3034 994 3034 1497 
Q 3034 2003 2786 2293 
Q 2538 2584 2113 2584 
z
M 3366 4563 
L 3366 3988 
Q 3128 4100 2886 4159 
Q 2644 4219 2406 4219 
Q 1781 4219 1451 3797 
Q 1122 3375 1075 2522 
Q 1259 2794 1537 2939 
Q 1816 3084 2150 3084 
Q 2853 3084 3261 2657 
Q 3669 2231 3669 1497 
Q 3669 778 3244 343 
Q 2819 -91 2113 -91 
Q 1303 -91 875 529 
Q 447 1150 447 2328 
Q 447 3434 972 4092 
Q 1497 4750 2381 4750 
Q 2619 4750 2861 4703 
Q 3103 4656 3366 4563 
z
" transform="scale(0.015625)"/>
       </defs>
       <use xlink:href="#DejaVuSans-2212"/>
       <use xlink:href="#DejaVuSans-36" transform="translate(83.789062 0)"/>
       <use xlink:href="#DejaVuSans-30" transform="translate(147.412109 0)"/>
      </g>
     </g>
    </g>
    <g id="ytick_5">
     <g id="line2d_13">
      <path d="M 57.6 91.720806 
L 414.72 91.720806 
" clip-path="url(#pd3bfaa0d9a)" style="fill: none; stroke: #000000; stroke-opacity: 0.3; stroke-width: 0.8; stroke-linecap: square"/>
     </g>
     <g id="text_14">
      <!-- −40 -->
      <g style="fill: #333333" transform="translate(29.495313 95.520025) scale(0.1 -0.1)">
       <defs>
        <path id="DejaVuSans-34" d="M 2419 4116 
L 825 1625 
L 2419 1625 
L 2419 4116 
z
M 2253 4666 
L 3047 4666 
L 3047 1625 
L 3713 1625 
L 3713 1100 
L 3047 1100 
L 3047 0 
L 2419 0 
L 2419 1100 
L 313 1100 
L 313 1709 
L 2253 4666 
z
" transform="scale(0.015625)"/>
       </defs>
       <use xlink:href="#DejaVuSans-2212"/>
       <use xlink:href="#DejaVuSans-34" transform="translate(83.789062 0)"/>
       <use xlink:href="#DejaVuSans-30" transform="translate(147.412109 0)"/>
      </g>
     </g>
    </g>
    <g id="text_15">
     <!-- Amplitude in dB -->
     <g style="fill: #333333" transform="translate(17.053125 214.491281) rotate(-90) scale(0.1 -0.1)">
      <defs>
       <path id="DejaVuSans-41" d="M 2188 4044 
L 1331 1722 
L 3047 1722 
L 2188 4044 
z
M 1831 4666 
L 2547 4666 
L 4325 0 
L 3669 0 
L 3244 1197 
L 1141 1197 
L 716 0 
L 50 0 
L 1831 4666 
z
" transform="scale(0.015625)"/>
       <path id="DejaVuSans-6d" d="M 3328 2828 
Q 3544 3216 3844 3400 
Q 4144 3584 4550 3584 
Q 5097 3584 5394 3201 
Q 5691 2819 5691 2113 
L 5691 0 
L 5113 0 
L 5113 2094 
Q 5113 2597 4934 2840 
Q 4756 3084 4391 3084 
Q 3944 3084 3684 2787 
Q 3425 2491 3425 1978 
L 3425 0 
L 2847 0 
L 2847 2094 
Q 2847 2600 2669 2842 
Q 2491 3084 2119 3084 
Q 1678 3084 1418 2786 
Q 1159 2488 1159 1978 
L 1159 0 
L 581 0 
L 581 3500 
L 1159 3500 
L 1159 2956 
Q 1356 3278 1631 3431 
Q 1906 3584 2284 3584 
Q 2666 3584 2933 3390 
Q 3200 3197 3328 2828 
z
" transform="scale(0.015625)"/>
       <path id="DejaVuSans-70" d="M 1159 525 
L 1159 -1331 
L 581 -1331 
L 581 3500 
L 1159 3500 
L 1159 2969 
Q 1341 3281 1617 3432 
Q 1894 3584 2278 3584 
Q 2916 3584 3314 3078 
Q 3713 2572 3713 1747 
Q 3713 922 3314 415 
Q 2916 -91 2278 -91 
Q 1894 -91 1617 61 
Q 1341 213 1159 525 
z
M 3116 1747 
Q 3116 2381 2855 2742 
Q 2594 3103 2138 3103 
Q 1681 3103 1420 2742 
Q 1159 2381 1159 1747 
Q 1159 1113 1420 752 
Q 1681 391 2138 391 
Q 2594 391 2855 752 
Q 3116 1113 3116 1747 
z
" transform="scale(0.015625)"/>
       <path id="DejaVuSans-6c" d="M 603 4863 
L 1178 4863 
L 1178 0 
L 603 0 
L 603 4863 
z
" transform="scale(0.015625)"/>
       <path id="DejaVuSans-69" d="M 603 3500 
L 1178 3500 
L 1178 0 
L 603 0 
L 603 3500 
z
M 603 4863 
L 1178 4863 
L 1178 4134 
L 603 4134 
L 603 4863 
z
" transform="scale(0.015625)"/>
       <path id="DejaVuSans-74" d="M 1172 4494 
L 1172 3500 
L 2356 3500 
L 2356 3053 
L 1172 3053 
L 1172 1153 
Q 1172 725 1289 603 
Q 1406 481 1766 481 
L 2356 481 
L 2356 0 
L 1766 0 
Q 1100 0 847 248 
Q 594 497 594 1153 
L 594 3053 
L 172 3053 
L 172 3500 
L 594 3500 
L 594 4494 
L 1172 4494 
z
" transform="scale(0.015625)"/>
       <path id="DejaVuSans-75" d="M 544 1381 
L 544 3500 
L 1119 3500 
L 1119 1403 
Q 1119 906 1312 657 
Q 1506 409 1894 409 
Q 2359 409 2629 706 
Q 2900 1003 2900 1516 
L 2900 3500 
L 3475 3500 
L 3475 0 
L 2900 0 
L 2900 538 
Q 2691 219 2414 64 
Q 2138 -91 1772 -91 
Q 1169 -91 856 284 
Q 544 659 544 1381 
z
M 1991 3584 
L 1991 3584 
z
" transform="scale(0.015625)"/>
       <path id="DejaVuSans-20" transform="scale(0.015625)"/>
       <path id="DejaVuSans-42" d="M 1259 2228 
L 1259 519 
L 2272 519 
Q 2781 519 3026 730 
Q 3272 941 3272 1375 
Q 3272 1813 3026 2020 
Q 2781 2228 2272 2228 
L 1259 2228 
z
M 1259 4147 
L 1259 2741 
L 2194 2741 
Q 2656 2741 2882 2914 
Q 3109 3088 3109 3444 
Q 3109 3797 2882 3972 
Q 2656 4147 2194 4147 
L 1259 4147 
z
M 628 4666 
L 2241 4666 
Q 2963 4666 3353 4366 
Q 3744 4066 3744 3513 
Q 3744 3084 3544 2831 
Q 3344 2578 2956 2516 
Q 3422 2416 3680 2098 
Q 3938 1781 3938 1306 
Q 3938 681 3513 340 
Q 3088 0 2303 0 
L 628 0 
L 628 4666 
z
" transform="scale(0.015625)"/>
      </defs>
      <use xlink:href="#DejaVuSans-41"/>
      <use xlink:href="#DejaVuSans-6d" transform="translate(68.408203 0)"/>
      <use xlink:href="#DejaVuSans-70" transform="translate(165.820312 0)"/>
      <use xlink:href="#DejaVuSans-6c" transform="translate(229.296875 0)"/>
      <use xlink:href="#DejaVuSans-69" transform="translate(257.080078 0)"/>
      <use xlink:href="#DejaVuSans-74" transform="translate(284.863281 0)"/>
      <use xlink:href="#DejaVuSans-75" transform="translate(324.072266 0)"/>
      <use xlink:href="#DejaVuSans-64" transform="translate(387.451172 0)"/>
      <use xlink:href="#DejaVuSans-65" transform="translate(450.927734 0)"/>
      <use xlink:href="#DejaVuSans-20" transform="translate(512.451172 0)"/>
      <use xlink:href="#DejaVuSans-69" transform="translate(544.238281 0)"/>
      <use xlink:href="#DejaVuSans-6e" transform="translate(572.021484 0)"/>
      <use xlink:href="#DejaVuSans-20" transform="translate(635.400391 0)"/>
      <use xlink:href="#DejaVuSans-64" transform="translate(667.1875 0)"/>
      <use xlink:href="#DejaVuSans-42" transform="translate(730.664062 0)"/>
     </g>
    </g>
   </g>
   <g id="line2d_14">
    <path d="M 59.670502 346.6 
L 59.67589 68.0832 
L 59.681277 346.6 
M 59.804661 346.6 
L 59.809818 83.370113 
L 59.814974 346.6 
M 59.893771 346.6 
L 59.899104 71.427033 
L 59.926616 346.6 
M 59.960791 346.6 
L 60.010711 73.930674 
L 60.038093 346.6 
M 60.072374 346.6 
L 60.077675 73.131617 
L 60.082974 346.6 
M 60.117075 346.6 
L 60.122318 76.987962 
L 60.127559 346.6 
M 60.161823 346.6 
L 60.211603 78.81066 
L 60.216815 346.6 
M 60.273397 346.6 
L 60.345532 69.93383 
L 60.367853 102.285944 
L 60.47946 78.127833 
L 60.457139 104.317622 
L 60.501781 84.974856 
L 60.546424 84.587878 
L 60.591067 116.488243 
L 60.658031 78.458922 
L 60.702674 80.696314 
L 60.791959 92.187343 
L 60.836602 89.502836 
L 60.858924 82.836993 
L 60.925888 93.188703 
L 60.948209 89.217683 
L 61.015173 77.314964 
L 61.082138 82.221443 
L 61.149102 84.32347 
L 61.171423 79.160003 
L 61.28303 89.539707 
L 61.372316 79.616406 
L 61.416959 81.872325 
L 61.43928 81.478456 
L 61.483923 84.11639 
L 61.506244 80.646036 
L 61.528566 84.009915 
L 61.550887 79.219223 
L 61.617851 87.112626 
L 61.640173 81.246199 
L 61.707137 83.166995 
L 61.729458 80.73078 
L 61.774101 82.803509 
L 61.863386 79.760624 
L 61.908029 80.319253 
L 62.019636 83.90171 
L 62.0866 84.384084 
L 62.131243 81.137729 
L 62.153565 83.619507 
L 62.175886 80.956831 
L 62.24285 82.793005 
L 62.287493 83.798167 
L 62.354457 82.056189 
L 62.443743 84.907859 
L 62.466064 83.688322 
L 62.488386 83.638891 
L 62.510707 83.243277 
L 62.55535 84.405285 
L 62.577671 84.350485 
L 62.689278 83.238066 
L 62.778564 84.31461 
L 62.800885 83.850168 
L 62.823206 83.826774 
L 62.890171 84.73146 
L 62.934813 84.237012 
L 62.957135 84.160238 
L 62.979456 84.379055 
L 63.001778 83.431442 
L 63.024099 84.4447 
L 63.068742 84.07335 
L 63.20267 84.768548 
L 63.224992 84.273064 
L 63.291956 85.138705 
L 63.314277 84.601894 
L 63.336599 84.546019 
L 63.470527 85.483075 
L 63.492848 84.957182 
L 63.537491 85.684806 
L 63.559812 85.079116 
L 63.604455 85.852944 
L 63.671419 85.678961 
L 63.693741 85.382487 
L 63.716062 86.04001 
L 63.738384 85.560522 
L 63.805348 70.797675 
L 63.827669 87.807577 
L 63.849991 87.912992 
L 63.894633 86.01177 
L 63.961598 86.071512 
L 63.983919 86.71143 
L 64.073205 86.616514 
L 64.095526 86.384737 
L 64.117847 86.638409 
L 64.140169 86.569005 
L 64.184812 99.658531 
L 64.229454 86.787337 
L 64.274097 86.707047 
L 64.363383 86.665478 
L 64.385704 87.208362 
L 64.408026 86.837489 
L 64.452668 86.966428 
L 64.519632 74.821115 
L 64.541954 90.50236 
L 64.564275 90.33166 
L 64.586597 90.579048 
L 64.653561 94.931017 
L 64.675882 79.738353 
L 64.720525 97.433054 
L 64.765168 78.079929 
L 64.787489 69.798949 
L 64.832132 83.794644 
L 64.876775 115.067353 
L 64.943739 88.000927 
L 64.96606 88.0481 
L 65.033025 76.810134 
L 65.055346 109.312769 
L 65.144632 82.398666 
L 65.189274 82.302513 
L 65.323203 109.907772 
L 65.367845 111.390731 
L 65.457131 85.069644 
L 65.635702 101.61433 
L 65.658024 73.33472 
L 65.724988 98.839253 
L 65.747309 113.248011 
L 65.791952 72.949715 
L 65.836595 81.974468 
L 65.881238 149.135686 
L 65.948202 116.241288 
L 65.970523 116.59196 
L 66.037487 80.472121 
L 66.08213 94.214143 
L 66.104452 120.142361 
L 66.149094 91.888085 
L 66.171416 92.824837 
L 66.193737 86.86071 
L 66.23838 96.010478 
L 66.283023 92.001597 
L 66.372308 130.76629 
L 66.39463 93.013325 
L 66.483915 103.747201 
L 66.528558 126.449036 
L 66.573201 101.248904 
L 66.640165 80.012118 
L 66.751772 84.11773 
L 66.841058 134.048277 
L 66.863379 91.942867 
L 66.8857 92.968271 
L 66.952665 83.912782 
L 66.997307 88.545681 
L 67.064272 117.539463 
L 67.108914 91.137665 
L 67.153557 122.684041 
L 67.1982 87.549653 
L 67.220521 86.231807 
L 67.309807 113.059058 
L 67.332128 96.125757 
L 67.376771 86.091483 
L 67.421414 100.284228 
L 67.466057 116.917893 
L 67.488378 99.595453 
L 67.510699 90.728117 
L 67.533021 96.715454 
L 67.555342 117.485992 
L 67.622306 91.605084 
L 67.644628 92.464576 
L 67.666949 100.665985 
L 67.756235 100.446513 
L 67.823199 79.562968 
L 67.867842 87.882907 
L 67.957127 105.506499 
L 67.979449 88.463246 
L 68.024092 86.109167 
L 68.046413 97.959131 
L 68.113377 83.11625 
L 68.135698 83.805068 
L 68.15802 96.305972 
L 68.247305 87.841629 
L 68.269627 83.099157 
L 68.336591 87.410226 
L 68.358912 88.18339 
L 68.381234 94.901132 
L 68.425877 84.057646 
L 68.448198 81.349116 
L 68.470519 86.784464 
L 68.537484 84.694077 
L 68.626769 99.671175 
L 68.649091 133.217033 
L 68.716055 84.465075 
L 68.849983 95.927153 
L 68.872305 94.260318 
L 68.983911 81.459236 
L 69.006233 85.319655 
L 69.050876 100.685144 
L 69.095518 87.752826 
L 69.11784 83.084276 
L 69.184804 90.206503 
L 69.207125 86.372636 
L 69.229447 86.264605 
L 69.296411 89.764934 
L 69.318732 87.161037 
L 69.430339 83.734616 
L 69.385697 87.819626 
L 69.452661 84.996377 
L 69.497304 86.603568 
L 69.541946 82.637678 
L 69.586589 86.478462 
L 69.675875 91.726236 
L 69.720518 88.958856 
L 69.809803 83.23091 
L 69.854446 85.143823 
L 69.966053 89.367033 
L 70.033017 82.106903 
L 70.07766 84.991437 
L 70.144624 89.195817 
L 70.189267 85.37791 
L 70.256231 82.665005 
L 70.278552 84.318561 
L 70.300874 87.690085 
L 70.345517 82.99905 
L 70.367838 80.958375 
L 70.412481 85.170899 
L 70.457124 89.53538 
L 70.501766 84.820528 
L 70.524088 84.707225 
L 70.546409 88.596306 
L 70.613373 83.392609 
L 70.702659 88.805612 
L 70.747302 85.174398 
L 70.769623 82.749539 
L 70.836587 87.252787 
L 70.858909 87.375591 
L 70.88123 88.183072 
L 70.903551 87.156684 
L 70.925873 87.428932 
L 70.948194 85.360902 
L 71.03748 86.035114 
L 71.059801 89.783756 
L 71.126765 85.307477 
L 71.149087 85.287826 
L 71.171408 82.622162 
L 71.238372 86.4822 
L 71.305337 86.781132 
L 71.349979 84.73222 
L 71.483908 87.260647 
L 71.506229 86.79963 
L 71.528551 88.620145 
L 71.617836 85.199675 
L 71.707122 86.655045 
L 71.729443 87.531211 
L 71.774086 86.235446 
L 71.818729 86.981952 
L 71.885693 84.024207 
L 71.930336 86.367064 
L 71.974978 89.344709 
L 72.019621 86.904215 
L 72.041943 85.961109 
L 72.086585 87.910005 
L 72.108907 88.649696 
L 72.15355 87.675161 
L 72.309799 85.634547 
L 72.332121 85.582814 
L 72.399085 87.869192 
L 72.443728 87.55113 
L 72.510692 86.414516 
L 72.533013 88.064877 
L 72.555335 86.832039 
L 72.577656 89.111188 
L 72.666942 87.27394 
L 72.733906 85.636058 
L 72.778549 86.0638 
L 72.80087 87.504787 
L 72.890156 87.312124 
L 72.912477 87.497912 
L 72.934798 87.181029 
L 72.95712 86.568564 
L 73.024084 86.953082 
L 73.046405 87.86373 
L 73.11337 86.114374 
L 73.135691 87.4382 
L 73.247298 86.373017 
L 73.269619 86.869351 
L 73.291941 86.938898 
L 73.314262 86.891084 
L 73.381226 87.331406 
L 73.425869 86.40705 
L 73.492833 88.446447 
L 73.537476 87.695351 
L 73.60444 86.361723 
L 73.649083 86.637167 
L 73.716047 87.561365 
L 73.76069 87.293315 
L 73.827654 85.802907 
L 73.872297 86.78056 
L 73.91694 86.288544 
L 73.939261 86.724202 
L 73.983904 87.909283 
L 74.028547 87.088238 
L 74.07319 86.34031 
L 74.117832 87.029384 
L 74.207118 87.600937 
L 74.274082 86.286377 
L 74.341046 86.628268 
L 74.363368 86.503612 
L 74.452653 87.469192 
L 74.474975 87.22392 
L 74.56426 86.686704 
L 74.586582 87.115614 
L 74.631224 88.213748 
L 74.698189 87.131499 
L 74.854438 87.713068 
L 74.765153 86.929547 
L 74.899081 87.694628 
L 74.921403 86.955273 
L 75.010688 87.39714 
L 75.077652 88.038472 
L 75.122295 88.0276 
L 75.144617 87.067194 
L 75.233902 87.548752 
L 75.256224 87.866332 
L 75.300866 87.787717 
L 75.323188 87.165826 
L 75.390152 88.254114 
L 75.457116 87.389087 
L 75.501759 88.048165 
L 75.591044 87.405481 
L 75.613366 87.902354 
L 75.658009 88.436943 
L 75.724973 87.9463 
L 75.747294 87.971212 
L 75.791937 87.570978 
L 75.858901 87.929484 
L 75.948187 88.029153 
L 75.970508 87.790968 
L 76.059794 87.999441 
L 76.126758 87.830436 
L 76.149079 87.983571 
L 76.32765 88.556212 
L 76.4839 88.069666 
L 76.595507 88.457201 
L 76.617829 88.409148 
L 76.707114 88.081427 
L 76.729436 88.167661 
L 76.841043 88.504246 
L 76.885685 88.646872 
L 76.95265 88.258379 
L 77.019614 88.728877 
L 77.108899 88.657636 
L 77.220506 88.232973 
L 77.153542 88.691455 
L 77.242828 88.373728 
L 77.421399 88.795309 
L 77.488363 88.396505 
L 77.533006 88.556711 
L 77.555327 88.825478 
L 77.622291 88.451811 
L 77.644613 88.420466 
L 77.666934 88.863532 
L 77.75622 88.801426 
L 77.800863 88.651057 
L 77.823184 88.913453 
L 77.890148 88.589088 
L 77.91247 88.826953 
L 77.979434 88.767636 
L 78.001755 88.980445 
L 78.046398 88.72296 
L 78.091041 88.536517 
L 78.113362 88.805776 
L 78.135683 88.77071 
L 78.202648 89.00657 
L 78.224969 88.978091 
L 78.336576 88.617094 
L 78.40354 89.211364 
L 78.492826 89.078927 
L 78.515147 89.110682 
L 78.537469 89.030093 
L 78.626754 88.946026 
L 78.693718 89.298362 
L 78.760683 89.159217 
L 78.805325 88.859415 
L 78.894611 88.89833 
L 78.961575 89.519914 
L 79.006218 89.382245 
L 79.073182 89.029846 
L 79.140146 89.20943 
L 79.184789 89.440793 
L 79.274075 89.353787 
L 79.341039 89.143116 
L 79.36336 89.456801 
L 79.408003 89.60751 
L 79.474967 89.378108 
L 79.497289 89.473383 
L 79.564253 89.35679 
L 79.586574 89.399896 
L 79.631217 89.619515 
L 79.720503 89.574912 
L 79.787467 89.393948 
L 79.809788 89.605518 
L 79.854431 89.659738 
L 79.876752 89.522128 
L 79.921395 89.621181 
L 80.010681 89.525498 
L 80.033002 89.745431 
L 80.077645 89.833277 
L 80.144609 89.692579 
L 80.233895 89.616861 
L 80.300859 89.870027 
L 80.345502 89.81861 
L 80.390144 89.887265 
L 80.412466 89.931066 
L 80.457109 89.823291 
L 80.47943 89.767853 
L 80.524073 89.843472 
L 80.63568 90.000798 
L 80.658001 89.948875 
L 80.791929 89.909651 
L 80.903536 90.14499 
L 80.925858 89.986849 
L 81.015143 90.0238 
L 81.12675 90.265939 
L 81.193715 90.086609 
L 81.238357 90.1606 
L 81.349964 90.311783 
L 81.394607 90.244106 
L 81.506214 90.261917 
L 81.617821 90.37084 
L 81.640143 90.323087 
L 81.707107 90.406891 
L 81.818714 90.488438 
L 81.841035 90.466614 
L 81.863356 90.37965 
L 81.930321 90.485816 
L 82.532998 90.843427 
L 82.577641 90.748368 
L 82.599962 90.692773 
L 82.644605 90.801704 
L 82.800855 90.866079 
L 82.867819 90.808874 
L 82.890141 90.906935 
L 83.068712 91.00589 
L 83.180319 91.018498 
L 83.336569 91.152016 
L 83.470497 91.166304 
L 83.604425 91.283557 
L 83.626747 91.228431 
L 83.894603 91.38496 
L 84.028532 91.399342 
L 84.207103 91.489438 
L 84.407995 91.569078 
L 84.608888 91.715219 
L 84.631209 91.630883 
L 84.698174 91.744909 
L 84.854423 91.776255 
L 85.010673 91.921283 
L 85.032995 91.859024 
L 85.300851 91.994128 
L 85.479422 92.082779 
L 85.657994 92.187087 
L 85.948172 92.312284 
L 86.149064 92.402242 
L 86.193707 92.448528 
L 86.260671 92.433575 
L 86.550849 92.58364 
L 86.662456 92.62636 
L 87.19817 92.898459 
L 87.421384 92.987654 
L 88.180311 93.367344 
L 88.247275 93.385235 
L 88.269597 93.432194 
L 88.470489 93.492613 
L 88.671382 93.61137 
L 88.782989 93.663609 
L 88.983881 93.77009 
L 89.162453 93.836023 
L 89.586559 94.050687 
L 89.787452 94.154411 
L 90.122273 94.325906 
L 90.278522 94.393764 
L 90.568701 94.54619 
L 91.03745 94.786039 
L 91.751734 95.146435 
L 92.488341 95.520388 
L 92.890126 95.730069 
L 93.716017 96.158223 
L 94.229409 96.426809 
L 94.742801 96.694961 
L 97.153512 97.954452 
L 97.778511 98.285861 
L 100.657971 99.819153 
L 102.845468 100.993325 
L 105.92582 102.65785 
L 156.662351 130.593756 
L 414.72 273.231477 
L 414.72 273.231477 
" clip-path="url(#pd3bfaa0d9a)" style="fill: none; stroke: #1471b9; stroke-width: 1.5; stroke-linecap: square"/>
   </g>
   <g id="patch_3">
    <path d="M 57.6 307.584 
L 57.6 41.472 
" style="fill: none; stroke: #333333; stroke-width: 0.8; stroke-linejoin: miter; stroke-linecap: square"/>
   </g>
   <g id="patch_4">
    <path d="M 414.72 307.584 
L 414.72 41.472 
" style="fill: none; stroke: #333333; stroke-width: 0.8; stroke-linejoin: miter; stroke-linecap: square"/>
   </g>
   <g id="patch_5">
    <path d="M 57.6 307.584 
L 414.72 307.584 
" style="fill: none; stroke: #333333; stroke-width: 0.8; stroke-linejoin: miter; stroke-linecap: square"/>
   </g>
   <g id="patch_6">
    <path d="M 57.6 41.472 
L 414.72 41.472 
" style="fill: none; stroke: #333333; stroke-width: 0.8; stroke-linejoin: miter; stroke-linecap: square"/>
   </g>
   <g id="text_16">
    <!-- Summed energy difference:   $-17.417\,dB$ -->
    <g transform="translate(111.171348 11.887206) scale(0.12 -0.12)">
     <defs>
      <path id="DejaVuSans-53" d="M 3425 4513 
L 3425 3897 
Q 3066 4069 2747 4153 
Q 2428 4238 2131 4238 
Q 1616 4238 1336 4038 
Q 1056 3838 1056 3469 
Q 1056 3159 1242 3001 
Q 1428 2844 1947 2747 
L 2328 2669 
Q 3034 2534 3370 2195 
Q 3706 1856 3706 1288 
Q 3706 609 3251 259 
Q 2797 -91 1919 -91 
Q 1588 -91 1214 -16 
Q 841 59 441 206 
L 441 856 
Q 825 641 1194 531 
Q 1563 422 1919 422 
Q 2459 422 2753 634 
Q 3047 847 3047 1241 
Q 3047 1584 2836 1778 
Q 2625 1972 2144 2069 
L 1759 2144 
Q 1053 2284 737 2584 
Q 422 2884 422 3419 
Q 422 4038 858 4394 
Q 1294 4750 2059 4750 
Q 2388 4750 2728 4690 
Q 3069 4631 3425 4513 
z
" transform="scale(0.015625)"/>
      <path id="DejaVuSans-72" d="M 2631 2963 
Q 2534 3019 2420 3045 
Q 2306 3072 2169 3072 
Q 1681 3072 1420 2755 
Q 1159 2438 1159 1844 
L 1159 0 
L 581 0 
L 581 3500 
L 1159 3500 
L 1159 2956 
Q 1341 3275 1631 3429 
Q 1922 3584 2338 3584 
Q 2397 3584 2469 3576 
Q 2541 3569 2628 3553 
L 2631 2963 
z
" transform="scale(0.015625)"/>
      <path id="DejaVuSans-67" d="M 2906 1791 
Q 2906 2416 2648 2759 
Q 2391 3103 1925 3103 
Q 1463 3103 1205 2759 
Q 947 2416 947 1791 
Q 947 1169 1205 825 
Q 1463 481 1925 481 
Q 2391 481 2648 825 
Q 2906 1169 2906 1791 
z
M 3481 434 
Q 3481 -459 3084 -895 
Q 2688 -1331 1869 -1331 
Q 1566 -1331 1297 -1286 
Q 1028 -1241 775 -1147 
L 775 -588 
Q 1028 -725 1275 -790 
Q 1522 -856 1778 -856 
Q 2344 -856 2625 -561 
Q 2906 -266 2906 331 
L 2906 616 
Q 2728 306 2450 153 
Q 2172 0 1784 0 
Q 1141 0 747 490 
Q 353 981 353 1791 
Q 353 2603 747 3093 
Q 1141 3584 1784 3584 
Q 2172 3584 2450 3431 
Q 2728 3278 2906 2969 
L 2906 3500 
L 3481 3500 
L 3481 434 
z
" transform="scale(0.015625)"/>
      <path id="DejaVuSans-79" d="M 2059 -325 
Q 1816 -950 1584 -1140 
Q 1353 -1331 966 -1331 
L 506 -1331 
L 506 -850 
L 844 -850 
Q 1081 -850 1212 -737 
Q 1344 -625 1503 -206 
L 1606 56 
L 191 3500 
L 800 3500 
L 1894 763 
L 2988 3500 
L 3597 3500 
L 2059 -325 
z
" transform="scale(0.015625)"/>
      <path id="DejaVuSans-66" d="M 2375 4863 
L 2375 4384 
L 1825 4384 
Q 1516 4384 1395 4259 
Q 1275 4134 1275 3809 
L 1275 3500 
L 2222 3500 
L 2222 3053 
L 1275 3053 
L 1275 0 
L 697 0 
L 697 3053 
L 147 3053 
L 147 3500 
L 697 3500 
L 697 3744 
Q 697 4328 969 4595 
Q 1241 4863 1831 4863 
L 2375 4863 
z
" transform="scale(0.015625)"/>
      <path id="DejaVuSans-3a" d="M 750 794 
L 1409 794 
L 1409 0 
L 750 0 
L 750 794 
z
M 750 3309 
L 1409 3309 
L 1409 2516 
L 750 2516 
L 750 3309 
z
" transform="scale(0.015625)"/>
      <path id="DejaVuSans-Oblique-64" d="M 2675 525 
Q 2444 222 2128 65 
Q 1813 -91 1428 -91 
Q 903 -91 598 267 
Q 294 625 294 1247 
Q 294 1766 478 2236 
Q 663 2706 1013 3078 
Q 1244 3325 1534 3454 
Q 1825 3584 2144 3584 
Q 2481 3584 2739 3421 
Q 2997 3259 3138 2956 
L 3513 4863 
L 4091 4863 
L 3144 0 
L 2566 0 
L 2675 525 
z
M 891 1350 
Q 891 897 1095 644 
Q 1300 391 1663 391 
Q 1931 391 2161 520 
Q 2391 650 2566 903 
Q 2750 1166 2856 1509 
Q 2963 1853 2963 2188 
Q 2963 2622 2758 2865 
Q 2553 3109 2194 3109 
Q 1922 3109 1687 2981 
Q 1453 2853 1288 2613 
Q 1106 2353 998 2009 
Q 891 1666 891 1350 
z
" transform="scale(0.015625)"/>
      <path id="DejaVuSans-Oblique-42" d="M 1081 4666 
L 2694 4666 
Q 3350 4666 3675 4422 
Q 4000 4178 4000 3688 
Q 4000 3238 3720 2911 
Q 3441 2584 2988 2516 
Q 3375 2428 3569 2181 
Q 3763 1934 3763 1522 
Q 3763 819 3242 409 
Q 2722 0 1819 0 
L 172 0 
L 1081 4666 
z
M 1234 2228 
L 903 519 
L 1919 519 
Q 2491 519 2800 781 
Q 3109 1044 3109 1522 
Q 3109 1891 2904 2059 
Q 2700 2228 2247 2228 
L 1234 2228 
z
M 1606 4147 
L 1331 2741 
L 2272 2741 
Q 2775 2741 3058 2959 
Q 3341 3178 3341 3566 
Q 3341 3869 3150 4008 
Q 2959 4147 2541 4147 
L 1606 4147 
z
" transform="scale(0.015625)"/>
     </defs>
     <use xlink:href="#DejaVuSans-53" transform="translate(0 0.015625)"/>
     <use xlink:href="#DejaVuSans-75" transform="translate(63.476562 0.015625)"/>
     <use xlink:href="#DejaVuSans-6d" transform="translate(126.855469 0.015625)"/>
     <use xlink:href="#DejaVuSans-6d" transform="translate(224.267578 0.015625)"/>
     <use xlink:href="#DejaVuSans-65" transform="translate(321.679688 0.015625)"/>
     <use xlink:href="#DejaVuSans-64" transform="translate(383.203125 0.015625)"/>
     <use xlink:href="#DejaVuSans-20" transform="translate(446.679688 0.015625)"/>
     <use xlink:href="#DejaVuSans-65" transform="translate(478.466797 0.015625)"/>
     <use xlink:href="#DejaVuSans-6e" transform="translate(539.990234 0.015625)"/>
     <use xlink:href="#DejaVuSans-65" transform="translate(603.369141 0.015625)"/>
     <use xlink:href="#DejaVuSans-72" transform="translate(664.892578 0.015625)"/>
     <use xlink:href="#DejaVuSans-67" transform="translate(706.005859 0.015625)"/>
     <use xlink:href="#DejaVuSans-79" transform="translate(769.482422 0.015625)"/>
     <use xlink:href="#DejaVuSans-20" transform="translate(828.662109 0.015625)"/>
     <use xlink:href="#DejaVuSans-64" transform="translate(860.449219 0.015625)"/>
     <use xlink:href="#DejaVuSans-69" transform="translate(923.925781 0.015625)"/>
     <use xlink:href="#DejaVuSans-66" transform="translate(951.708984 0.015625)"/>
     <use xlink:href="#DejaVuSans-66" transform="translate(986.914062 0.015625)"/>
     <use xlink:href="#DejaVuSans-65" transform="translate(1022.119141 0.015625)"/>
     <use xlink:href="#DejaVuSans-72" transform="translate(1083.642578 0.015625)"/>
     <use xlink:href="#DejaVuSans-65" transform="translate(1124.755859 0.015625)"/>
     <use xlink:href="#DejaVuSans-6e" transform="translate(1186.279297 0.015625)"/>
     <use xlink:href="#DejaVuSans-63" transform="translate(1249.658203 0.015625)"/>
     <use xlink:href="#DejaVuSans-65" transform="translate(1304.638672 0.015625)"/>
     <use xlink:href="#DejaVuSans-3a" transform="translate(1366.162109 0.015625)"/>
     <use xlink:href="#DejaVuSans-20" transform="translate(1399.853516 0.015625)"/>
     <use xlink:href="#DejaVuSans-20" transform="translate(1431.640625 0.015625)"/>
     <use xlink:href="#DejaVuSans-20" transform="translate(1463.427734 0.015625)"/>
     <use xlink:href="#DejaVuSans-2212" transform="translate(1495.214844 0.015625)"/>
     <use xlink:href="#DejaVuSans-31" transform="translate(1579.003906 0.015625)"/>
     <use xlink:href="#DejaVuSans-37" transform="translate(1642.626953 0.015625)"/>
     <use xlink:href="#DejaVuSans-2e" transform="translate(1706.25 0.015625)"/>
     <use xlink:href="#DejaVuSans-34" transform="translate(1738.037109 0.015625)"/>
     <use xlink:href="#DejaVuSans-31" transform="translate(1801.660156 0.015625)"/>
     <use xlink:href="#DejaVuSans-37" transform="translate(1865.283203 0.015625)"/>
     <use xlink:href="#DejaVuSans-Oblique-64" transform="translate(1945.141926 0.015625)"/>
     <use xlink:href="#DejaVuSans-Oblique-42" transform="translate(2008.618489 0.015625)"/>
    </g>
   </g>
   <g id="legend_1">
    <g id="patch_7">
     <path d="M 262.277813 64.150125 
L 407.72 64.150125 
Q 409.72 64.150125 409.72 62.150125 
L 409.72 48.472 
Q 409.72 46.472 407.72 46.472 
L 262.277813 46.472 
Q 260.277813 46.472 260.277813 48.472 
L 260.277813 62.150125 
Q 260.277813 64.150125 262.277813 64.150125 
z
" style="fill: #ffffff; opacity: 0.8; stroke: #cccccc; stroke-linejoin: miter"/>
    </g>
    <g id="line2d_15">
     <path d="M 264.277813 54.570438 
L 274.277813 54.570438 
L 284.277813 54.570438 
" style="fill: none; stroke: #1471b9; stroke-width: 1.5; stroke-linecap: square"/>
    </g>
    <g id="text_17">
     <!-- Histogram comparison -->
     <g transform="translate(292.277813 58.070438) scale(0.1 -0.1)">
      <defs>
       <path id="DejaVuSans-48" d="M 628 4666 
L 1259 4666 
L 1259 2753 
L 3553 2753 
L 3553 4666 
L 4184 4666 
L 4184 0 
L 3553 0 
L 3553 2222 
L 1259 2222 
L 1259 0 
L 628 0 
L 628 4666 
z
" transform="scale(0.015625)"/>
       <path id="DejaVuSans-61" d="M 2194 1759 
Q 1497 1759 1228 1600 
Q 959 1441 959 1056 
Q 959 750 1161 570 
Q 1363 391 1709 391 
Q 2188 391 2477 730 
Q 2766 1069 2766 1631 
L 2766 1759 
L 2194 1759 
z
M 3341 1997 
L 3341 0 
L 2766 0 
L 2766 531 
Q 2569 213 2275 61 
Q 1981 -91 1556 -91 
Q 1019 -91 701 211 
Q 384 513 384 1019 
Q 384 1609 779 1909 
Q 1175 2209 1959 2209 
L 2766 2209 
L 2766 2266 
Q 2766 2663 2505 2880 
Q 2244 3097 1772 3097 
Q 1472 3097 1187 3025 
Q 903 2953 641 2809 
L 641 3341 
Q 956 3463 1253 3523 
Q 1550 3584 1831 3584 
Q 2591 3584 2966 3190 
Q 3341 2797 3341 1997 
z
" transform="scale(0.015625)"/>
      </defs>
      <use xlink:href="#DejaVuSans-48"/>
      <use xlink:href="#DejaVuSans-69" transform="translate(75.195312 0)"/>
      <use xlink:href="#DejaVuSans-73" transform="translate(102.978516 0)"/>
      <use xlink:href="#DejaVuSans-74" transform="translate(155.078125 0)"/>
      <use xlink:href="#DejaVuSans-6f" transform="translate(194.287109 0)"/>
      <use xlink:href="#DejaVuSans-67" transform="translate(255.46875 0)"/>
      <use xlink:href="#DejaVuSans-72" transform="translate(318.945312 0)"/>
      <use xlink:href="#DejaVuSans-61" transform="translate(360.058594 0)"/>
      <use xlink:href="#DejaVuSans-6d" transform="translate(421.337891 0)"/>
      <use xlink:href="#DejaVuSans-20" transform="translate(518.75 0)"/>
      <use xlink:href="#DejaVuSans-63" transform="translate(550.537109 0)"/>
      <use xlink:href="#DejaVuSans-6f" transform="translate(605.517578 0)"/>
      <use xlink:href="#DejaVuSans-6d" transform="translate(666.699219 0)"/>
      <use xlink:href="#DejaVuSans-70" transform="translate(764.111328 0)"/>
      <use xlink:href="#DejaVuSans-61" transform="translate(827.587891 0)"/>
      <use xlink:href="#DejaVuSans-72" transform="translate(888.867188 0)"/>
      <use xlink:href="#DejaVuSans-69" transform="translate(929.980469 0)"/>
      <use xlink:href="#DejaVuSans-73" transform="translate(957.763672 0)"/>
      <use xlink:href="#DejaVuSans-6f" transform="translate(1009.863281 0)"/>
      <use xlink:href="#DejaVuSans-6e" transform="translate(1071.044922 0)"/>
     </g>
    </g>
   </g>
  </g>
 </g>
 <defs>
  <clipPath id="pd3bfaa0d9a">
   <rect x="57.6" y="41.472" width="357.12" height="266.112"/>
  </clipPath>
 </defs>
</svg>
