<?xml version="1.0" encoding="utf-8" standalone="no"?>
<!DOCTYPE svg PUBLIC "-//W3C//DTD SVG 1.1//EN"
  "http://www.w3.org/Graphics/SVG/1.1/DTD/svg11.dtd">
<svg xmlns:xlink="http://www.w3.org/1999/xlink" width="460.8pt" height="345.6pt" viewBox="0 0 460.8 345.6" xmlns="http://www.w3.org/2000/svg" version="1.1">
 <metadata>
  <rdf:RDF xmlns:dc="http://purl.org/dc/elements/1.1/" xmlns:cc="http://creativecommons.org/ns#" xmlns:rdf="http://www.w3.org/1999/02/22-rdf-syntax-ns#">
   <cc:Work>
    <dc:type rdf:resource="http://purl.org/dc/dcmitype/StillImage"/>
    <dc:date>2025-02-20T17:20:28.255512</dc:date>
    <dc:format>image/svg+xml</dc:format>
    <dc:creator>
     <cc:Agent>
      <dc:title>Matplotlib v3.10.0, https://matplotlib.org/</dc:title>
     </cc:Agent>
    </dc:creator>
   </cc:Work>
  </rdf:RDF>
 </metadata>
 <defs>
  <style type="text/css">*{stroke-linejoin: round; stroke-linecap: butt}</style>
 </defs>
 <g id="figure_1">
  <g id="patch_1">
   <path d="M 0 345.6 
L 460.8 345.6 
L 460.8 0 
L 0 0 
z
" style="fill: #ffffff"/>
  </g>
  <g id="axes_1">
   <g id="patch_2">
    <path d="M 57.6 307.584 
L 414.72 307.584 
L 414.72 41.472 
L 57.6 41.472 
z
" style="fill: #ffffff"/>
   </g>
   <g id="matplotlib.axis_1">
    <g id="xtick_1">
     <g id="line2d_1">
      <path d="M 57.6 307.584 
L 57.6 41.472 
" clip-path="url(#p707ca8b382)" style="fill: none; stroke: #000000; stroke-opacity: 0.3; stroke-width: 0.8; stroke-linecap: square"/>
     </g>
     <g id="text_1">
      <!-- 0.00 -->
      <g style="fill: #333333" transform="translate(46.467188 322.182437) scale(0.1 -0.1)">
       <defs>
        <path id="DejaVuSans-30" d="M 2034 4250 
Q 1547 4250 1301 3770 
Q 1056 3291 1056 2328 
Q 1056 1369 1301 889 
Q 1547 409 2034 409 
Q 2525 409 2770 889 
Q 3016 1369 3016 2328 
Q 3016 3291 2770 3770 
Q 2525 4250 2034 4250 
z
M 2034 4750 
Q 2819 4750 3233 4129 
Q 3647 3509 3647 2328 
Q 3647 1150 3233 529 
Q 2819 -91 2034 -91 
Q 1250 -91 836 529 
Q 422 1150 422 2328 
Q 422 3509 836 4129 
Q 1250 4750 2034 4750 
z
" transform="scale(0.015625)"/>
        <path id="DejaVuSans-2e" d="M 684 794 
L 1344 794 
L 1344 0 
L 684 0 
L 684 794 
z
" transform="scale(0.015625)"/>
       </defs>
       <use xlink:href="#DejaVuSans-30"/>
       <use xlink:href="#DejaVuSans-2e" transform="translate(63.623047 0)"/>
       <use xlink:href="#DejaVuSans-30" transform="translate(95.410156 0)"/>
       <use xlink:href="#DejaVuSans-30" transform="translate(159.033203 0)"/>
      </g>
     </g>
    </g>
    <g id="xtick_2">
     <g id="line2d_2">
      <path d="M 102.240465 307.584 
L 102.240465 41.472 
" clip-path="url(#p707ca8b382)" style="fill: none; stroke: #000000; stroke-opacity: 0.3; stroke-width: 0.8; stroke-linecap: square"/>
     </g>
     <g id="text_2">
      <!-- 0.25 -->
      <g style="fill: #333333" transform="translate(91.107653 322.182437) scale(0.1 -0.1)">
       <defs>
        <path id="DejaVuSans-32" d="M 1228 531 
L 3431 531 
L 3431 0 
L 469 0 
L 469 531 
Q 828 903 1448 1529 
Q 2069 2156 2228 2338 
Q 2531 2678 2651 2914 
Q 2772 3150 2772 3378 
Q 2772 3750 2511 3984 
Q 2250 4219 1831 4219 
Q 1534 4219 1204 4116 
Q 875 4013 500 3803 
L 500 4441 
Q 881 4594 1212 4672 
Q 1544 4750 1819 4750 
Q 2544 4750 2975 4387 
Q 3406 4025 3406 3419 
Q 3406 3131 3298 2873 
Q 3191 2616 2906 2266 
Q 2828 2175 2409 1742 
Q 1991 1309 1228 531 
z
" transform="scale(0.015625)"/>
        <path id="DejaVuSans-35" d="M 691 4666 
L 3169 4666 
L 3169 4134 
L 1269 4134 
L 1269 2991 
Q 1406 3038 1543 3061 
Q 1681 3084 1819 3084 
Q 2600 3084 3056 2656 
Q 3513 2228 3513 1497 
Q 3513 744 3044 326 
Q 2575 -91 1722 -91 
Q 1428 -91 1123 -41 
Q 819 9 494 109 
L 494 744 
Q 775 591 1075 516 
Q 1375 441 1709 441 
Q 2250 441 2565 725 
Q 2881 1009 2881 1497 
Q 2881 1984 2565 2268 
Q 2250 2553 1709 2553 
Q 1456 2553 1204 2497 
Q 953 2441 691 2322 
L 691 4666 
z
" transform="scale(0.015625)"/>
       </defs>
       <use xlink:href="#DejaVuSans-30"/>
       <use xlink:href="#DejaVuSans-2e" transform="translate(63.623047 0)"/>
       <use xlink:href="#DejaVuSans-32" transform="translate(95.410156 0)"/>
       <use xlink:href="#DejaVuSans-35" transform="translate(159.033203 0)"/>
      </g>
     </g>
    </g>
    <g id="xtick_3">
     <g id="line2d_3">
      <path d="M 146.88093 307.584 
L 146.88093 41.472 
" clip-path="url(#p707ca8b382)" style="fill: none; stroke: #000000; stroke-opacity: 0.3; stroke-width: 0.8; stroke-linecap: square"/>
     </g>
     <g id="text_3">
      <!-- 0.50 -->
      <g style="fill: #333333" transform="translate(135.748118 322.182437) scale(0.1 -0.1)">
       <use xlink:href="#DejaVuSans-30"/>
       <use xlink:href="#DejaVuSans-2e" transform="translate(63.623047 0)"/>
       <use xlink:href="#DejaVuSans-35" transform="translate(95.410156 0)"/>
       <use xlink:href="#DejaVuSans-30" transform="translate(159.033203 0)"/>
      </g>
     </g>
    </g>
    <g id="xtick_4">
     <g id="line2d_4">
      <path d="M 191.521395 307.584 
L 191.521395 41.472 
" clip-path="url(#p707ca8b382)" style="fill: none; stroke: #000000; stroke-opacity: 0.3; stroke-width: 0.8; stroke-linecap: square"/>
     </g>
     <g id="text_4">
      <!-- 0.75 -->
      <g style="fill: #333333" transform="translate(180.388583 322.182437) scale(0.1 -0.1)">
       <defs>
        <path id="DejaVuSans-37" d="M 525 4666 
L 3525 4666 
L 3525 4397 
L 1831 0 
L 1172 0 
L 2766 4134 
L 525 4134 
L 525 4666 
z
" transform="scale(0.015625)"/>
       </defs>
       <use xlink:href="#DejaVuSans-30"/>
       <use xlink:href="#DejaVuSans-2e" transform="translate(63.623047 0)"/>
       <use xlink:href="#DejaVuSans-37" transform="translate(95.410156 0)"/>
       <use xlink:href="#DejaVuSans-35" transform="translate(159.033203 0)"/>
      </g>
     </g>
    </g>
    <g id="xtick_5">
     <g id="line2d_5">
      <path d="M 236.16186 307.584 
L 236.16186 41.472 
" clip-path="url(#p707ca8b382)" style="fill: none; stroke: #000000; stroke-opacity: 0.3; stroke-width: 0.8; stroke-linecap: square"/>
     </g>
     <g id="text_5">
      <!-- 1.00 -->
      <g style="fill: #333333" transform="translate(225.029048 322.182437) scale(0.1 -0.1)">
       <defs>
        <path id="DejaVuSans-31" d="M 794 531 
L 1825 531 
L 1825 4091 
L 703 3866 
L 703 4441 
L 1819 4666 
L 2450 4666 
L 2450 531 
L 3481 531 
L 3481 0 
L 794 0 
L 794 531 
z
" transform="scale(0.015625)"/>
       </defs>
       <use xlink:href="#DejaVuSans-31"/>
       <use xlink:href="#DejaVuSans-2e" transform="translate(63.623047 0)"/>
       <use xlink:href="#DejaVuSans-30" transform="translate(95.410156 0)"/>
       <use xlink:href="#DejaVuSans-30" transform="translate(159.033203 0)"/>
      </g>
     </g>
    </g>
    <g id="xtick_6">
     <g id="line2d_6">
      <path d="M 280.802325 307.584 
L 280.802325 41.472 
" clip-path="url(#p707ca8b382)" style="fill: none; stroke: #000000; stroke-opacity: 0.3; stroke-width: 0.8; stroke-linecap: square"/>
     </g>
     <g id="text_6">
      <!-- 1.25 -->
      <g style="fill: #333333" transform="translate(269.669513 322.182437) scale(0.1 -0.1)">
       <use xlink:href="#DejaVuSans-31"/>
       <use xlink:href="#DejaVuSans-2e" transform="translate(63.623047 0)"/>
       <use xlink:href="#DejaVuSans-32" transform="translate(95.410156 0)"/>
       <use xlink:href="#DejaVuSans-35" transform="translate(159.033203 0)"/>
      </g>
     </g>
    </g>
    <g id="xtick_7">
     <g id="line2d_7">
      <path d="M 325.44279 307.584 
L 325.44279 41.472 
" clip-path="url(#p707ca8b382)" style="fill: none; stroke: #000000; stroke-opacity: 0.3; stroke-width: 0.8; stroke-linecap: square"/>
     </g>
     <g id="text_7">
      <!-- 1.50 -->
      <g style="fill: #333333" transform="translate(314.309978 322.182437) scale(0.1 -0.1)">
       <use xlink:href="#DejaVuSans-31"/>
       <use xlink:href="#DejaVuSans-2e" transform="translate(63.623047 0)"/>
       <use xlink:href="#DejaVuSans-35" transform="translate(95.410156 0)"/>
       <use xlink:href="#DejaVuSans-30" transform="translate(159.033203 0)"/>
      </g>
     </g>
    </g>
    <g id="xtick_8">
     <g id="line2d_8">
      <path d="M 370.083255 307.584 
L 370.083255 41.472 
" clip-path="url(#p707ca8b382)" style="fill: none; stroke: #000000; stroke-opacity: 0.3; stroke-width: 0.8; stroke-linecap: square"/>
     </g>
     <g id="text_8">
      <!-- 1.75 -->
      <g style="fill: #333333" transform="translate(358.950443 322.182437) scale(0.1 -0.1)">
       <use xlink:href="#DejaVuSans-31"/>
       <use xlink:href="#DejaVuSans-2e" transform="translate(63.623047 0)"/>
       <use xlink:href="#DejaVuSans-37" transform="translate(95.410156 0)"/>
       <use xlink:href="#DejaVuSans-35" transform="translate(159.033203 0)"/>
      </g>
     </g>
    </g>
    <g id="text_9">
     <!-- seconds -->
     <g style="fill: #333333" transform="translate(215.7225 335.860562) scale(0.1 -0.1)">
      <defs>
       <path id="DejaVuSans-73" d="M 2834 3397 
L 2834 2853 
Q 2591 2978 2328 3040 
Q 2066 3103 1784 3103 
Q 1356 3103 1142 2972 
Q 928 2841 928 2578 
Q 928 2378 1081 2264 
Q 1234 2150 1697 2047 
L 1894 2003 
Q 2506 1872 2764 1633 
Q 3022 1394 3022 966 
Q 3022 478 2636 193 
Q 2250 -91 1575 -91 
Q 1294 -91 989 -36 
Q 684 19 347 128 
L 347 722 
Q 666 556 975 473 
Q 1284 391 1588 391 
Q 1994 391 2212 530 
Q 2431 669 2431 922 
Q 2431 1156 2273 1281 
Q 2116 1406 1581 1522 
L 1381 1569 
Q 847 1681 609 1914 
Q 372 2147 372 2553 
Q 372 3047 722 3315 
Q 1072 3584 1716 3584 
Q 2034 3584 2315 3537 
Q 2597 3491 2834 3397 
z
" transform="scale(0.015625)"/>
       <path id="DejaVuSans-65" d="M 3597 1894 
L 3597 1613 
L 953 1613 
Q 991 1019 1311 708 
Q 1631 397 2203 397 
Q 2534 397 2845 478 
Q 3156 559 3463 722 
L 3463 178 
Q 3153 47 2828 -22 
Q 2503 -91 2169 -91 
Q 1331 -91 842 396 
Q 353 884 353 1716 
Q 353 2575 817 3079 
Q 1281 3584 2069 3584 
Q 2775 3584 3186 3129 
Q 3597 2675 3597 1894 
z
M 3022 2063 
Q 3016 2534 2758 2815 
Q 2500 3097 2075 3097 
Q 1594 3097 1305 2825 
Q 1016 2553 972 2059 
L 3022 2063 
z
" transform="scale(0.015625)"/>
       <path id="DejaVuSans-63" d="M 3122 3366 
L 3122 2828 
Q 2878 2963 2633 3030 
Q 2388 3097 2138 3097 
Q 1578 3097 1268 2742 
Q 959 2388 959 1747 
Q 959 1106 1268 751 
Q 1578 397 2138 397 
Q 2388 397 2633 464 
Q 2878 531 3122 666 
L 3122 134 
Q 2881 22 2623 -34 
Q 2366 -91 2075 -91 
Q 1284 -91 818 406 
Q 353 903 353 1747 
Q 353 2603 823 3093 
Q 1294 3584 2113 3584 
Q 2378 3584 2631 3529 
Q 2884 3475 3122 3366 
z
" transform="scale(0.015625)"/>
       <path id="DejaVuSans-6f" d="M 1959 3097 
Q 1497 3097 1228 2736 
Q 959 2375 959 1747 
Q 959 1119 1226 758 
Q 1494 397 1959 397 
Q 2419 397 2687 759 
Q 2956 1122 2956 1747 
Q 2956 2369 2687 2733 
Q 2419 3097 1959 3097 
z
M 1959 3584 
Q 2709 3584 3137 3096 
Q 3566 2609 3566 1747 
Q 3566 888 3137 398 
Q 2709 -91 1959 -91 
Q 1206 -91 779 398 
Q 353 888 353 1747 
Q 353 2609 779 3096 
Q 1206 3584 1959 3584 
z
" transform="scale(0.015625)"/>
       <path id="DejaVuSans-6e" d="M 3513 2113 
L 3513 0 
L 2938 0 
L 2938 2094 
Q 2938 2591 2744 2837 
Q 2550 3084 2163 3084 
Q 1697 3084 1428 2787 
Q 1159 2491 1159 1978 
L 1159 0 
L 581 0 
L 581 3500 
L 1159 3500 
L 1159 2956 
Q 1366 3272 1645 3428 
Q 1925 3584 2291 3584 
Q 2894 3584 3203 3211 
Q 3513 2838 3513 2113 
z
" transform="scale(0.015625)"/>
       <path id="DejaVuSans-64" d="M 2906 2969 
L 2906 4863 
L 3481 4863 
L 3481 0 
L 2906 0 
L 2906 525 
Q 2725 213 2448 61 
Q 2172 -91 1784 -91 
Q 1150 -91 751 415 
Q 353 922 353 1747 
Q 353 2572 751 3078 
Q 1150 3584 1784 3584 
Q 2172 3584 2448 3432 
Q 2725 3281 2906 2969 
z
M 947 1747 
Q 947 1113 1208 752 
Q 1469 391 1925 391 
Q 2381 391 2643 752 
Q 2906 1113 2906 1747 
Q 2906 2381 2643 2742 
Q 2381 3103 1925 3103 
Q 1469 3103 1208 2742 
Q 947 2381 947 1747 
z
" transform="scale(0.015625)"/>
      </defs>
      <use xlink:href="#DejaVuSans-73"/>
      <use xlink:href="#DejaVuSans-65" transform="translate(52.099609 0)"/>
      <use xlink:href="#DejaVuSans-63" transform="translate(113.623047 0)"/>
      <use xlink:href="#DejaVuSans-6f" transform="translate(168.603516 0)"/>
      <use xlink:href="#DejaVuSans-6e" transform="translate(229.785156 0)"/>
      <use xlink:href="#DejaVuSans-64" transform="translate(293.164062 0)"/>
      <use xlink:href="#DejaVuSans-73" transform="translate(356.640625 0)"/>
     </g>
    </g>
   </g>
   <g id="matplotlib.axis_2">
    <g id="ytick_1">
     <g id="line2d_9">
      <path d="M 57.6 307.584 
L 414.72 307.584 
" clip-path="url(#p707ca8b382)" style="fill: none; stroke: #000000; stroke-opacity: 0.3; stroke-width: 0.8; stroke-linecap: square"/>
     </g>
     <g id="text_10">
      <!-- −200 -->
      <g style="fill: #333333" transform="translate(23.132812 311.383219) scale(0.1 -0.1)">
       <defs>
        <path id="DejaVuSans-2212" d="M 678 2272 
L 4684 2272 
L 4684 1741 
L 678 1741 
L 678 2272 
z
" transform="scale(0.015625)"/>
       </defs>
       <use xlink:href="#DejaVuSans-2212"/>
       <use xlink:href="#DejaVuSans-32" transform="translate(83.789062 0)"/>
       <use xlink:href="#DejaVuSans-30" transform="translate(147.412109 0)"/>
       <use xlink:href="#DejaVuSans-30" transform="translate(211.035156 0)"/>
      </g>
     </g>
    </g>
    <g id="ytick_2">
     <g id="line2d_10">
      <path d="M 57.6 274.32 
L 414.72 274.32 
" clip-path="url(#p707ca8b382)" style="fill: none; stroke: #000000; stroke-opacity: 0.3; stroke-width: 0.8; stroke-linecap: square"/>
     </g>
     <g id="text_11">
      <!-- −175 -->
      <g style="fill: #333333" transform="translate(23.132812 278.119219) scale(0.1 -0.1)">
       <use xlink:href="#DejaVuSans-2212"/>
       <use xlink:href="#DejaVuSans-31" transform="translate(83.789062 0)"/>
       <use xlink:href="#DejaVuSans-37" transform="translate(147.412109 0)"/>
       <use xlink:href="#DejaVuSans-35" transform="translate(211.035156 0)"/>
      </g>
     </g>
    </g>
    <g id="ytick_3">
     <g id="line2d_11">
      <path d="M 57.6 241.056 
L 414.72 241.056 
" clip-path="url(#p707ca8b382)" style="fill: none; stroke: #000000; stroke-opacity: 0.3; stroke-width: 0.8; stroke-linecap: square"/>
     </g>
     <g id="text_12">
      <!-- −150 -->
      <g style="fill: #333333" transform="translate(23.132812 244.855219) scale(0.1 -0.1)">
       <use xlink:href="#DejaVuSans-2212"/>
       <use xlink:href="#DejaVuSans-31" transform="translate(83.789062 0)"/>
       <use xlink:href="#DejaVuSans-35" transform="translate(147.412109 0)"/>
       <use xlink:href="#DejaVuSans-30" transform="translate(211.035156 0)"/>
      </g>
     </g>
    </g>
    <g id="ytick_4">
     <g id="line2d_12">
      <path d="M 57.6 207.792 
L 414.72 207.792 
" clip-path="url(#p707ca8b382)" style="fill: none; stroke: #000000; stroke-opacity: 0.3; stroke-width: 0.8; stroke-linecap: square"/>
     </g>
     <g id="text_13">
      <!-- −125 -->
      <g style="fill: #333333" transform="translate(23.132812 211.591219) scale(0.1 -0.1)">
       <use xlink:href="#DejaVuSans-2212"/>
       <use xlink:href="#DejaVuSans-31" transform="translate(83.789062 0)"/>
       <use xlink:href="#DejaVuSans-32" transform="translate(147.412109 0)"/>
       <use xlink:href="#DejaVuSans-35" transform="translate(211.035156 0)"/>
      </g>
     </g>
    </g>
    <g id="ytick_5">
     <g id="line2d_13">
      <path d="M 57.6 174.528 
L 414.72 174.528 
" clip-path="url(#p707ca8b382)" style="fill: none; stroke: #000000; stroke-opacity: 0.3; stroke-width: 0.8; stroke-linecap: square"/>
     </g>
     <g id="text_14">
      <!-- −100 -->
      <g style="fill: #333333" transform="translate(23.132812 178.327219) scale(0.1 -0.1)">
       <use xlink:href="#DejaVuSans-2212"/>
       <use xlink:href="#DejaVuSans-31" transform="translate(83.789062 0)"/>
       <use xlink:href="#DejaVuSans-30" transform="translate(147.412109 0)"/>
       <use xlink:href="#DejaVuSans-30" transform="translate(211.035156 0)"/>
      </g>
     </g>
    </g>
    <g id="ytick_6">
     <g id="line2d_14">
      <path d="M 57.6 141.264 
L 414.72 141.264 
" clip-path="url(#p707ca8b382)" style="fill: none; stroke: #000000; stroke-opacity: 0.3; stroke-width: 0.8; stroke-linecap: square"/>
     </g>
     <g id="text_15">
      <!-- −75 -->
      <g style="fill: #333333" transform="translate(29.495313 145.063219) scale(0.1 -0.1)">
       <use xlink:href="#DejaVuSans-2212"/>
       <use xlink:href="#DejaVuSans-37" transform="translate(83.789062 0)"/>
       <use xlink:href="#DejaVuSans-35" transform="translate(147.412109 0)"/>
      </g>
     </g>
    </g>
    <g id="ytick_7">
     <g id="line2d_15">
      <path d="M 57.6 108 
L 414.72 108 
" clip-path="url(#p707ca8b382)" style="fill: none; stroke: #000000; stroke-opacity: 0.3; stroke-width: 0.8; stroke-linecap: square"/>
     </g>
     <g id="text_16">
      <!-- −50 -->
      <g style="fill: #333333" transform="translate(29.495313 111.799219) scale(0.1 -0.1)">
       <use xlink:href="#DejaVuSans-2212"/>
       <use xlink:href="#DejaVuSans-35" transform="translate(83.789062 0)"/>
       <use xlink:href="#DejaVuSans-30" transform="translate(147.412109 0)"/>
      </g>
     </g>
    </g>
    <g id="ytick_8">
     <g id="line2d_16">
      <path d="M 57.6 74.736 
L 414.72 74.736 
" clip-path="url(#p707ca8b382)" style="fill: none; stroke: #000000; stroke-opacity: 0.3; stroke-width: 0.8; stroke-linecap: square"/>
     </g>
     <g id="text_17">
      <!-- −25 -->
      <g style="fill: #333333" transform="translate(29.495313 78.535219) scale(0.1 -0.1)">
       <use xlink:href="#DejaVuSans-2212"/>
       <use xlink:href="#DejaVuSans-32" transform="translate(83.789062 0)"/>
       <use xlink:href="#DejaVuSans-35" transform="translate(147.412109 0)"/>
      </g>
     </g>
    </g>
    <g id="ytick_9">
     <g id="line2d_17">
      <path d="M 57.6 41.472 
L 414.72 41.472 
" clip-path="url(#p707ca8b382)" style="fill: none; stroke: #000000; stroke-opacity: 0.3; stroke-width: 0.8; stroke-linecap: square"/>
     </g>
     <g id="text_18">
      <!-- 0 -->
      <g style="fill: #333333" transform="translate(44.2375 45.271219) scale(0.1 -0.1)">
       <use xlink:href="#DejaVuSans-30"/>
      </g>
     </g>
    </g>
    <g id="text_19">
     <!-- Amplitude in dB -->
     <g style="fill: #333333" transform="translate(17.053125 214.491281) rotate(-90) scale(0.1 -0.1)">
      <defs>
       <path id="DejaVuSans-41" d="M 2188 4044 
L 1331 1722 
L 3047 1722 
L 2188 4044 
z
M 1831 4666 
L 2547 4666 
L 4325 0 
L 3669 0 
L 3244 1197 
L 1141 1197 
L 716 0 
L 50 0 
L 1831 4666 
z
" transform="scale(0.015625)"/>
       <path id="DejaVuSans-6d" d="M 3328 2828 
Q 3544 3216 3844 3400 
Q 4144 3584 4550 3584 
Q 5097 3584 5394 3201 
Q 5691 2819 5691 2113 
L 5691 0 
L 5113 0 
L 5113 2094 
Q 5113 2597 4934 2840 
Q 4756 3084 4391 3084 
Q 3944 3084 3684 2787 
Q 3425 2491 3425 1978 
L 3425 0 
L 2847 0 
L 2847 2094 
Q 2847 2600 2669 2842 
Q 2491 3084 2119 3084 
Q 1678 3084 1418 2786 
Q 1159 2488 1159 1978 
L 1159 0 
L 581 0 
L 581 3500 
L 1159 3500 
L 1159 2956 
Q 1356 3278 1631 3431 
Q 1906 3584 2284 3584 
Q 2666 3584 2933 3390 
Q 3200 3197 3328 2828 
z
" transform="scale(0.015625)"/>
       <path id="DejaVuSans-70" d="M 1159 525 
L 1159 -1331 
L 581 -1331 
L 581 3500 
L 1159 3500 
L 1159 2969 
Q 1341 3281 1617 3432 
Q 1894 3584 2278 3584 
Q 2916 3584 3314 3078 
Q 3713 2572 3713 1747 
Q 3713 922 3314 415 
Q 2916 -91 2278 -91 
Q 1894 -91 1617 61 
Q 1341 213 1159 525 
z
M 3116 1747 
Q 3116 2381 2855 2742 
Q 2594 3103 2138 3103 
Q 1681 3103 1420 2742 
Q 1159 2381 1159 1747 
Q 1159 1113 1420 752 
Q 1681 391 2138 391 
Q 2594 391 2855 752 
Q 3116 1113 3116 1747 
z
" transform="scale(0.015625)"/>
       <path id="DejaVuSans-6c" d="M 603 4863 
L 1178 4863 
L 1178 0 
L 603 0 
L 603 4863 
z
" transform="scale(0.015625)"/>
       <path id="DejaVuSans-69" d="M 603 3500 
L 1178 3500 
L 1178 0 
L 603 0 
L 603 3500 
z
M 603 4863 
L 1178 4863 
L 1178 4134 
L 603 4134 
L 603 4863 
z
" transform="scale(0.015625)"/>
       <path id="DejaVuSans-74" d="M 1172 4494 
L 1172 3500 
L 2356 3500 
L 2356 3053 
L 1172 3053 
L 1172 1153 
Q 1172 725 1289 603 
Q 1406 481 1766 481 
L 2356 481 
L 2356 0 
L 1766 0 
Q 1100 0 847 248 
Q 594 497 594 1153 
L 594 3053 
L 172 3053 
L 172 3500 
L 594 3500 
L 594 4494 
L 1172 4494 
z
" transform="scale(0.015625)"/>
       <path id="DejaVuSans-75" d="M 544 1381 
L 544 3500 
L 1119 3500 
L 1119 1403 
Q 1119 906 1312 657 
Q 1506 409 1894 409 
Q 2359 409 2629 706 
Q 2900 1003 2900 1516 
L 2900 3500 
L 3475 3500 
L 3475 0 
L 2900 0 
L 2900 538 
Q 2691 219 2414 64 
Q 2138 -91 1772 -91 
Q 1169 -91 856 284 
Q 544 659 544 1381 
z
M 1991 3584 
L 1991 3584 
z
" transform="scale(0.015625)"/>
       <path id="DejaVuSans-20" transform="scale(0.015625)"/>
       <path id="DejaVuSans-42" d="M 1259 2228 
L 1259 519 
L 2272 519 
Q 2781 519 3026 730 
Q 3272 941 3272 1375 
Q 3272 1813 3026 2020 
Q 2781 2228 2272 2228 
L 1259 2228 
z
M 1259 4147 
L 1259 2741 
L 2194 2741 
Q 2656 2741 2882 2914 
Q 3109 3088 3109 3444 
Q 3109 3797 2882 3972 
Q 2656 4147 2194 4147 
L 1259 4147 
z
M 628 4666 
L 2241 4666 
Q 2963 4666 3353 4366 
Q 3744 4066 3744 3513 
Q 3744 3084 3544 2831 
Q 3344 2578 2956 2516 
Q 3422 2416 3680 2098 
Q 3938 1781 3938 1306 
Q 3938 681 3513 340 
Q 3088 0 2303 0 
L 628 0 
L 628 4666 
z
" transform="scale(0.015625)"/>
      </defs>
      <use xlink:href="#DejaVuSans-41"/>
      <use xlink:href="#DejaVuSans-6d" transform="translate(68.408203 0)"/>
      <use xlink:href="#DejaVuSans-70" transform="translate(165.820312 0)"/>
      <use xlink:href="#DejaVuSans-6c" transform="translate(229.296875 0)"/>
      <use xlink:href="#DejaVuSans-69" transform="translate(257.080078 0)"/>
      <use xlink:href="#DejaVuSans-74" transform="translate(284.863281 0)"/>
      <use xlink:href="#DejaVuSans-75" transform="translate(324.072266 0)"/>
      <use xlink:href="#DejaVuSans-64" transform="translate(387.451172 0)"/>
      <use xlink:href="#DejaVuSans-65" transform="translate(450.927734 0)"/>
      <use xlink:href="#DejaVuSans-20" transform="translate(512.451172 0)"/>
      <use xlink:href="#DejaVuSans-69" transform="translate(544.238281 0)"/>
      <use xlink:href="#DejaVuSans-6e" transform="translate(572.021484 0)"/>
      <use xlink:href="#DejaVuSans-20" transform="translate(635.400391 0)"/>
      <use xlink:href="#DejaVuSans-64" transform="translate(667.1875 0)"/>
      <use xlink:href="#DejaVuSans-42" transform="translate(730.664062 0)"/>
     </g>
    </g>
   </g>
   <g id="line2d_18">
    <path d="M 59.585739 346.6 
L 59.694382 249.752005 
L 59.768783 249.752005 
L 59.772503 79.084581 
L 59.876664 249.752005 
L 59.943624 249.752005 
L 59.947344 78.133131 
L 60.051506 249.752005 
L 60.163107 249.752005 
L 60.166827 79.723839 
L 60.270988 87.825928 
L 60.382589 249.752005 
L 60.43467 249.752005 
L 60.52767 83.830997 
L 60.542551 249.752005 
L 60.594631 249.752005 
L 60.598351 86.206795 
L 60.702512 249.752005 
L 60.717392 249.752005 
L 60.765753 83.294558 
L 60.825274 90.632114 
L 60.832714 89.553253 
L 60.936875 249.752005 
L 60.944315 249.752005 
L 61.014996 89.844554 
L 61.052196 249.752005 
L 61.081956 249.752005 
L 61.156357 88.263261 
L 61.189837 249.752005 
L 61.197277 249.752005 
L 61.200998 87.395298 
L 61.308879 91.757372 
L 61.346079 89.663327 
L 61.42048 249.752005 
L 61.44652 84.61877 
L 61.532081 97.650035 
L 61.584162 95.266945 
L 61.643682 249.752005 
L 61.684603 89.638768 
L 61.755283 96.67567 
L 61.759003 100.049551 
L 61.807364 87.090117 
L 61.870604 249.752005 
L 61.878045 249.752005 
L 61.889205 89.148321 
L 61.985926 98.875558 
L 62.086367 249.752005 
L 62.034286 92.924158 
L 62.093807 107.18558 
L 62.104967 92.455877 
L 62.101247 249.752005 
L 62.168208 96.402195 
L 62.257489 93.607865 
L 62.276089 249.752005 
L 62.324449 91.294784 
L 62.38769 111.414385 
L 62.40257 93.930649 
L 62.39513 249.752005 
L 62.484411 106.912471 
L 62.503011 95.789306 
L 62.592292 249.752005 
L 62.655533 96.361388 
L 62.700173 96.906976 
L 62.785734 249.752005 
L 62.796894 94.568254 
L 62.808054 106.933429 
L 62.901055 249.752005 
L 62.860135 94.504642 
L 62.915935 105.941885 
L 62.945696 96.175242 
L 62.930816 121.243185 
L 62.960576 96.627578 
L 63.001496 249.752005 
L 63.031257 95.088798 
L 63.068457 106.770895 
L 63.075897 98.390452 
L 63.098217 105.987273 
L 63.101937 249.752005 
L 63.120538 94.370795 
L 63.206098 100.536553 
L 63.291659 98.25634 
L 63.280499 114.420063 
L 63.299099 98.916663 
L 63.35862 249.752005 
L 63.34002 96.559234 
L 63.410701 105.54529 
L 63.473941 95.979927 
L 63.511142 109.931926 
L 63.522302 102.924709 
L 63.566942 112.773684 
L 63.552062 98.814781 
L 63.630183 102.351139 
L 63.693423 99.139144 
L 63.697144 112.099752 
L 63.734344 101.516575 
L 63.738064 111.93716 
L 63.838505 96.489304 
L 63.842225 103.710103 
L 63.924066 97.881275 
L 63.875705 110.712029 
L 63.950106 102.620605 
L 64.050547 108.74495 
L 64.039387 97.907813 
L 64.061707 106.818255 
L 64.069147 99.078314 
L 64.173308 102.221451 
L 64.247709 99.105324 
L 64.210509 106.296177 
L 64.266309 101.718368 
L 64.34071 99.698177 
L 64.377911 108.525235 
L 64.385351 99.062085 
L 64.489512 102.196665 
L 64.515552 108.865122 
L 64.519272 98.806427 
L 64.589953 102.465661 
L 64.593673 99.697797 
L 64.660634 108.044979 
L 64.697834 101.609148 
L 64.783395 106.516713 
L 64.746194 101.287569 
L 64.813155 103.271932 
L 64.857796 100.151236 
L 64.839195 107.617837 
L 64.924756 102.851366 
L 65.025197 106.610147 
L 64.935916 101.357968 
L 65.040078 103.898006 
L 65.043798 101.337034 
L 65.069838 107.130551 
L 65.151679 101.420373 
L 65.25584 107.501212 
L 65.25956 100.251254 
L 65.26328 102.456591 
L 65.27072 106.825299 
L 65.31536 102.122884 
L 65.378601 104.899619 
L 65.397201 100.708897 
L 65.393481 106.059796 
L 65.490202 104.369391 
L 65.497642 106.611716 
L 65.594363 102.337075 
L 65.672484 106.759651 
L 65.605523 100.444442 
L 65.705964 103.758921 
L 65.713405 103.571593 
L 65.717125 104.387085 
L 65.750605 106.635572 
L 65.806405 102.111969 
L 65.821286 104.922583 
L 65.914287 102.873032 
L 65.836166 106.321446 
L 65.932887 104.266523 
L 65.936607 106.695659 
L 65.992407 102.275769 
L 66.040768 104.204605 
L 66.077968 102.954362 
L 66.130049 106.133228 
L 66.141209 104.05456 
L 66.144929 107.479618 
L 66.20817 102.779453 
L 66.25281 104.986763 
L 66.26025 103.144957 
L 66.334651 106.251427 
L 66.360691 103.393088 
L 66.457412 103.106849 
L 66.476012 106.317142 
L 66.483453 103.275751 
L 66.587614 106.002718 
L 66.624814 103.631224 
L 66.658294 106.505509 
L 66.695495 105.575579 
L 66.714095 106.39452 
L 66.710375 103.890992 
L 66.795936 105.099329 
L 66.866617 103.804082 
L 66.836856 106.041566 
L 66.903817 105.644505 
L 66.929857 103.211747 
L 66.933577 106.411866 
L 67.015418 104.720569 
L 67.056339 107.830664 
L 67.112139 104.301042 
L 67.123299 104.676779 
L 67.127019 103.898935 
L 67.130739 106.789232 
L 67.22746 105.095317 
L 67.327901 106.628002 
L 67.272101 104.260305 
L 67.339061 105.468678 
L 67.350222 106.309756 
L 67.428342 104.588915 
L 67.454383 106.094377 
L 67.480423 104.241972 
L 67.495303 106.434523 
L 67.565984 105.75951 
L 67.629224 106.534931 
L 67.577144 105.12752 
L 67.673865 105.781685 
L 67.722225 105.159831 
L 67.740826 106.599543 
L 67.778026 105.505126 
L 67.781746 106.610008 
L 67.792906 105.162694 
L 67.885907 106.206566 
L 67.982628 105.205082 
L 67.990068 106.551878 
L 67.997508 105.370387 
L 68.105389 107.087756 
L 68.023549 105.142772 
L 68.109109 105.772977 
L 68.17607 107.183632 
L 68.18351 105.408732 
L 68.224431 106.88215 
L 68.235591 105.405084 
L 68.254191 107.049342 
L 68.339752 106.338438 
L 68.391832 105.389982 
L 68.365792 106.910162 
L 68.443913 106.283698 
L 68.507154 107.333179 
L 68.488553 105.728971 
L 68.555514 106.693395 
L 68.600155 105.707375 
L 68.603875 106.918781 
L 68.667115 106.589383 
L 68.696876 106.935099 
L 68.674555 106.203998 
L 68.700596 106.62117 
L 68.737796 106.125214 
L 68.745236 107.401713 
L 68.804757 106.261188 
L 68.886598 107.177 
L 68.834517 105.940443 
L 68.916358 107.139103 
L 68.987039 106.221513 
L 68.983319 107.237177 
L 69.027959 107.048905 
L 69.039119 106.256698 
L 69.053999 107.330389 
L 69.13584 106.904697 
L 69.217681 107.51757 
L 69.180481 106.377696 
L 69.240001 106.982576 
L 69.303242 106.671537 
L 69.310682 107.481239 
L 69.351602 106.774154 
L 69.355322 106.789057 
L 69.359042 107.598964 
L 69.366483 106.754911 
L 69.466924 107.108379 
L 69.556205 106.73988 
L 69.500404 107.519652 
L 69.559925 107.20607 
L 69.623165 107.676411 
L 69.582245 106.994639 
L 69.671526 107.421149 
L 69.719886 107.85799 
L 69.697566 107.044261 
L 69.723606 107.478313 
L 69.794287 107.111674 
L 69.771967 107.806112 
L 69.827767 107.3222 
L 69.924488 108.02076 
L 69.902168 107.212266 
L 69.939369 107.473171 
L 70.017489 107.865342 
L 69.950529 107.242981 
L 70.05097 107.686459 
L 70.05841 107.243773 
L 70.136531 108.085561 
L 70.158851 107.359297 
L 70.274172 108.096317 
L 70.363453 107.602193 
L 70.333693 108.197046 
L 70.382053 108.133851 
L 70.404373 107.701721 
L 70.445294 108.243157 
L 70.489934 107.964641 
L 70.571775 108.388747 
L 70.515975 107.769903 
L 70.601535 108.069031 
L 70.642456 107.86744 
L 70.690816 108.408471 
L 70.713137 108.054766 
L 70.776377 108.597528 
L 70.768937 108.042911 
L 70.847058 108.377806 
L 70.861938 108.084451 
L 70.887978 108.633159 
L 70.936339 108.483282 
L 71.01446 108.733989 
L 71.0219 108.203765 
L 71.04422 108.702228 
L 71.07026 108.386572 
L 71.152101 108.73141 
L 71.155821 108.563297 
L 71.248822 108.831817 
L 71.211622 108.454168 
L 71.267422 108.626631 
L 71.312063 108.473463 
L 71.293463 108.932765 
L 71.367863 108.719268 
L 71.390184 109.086499 
L 71.397624 108.486207 
L 71.483185 109.064659 
L 71.520385 108.727109 
L 71.594786 109.039387 
L 71.695227 109.305325 
L 71.617106 108.750702 
L 71.702667 109.133083 
L 71.710107 108.900197 
L 71.799388 109.291373 
L 71.810548 109.099025 
L 71.892389 109.311803 
L 71.825428 108.951389 
L 71.925869 109.272183 
L 71.929589 109.109196 
L 72.00399 109.433843 
L 72.03375 109.282034 
L 72.096991 109.60204 
L 72.074671 109.224248 
L 72.149072 109.430422 
L 72.189992 109.270932 
L 72.249513 109.642843 
L 72.253233 109.465211 
L 72.346234 109.70544 
L 72.275553 109.383289 
L 72.364834 109.662073 
L 72.368554 109.496027 
L 72.446675 109.804844 
L 72.472715 109.604069 
L 72.573156 109.877089 
L 72.584316 109.716069 
L 72.588036 109.712143 
L 72.591756 109.792272 
L 72.595476 109.78901 
L 72.632677 109.680282 
L 72.710797 110.021445 
L 72.736838 109.826416 
L 72.818679 110.101338 
L 72.840999 109.887331 
L 72.91912 110.207378 
L 72.92656 110.078742 
L 72.94516 110.00267 
L 73.071641 110.264311 
L 73.079081 110.139916 
L 73.168362 110.350261 
L 73.179522 110.279317 
L 73.253923 110.450748 
L 73.186962 110.236457 
L 73.298564 110.403495 
L 73.343204 110.344908 
L 73.358084 110.562065 
L 73.395285 110.434138 
L 73.428765 110.41351 
L 73.518046 110.673683 
L 73.596167 110.546643 
L 73.611047 110.7238 
L 73.625927 110.690474 
L 73.778449 110.866655 
L 73.633367 110.632323 
L 73.793329 110.812677 
L 73.89377 110.949091 
L 73.804489 110.770715 
L 73.90493 110.918872 
L 73.90865 110.852329 
L 74.005371 111.028741 
L 74.009091 111.012138 
L 74.016531 111.056605 
L 74.105812 111.034991 
L 74.224853 111.228199 
L 74.247173 111.126385 
L 74.269494 111.274097 
L 74.317854 111.229702 
L 74.410855 111.379423 
L 74.329014 111.226934 
L 74.433175 111.353846 
L 74.656378 111.568162 
L 74.455496 111.310235 
L 74.660098 111.501739 
L 74.663818 111.450904 
L 74.741939 111.637397 
L 74.760539 111.603378 
L 74.801459 111.596412 
L 74.8833 111.793272 
L 74.9019 111.668778 
L 74.980021 111.877202 
L 74.991181 111.823302 
L 75.061862 111.808614 
L 75.076742 111.948048 
L 75.091622 111.881554 
L 75.240424 112.057736 
L 75.110222 111.868996 
L 75.255304 112.028297 
L 75.259024 112.002091 
L 75.337145 112.151185 
L 75.352025 112.097277 
L 75.452466 112.242629 
L 75.370625 112.091317 
L 75.467346 112.171946 
L 75.686828 112.439669 
L 75.690548 112.412683 
L 75.694268 112.372896 
L 75.787269 112.502877 
L 75.790989 112.495243 
L 76.051392 112.732576 
L 75.81703 112.460631 
L 76.055112 112.695226 
L 76.058832 112.672056 
L 76.144393 112.812412 
L 76.148113 112.781868 
L 76.270874 112.896092 
L 76.174153 112.774515 
L 76.274595 112.862133 
L 76.278315 112.849633 
L 76.300635 112.946282 
L 76.348995 112.952938 
L 76.441996 113.069544 
L 76.360155 112.939917 
L 76.468037 113.039919 
L 77.420366 113.862787 
L 77.427807 113.845723 
L 77.498487 113.898014 
L 77.453847 113.911276 
L 77.502207 113.91018 
L 77.651009 114.061136 
L 77.658449 114.042996 
L 77.74773 114.121856 
L 77.889091 114.240939 
L 77.892811 114.235681 
L 77.956052 114.328449 
L 77.963492 114.32052 
L 78.194135 114.513908 
L 77.970932 114.313969 
L 78.197855 114.4984 
L 78.201575 114.49013 
L 78.268535 114.57166 
L 78.283415 114.577151 
L 84.544241 119.826254 
L 84.793483 120.038016 
L 86.787424 121.708907 
L 87.252429 122.099923 
L 87.709994 122.483089 
L 96.559966 129.907129 
L 99.993562 132.787487 
L 107.136036 138.779022 
L 145.969521 171.354562 
L 320.216136 317.665908 
L 324.557421 321.65054 
L 327.845935 324.966272 
L 330.706645 328.165154 
L 333.359032 331.465896 
L 335.907259 334.994886 
L 338.414565 338.851545 
L 340.918151 343.116062 
L 342.795 346.6 
L 342.795 346.6 
" clip-path="url(#p707ca8b382)" style="fill: none; stroke: #1471b9; stroke-width: 1.5; stroke-linecap: square"/>
   </g>
   <g id="patch_3">
    <path d="M 57.6 307.584 
L 57.6 41.472 
" style="fill: none; stroke: #333333; stroke-width: 0.8; stroke-linejoin: miter; stroke-linecap: square"/>
   </g>
   <g id="patch_4">
    <path d="M 414.72 307.584 
L 414.72 41.472 
" style="fill: none; stroke: #333333; stroke-width: 0.8; stroke-linejoin: miter; stroke-linecap: square"/>
   </g>
   <g id="patch_5">
    <path d="M 57.6 307.584 
L 414.72 307.584 
" style="fill: none; stroke: #333333; stroke-width: 0.8; stroke-linejoin: miter; stroke-linecap: square"/>
   </g>
   <g id="patch_6">
    <path d="M 57.6 41.472 
L 414.72 41.472 
" style="fill: none; stroke: #333333; stroke-width: 0.8; stroke-linejoin: miter; stroke-linecap: square"/>
   </g>
   <g id="legend_1">
    <g id="patch_7">
     <path d="M 188.004375 75.347938 
L 407.72 75.347938 
Q 409.72 75.347938 409.72 73.347938 
L 409.72 48.472 
Q 409.72 46.472 407.72 46.472 
L 188.004375 46.472 
Q 186.004375 46.472 186.004375 48.472 
L 186.004375 73.347938 
Q 186.004375 75.347938 188.004375 75.347938 
z
" style="fill: #ffffff; opacity: 0.8; stroke: #cccccc; stroke-linejoin: miter"/>
    </g>
    <g id="line2d_19">
     <path d="M 190.004375 61.209187 
L 200.004375 61.209187 
L 210.004375 61.209187 
" style="fill: none; stroke: #1471b9; stroke-width: 1.5; stroke-linecap: square"/>
    </g>
    <g id="text_20">
     <!-- Histogram of room with size 4x5x3 m -->
     <g transform="translate(218.004375 58.070437) scale(0.1 -0.1)">
      <defs>
       <path id="DejaVuSans-48" d="M 628 4666 
L 1259 4666 
L 1259 2753 
L 3553 2753 
L 3553 4666 
L 4184 4666 
L 4184 0 
L 3553 0 
L 3553 2222 
L 1259 2222 
L 1259 0 
L 628 0 
L 628 4666 
z
" transform="scale(0.015625)"/>
       <path id="DejaVuSans-67" d="M 2906 1791 
Q 2906 2416 2648 2759 
Q 2391 3103 1925 3103 
Q 1463 3103 1205 2759 
Q 947 2416 947 1791 
Q 947 1169 1205 825 
Q 1463 481 1925 481 
Q 2391 481 2648 825 
Q 2906 1169 2906 1791 
z
M 3481 434 
Q 3481 -459 3084 -895 
Q 2688 -1331 1869 -1331 
Q 1566 -1331 1297 -1286 
Q 1028 -1241 775 -1147 
L 775 -588 
Q 1028 -725 1275 -790 
Q 1522 -856 1778 -856 
Q 2344 -856 2625 -561 
Q 2906 -266 2906 331 
L 2906 616 
Q 2728 306 2450 153 
Q 2172 0 1784 0 
Q 1141 0 747 490 
Q 353 981 353 1791 
Q 353 2603 747 3093 
Q 1141 3584 1784 3584 
Q 2172 3584 2450 3431 
Q 2728 3278 2906 2969 
L 2906 3500 
L 3481 3500 
L 3481 434 
z
" transform="scale(0.015625)"/>
       <path id="DejaVuSans-72" d="M 2631 2963 
Q 2534 3019 2420 3045 
Q 2306 3072 2169 3072 
Q 1681 3072 1420 2755 
Q 1159 2438 1159 1844 
L 1159 0 
L 581 0 
L 581 3500 
L 1159 3500 
L 1159 2956 
Q 1341 3275 1631 3429 
Q 1922 3584 2338 3584 
Q 2397 3584 2469 3576 
Q 2541 3569 2628 3553 
L 2631 2963 
z
" transform="scale(0.015625)"/>
       <path id="DejaVuSans-61" d="M 2194 1759 
Q 1497 1759 1228 1600 
Q 959 1441 959 1056 
Q 959 750 1161 570 
Q 1363 391 1709 391 
Q 2188 391 2477 730 
Q 2766 1069 2766 1631 
L 2766 1759 
L 2194 1759 
z
M 3341 1997 
L 3341 0 
L 2766 0 
L 2766 531 
Q 2569 213 2275 61 
Q 1981 -91 1556 -91 
Q 1019 -91 701 211 
Q 384 513 384 1019 
Q 384 1609 779 1909 
Q 1175 2209 1959 2209 
L 2766 2209 
L 2766 2266 
Q 2766 2663 2505 2880 
Q 2244 3097 1772 3097 
Q 1472 3097 1187 3025 
Q 903 2953 641 2809 
L 641 3341 
Q 956 3463 1253 3523 
Q 1550 3584 1831 3584 
Q 2591 3584 2966 3190 
Q 3341 2797 3341 1997 
z
" transform="scale(0.015625)"/>
       <path id="DejaVuSans-66" d="M 2375 4863 
L 2375 4384 
L 1825 4384 
Q 1516 4384 1395 4259 
Q 1275 4134 1275 3809 
L 1275 3500 
L 2222 3500 
L 2222 3053 
L 1275 3053 
L 1275 0 
L 697 0 
L 697 3053 
L 147 3053 
L 147 3500 
L 697 3500 
L 697 3744 
Q 697 4328 969 4595 
Q 1241 4863 1831 4863 
L 2375 4863 
z
" transform="scale(0.015625)"/>
       <path id="DejaVuSans-77" d="M 269 3500 
L 844 3500 
L 1563 769 
L 2278 3500 
L 2956 3500 
L 3675 769 
L 4391 3500 
L 4966 3500 
L 4050 0 
L 3372 0 
L 2619 2869 
L 1863 0 
L 1184 0 
L 269 3500 
z
" transform="scale(0.015625)"/>
       <path id="DejaVuSans-68" d="M 3513 2113 
L 3513 0 
L 2938 0 
L 2938 2094 
Q 2938 2591 2744 2837 
Q 2550 3084 2163 3084 
Q 1697 3084 1428 2787 
Q 1159 2491 1159 1978 
L 1159 0 
L 581 0 
L 581 4863 
L 1159 4863 
L 1159 2956 
Q 1366 3272 1645 3428 
Q 1925 3584 2291 3584 
Q 2894 3584 3203 3211 
Q 3513 2838 3513 2113 
z
" transform="scale(0.015625)"/>
       <path id="DejaVuSans-7a" d="M 353 3500 
L 3084 3500 
L 3084 2975 
L 922 459 
L 3084 459 
L 3084 0 
L 275 0 
L 275 525 
L 2438 3041 
L 353 3041 
L 353 3500 
z
" transform="scale(0.015625)"/>
       <path id="DejaVuSans-34" d="M 2419 4116 
L 825 1625 
L 2419 1625 
L 2419 4116 
z
M 2253 4666 
L 3047 4666 
L 3047 1625 
L 3713 1625 
L 3713 1100 
L 3047 1100 
L 3047 0 
L 2419 0 
L 2419 1100 
L 313 1100 
L 313 1709 
L 2253 4666 
z
" transform="scale(0.015625)"/>
       <path id="DejaVuSans-78" d="M 3513 3500 
L 2247 1797 
L 3578 0 
L 2900 0 
L 1881 1375 
L 863 0 
L 184 0 
L 1544 1831 
L 300 3500 
L 978 3500 
L 1906 2253 
L 2834 3500 
L 3513 3500 
z
" transform="scale(0.015625)"/>
       <path id="DejaVuSans-33" d="M 2597 2516 
Q 3050 2419 3304 2112 
Q 3559 1806 3559 1356 
Q 3559 666 3084 287 
Q 2609 -91 1734 -91 
Q 1441 -91 1130 -33 
Q 819 25 488 141 
L 488 750 
Q 750 597 1062 519 
Q 1375 441 1716 441 
Q 2309 441 2620 675 
Q 2931 909 2931 1356 
Q 2931 1769 2642 2001 
Q 2353 2234 1838 2234 
L 1294 2234 
L 1294 2753 
L 1863 2753 
Q 2328 2753 2575 2939 
Q 2822 3125 2822 3475 
Q 2822 3834 2567 4026 
Q 2313 4219 1838 4219 
Q 1578 4219 1281 4162 
Q 984 4106 628 3988 
L 628 4550 
Q 988 4650 1302 4700 
Q 1616 4750 1894 4750 
Q 2613 4750 3031 4423 
Q 3450 4097 3450 3541 
Q 3450 3153 3228 2886 
Q 3006 2619 2597 2516 
z
" transform="scale(0.015625)"/>
      </defs>
      <use xlink:href="#DejaVuSans-48"/>
      <use xlink:href="#DejaVuSans-69" transform="translate(75.195312 0)"/>
      <use xlink:href="#DejaVuSans-73" transform="translate(102.978516 0)"/>
      <use xlink:href="#DejaVuSans-74" transform="translate(155.078125 0)"/>
      <use xlink:href="#DejaVuSans-6f" transform="translate(194.287109 0)"/>
      <use xlink:href="#DejaVuSans-67" transform="translate(255.46875 0)"/>
      <use xlink:href="#DejaVuSans-72" transform="translate(318.945312 0)"/>
      <use xlink:href="#DejaVuSans-61" transform="translate(360.058594 0)"/>
      <use xlink:href="#DejaVuSans-6d" transform="translate(421.337891 0)"/>
      <use xlink:href="#DejaVuSans-20" transform="translate(518.75 0)"/>
      <use xlink:href="#DejaVuSans-6f" transform="translate(550.537109 0)"/>
      <use xlink:href="#DejaVuSans-66" transform="translate(611.71875 0)"/>
      <use xlink:href="#DejaVuSans-20" transform="translate(646.923828 0)"/>
      <use xlink:href="#DejaVuSans-72" transform="translate(678.710938 0)"/>
      <use xlink:href="#DejaVuSans-6f" transform="translate(717.574219 0)"/>
      <use xlink:href="#DejaVuSans-6f" transform="translate(778.755859 0)"/>
      <use xlink:href="#DejaVuSans-6d" transform="translate(839.9375 0)"/>
      <use xlink:href="#DejaVuSans-20" transform="translate(937.349609 0)"/>
      <use xlink:href="#DejaVuSans-77" transform="translate(969.136719 0)"/>
      <use xlink:href="#DejaVuSans-69" transform="translate(1050.923828 0)"/>
      <use xlink:href="#DejaVuSans-74" transform="translate(1078.707031 0)"/>
      <use xlink:href="#DejaVuSans-68" transform="translate(1117.916016 0)"/>
      <use xlink:href="#DejaVuSans-20" transform="translate(1181.294922 0)"/>
      <use xlink:href="#DejaVuSans-73" transform="translate(1213.082031 0)"/>
      <use xlink:href="#DejaVuSans-69" transform="translate(1265.181641 0)"/>
      <use xlink:href="#DejaVuSans-7a" transform="translate(1292.964844 0)"/>
      <use xlink:href="#DejaVuSans-65" transform="translate(1345.455078 0)"/>
      <use xlink:href="#DejaVuSans-20" transform="translate(1406.978516 0)"/>
      <use xlink:href="#DejaVuSans-34" transform="translate(1438.765625 0)"/>
      <use xlink:href="#DejaVuSans-78" transform="translate(1502.388672 0)"/>
      <use xlink:href="#DejaVuSans-35" transform="translate(1561.568359 0)"/>
      <use xlink:href="#DejaVuSans-78" transform="translate(1625.191406 0)"/>
      <use xlink:href="#DejaVuSans-33" transform="translate(1684.371094 0)"/>
      <use xlink:href="#DejaVuSans-20" transform="translate(1747.994141 0)"/>
      <use xlink:href="#DejaVuSans-6d" transform="translate(1779.78125 0)"/>
     </g>
     <!-- Patch size of 2 -->
     <g transform="translate(218.004375 69.26825) scale(0.1 -0.1)">
      <defs>
       <path id="DejaVuSans-50" d="M 1259 4147 
L 1259 2394 
L 2053 2394 
Q 2494 2394 2734 2622 
Q 2975 2850 2975 3272 
Q 2975 3691 2734 3919 
Q 2494 4147 2053 4147 
L 1259 4147 
z
M 628 4666 
L 2053 4666 
Q 2838 4666 3239 4311 
Q 3641 3956 3641 3272 
Q 3641 2581 3239 2228 
Q 2838 1875 2053 1875 
L 1259 1875 
L 1259 0 
L 628 0 
L 628 4666 
z
" transform="scale(0.015625)"/>
      </defs>
      <use xlink:href="#DejaVuSans-50"/>
      <use xlink:href="#DejaVuSans-61" transform="translate(55.802734 0)"/>
      <use xlink:href="#DejaVuSans-74" transform="translate(117.082031 0)"/>
      <use xlink:href="#DejaVuSans-63" transform="translate(156.291016 0)"/>
      <use xlink:href="#DejaVuSans-68" transform="translate(211.271484 0)"/>
      <use xlink:href="#DejaVuSans-20" transform="translate(274.650391 0)"/>
      <use xlink:href="#DejaVuSans-73" transform="translate(306.4375 0)"/>
      <use xlink:href="#DejaVuSans-69" transform="translate(358.537109 0)"/>
      <use xlink:href="#DejaVuSans-7a" transform="translate(386.320312 0)"/>
      <use xlink:href="#DejaVuSans-65" transform="translate(438.810547 0)"/>
      <use xlink:href="#DejaVuSans-20" transform="translate(500.333984 0)"/>
      <use xlink:href="#DejaVuSans-6f" transform="translate(532.121094 0)"/>
      <use xlink:href="#DejaVuSans-66" transform="translate(593.302734 0)"/>
      <use xlink:href="#DejaVuSans-20" transform="translate(628.507812 0)"/>
      <use xlink:href="#DejaVuSans-32" transform="translate(660.294922 0)"/>
     </g>
    </g>
   </g>
  </g>
 </g>
 <defs>
  <clipPath id="p707ca8b382">
   <rect x="57.6" y="41.472" width="357.12" height="266.112"/>
  </clipPath>
 </defs>
</svg>
